%TF.GenerationSoftware,KiCad,Pcbnew,6.0.2+dfsg-1*%
%TF.CreationDate,2023-03-10T19:28:33+01:00*%
%TF.ProjectId,BtMusgo,42744d75-7367-46f2-9e6b-696361645f70,rev?*%
%TF.SameCoordinates,Original*%
%TF.FileFunction,Legend,Bot*%
%TF.FilePolarity,Positive*%
%FSLAX46Y46*%
G04 Gerber Fmt 4.6, Leading zero omitted, Abs format (unit mm)*
G04 Created by KiCad (PCBNEW 6.0.2+dfsg-1) date 2023-03-10 19:28:33*
%MOMM*%
%LPD*%
G01*
G04 APERTURE LIST*
%TA.AperFunction,Profile*%
%ADD10C,0.150000*%
%TD*%
%ADD11C,0.500000*%
%ADD12C,0.300000*%
%ADD13C,6.400000*%
%ADD14C,0.800000*%
%ADD15R,1.700000X1.700000*%
%ADD16O,1.700000X1.700000*%
%ADD17O,1.501140X2.199640*%
%ADD18R,2.500000X2.500000*%
%ADD19C,2.500000*%
%ADD20C,1.520000*%
%ADD21R,1.520000X1.520000*%
%ADD22C,1.600000*%
%ADD23O,1.600000X1.600000*%
%ADD24R,2.400000X1.600000*%
%ADD25O,2.400000X1.600000*%
%ADD26O,2.032000X2.540000*%
%ADD27R,2.000000X2.000000*%
%ADD28C,2.000000*%
G04 APERTURE END LIST*
D10*
X236067600Y-74930000D02*
X235153200Y-74066400D01*
X246227600Y-74930000D02*
X236067600Y-74930000D01*
X234950000Y-139496979D02*
X234238800Y-140208179D01*
X246227600Y-139496979D02*
X234950000Y-139496979D01*
D11*
X206992285Y-145907261D02*
X206992285Y-146288214D01*
X206230380Y-145907261D02*
X206230380Y-146288214D01*
X204706571Y-146859642D02*
X204420857Y-146954880D01*
X204325619Y-147050119D01*
X204230380Y-147240595D01*
X204230380Y-147526309D01*
X204325619Y-147716785D01*
X204420857Y-147812023D01*
X204611333Y-147907261D01*
X205373238Y-147907261D01*
X205373238Y-145907261D01*
X204706571Y-145907261D01*
X204516095Y-146002500D01*
X204420857Y-146097738D01*
X204325619Y-146288214D01*
X204325619Y-146478690D01*
X204420857Y-146669166D01*
X204516095Y-146764404D01*
X204706571Y-146859642D01*
X205373238Y-146859642D01*
X202611333Y-147812023D02*
X202801809Y-147907261D01*
X203182761Y-147907261D01*
X203373238Y-147812023D01*
X203468476Y-147621547D01*
X203468476Y-146859642D01*
X203373238Y-146669166D01*
X203182761Y-146573928D01*
X202801809Y-146573928D01*
X202611333Y-146669166D01*
X202516095Y-146859642D01*
X202516095Y-147050119D01*
X203468476Y-147240595D01*
X201658952Y-147907261D02*
X201658952Y-145907261D01*
X200801809Y-147907261D02*
X200801809Y-146859642D01*
X200897047Y-146669166D01*
X201087523Y-146573928D01*
X201373238Y-146573928D01*
X201563714Y-146669166D01*
X201658952Y-146764404D01*
X199849428Y-147907261D02*
X199849428Y-146573928D01*
X199849428Y-145907261D02*
X199944666Y-146002500D01*
X199849428Y-146097738D01*
X199754190Y-146002500D01*
X199849428Y-145907261D01*
X199849428Y-146097738D01*
X198897047Y-146573928D02*
X198897047Y-147907261D01*
X198897047Y-146764404D02*
X198801809Y-146669166D01*
X198611333Y-146573928D01*
X198325619Y-146573928D01*
X198135142Y-146669166D01*
X198039904Y-146859642D01*
X198039904Y-147907261D01*
X196230380Y-147907261D02*
X196230380Y-145907261D01*
X196230380Y-147812023D02*
X196420857Y-147907261D01*
X196801809Y-147907261D01*
X196992285Y-147812023D01*
X197087523Y-147716785D01*
X197182761Y-147526309D01*
X197182761Y-146954880D01*
X197087523Y-146764404D01*
X196992285Y-146669166D01*
X196801809Y-146573928D01*
X196420857Y-146573928D01*
X196230380Y-146669166D01*
X194039904Y-146573928D02*
X193278000Y-146573928D01*
X193754190Y-145907261D02*
X193754190Y-147621547D01*
X193658952Y-147812023D01*
X193468476Y-147907261D01*
X193278000Y-147907261D01*
X192611333Y-147907261D02*
X192611333Y-145907261D01*
X191754190Y-147907261D02*
X191754190Y-146859642D01*
X191849428Y-146669166D01*
X192039904Y-146573928D01*
X192325619Y-146573928D01*
X192516095Y-146669166D01*
X192611333Y-146764404D01*
X190039904Y-147812023D02*
X190230380Y-147907261D01*
X190611333Y-147907261D01*
X190801809Y-147812023D01*
X190897047Y-147621547D01*
X190897047Y-146859642D01*
X190801809Y-146669166D01*
X190611333Y-146573928D01*
X190230380Y-146573928D01*
X190039904Y-146669166D01*
X189944666Y-146859642D01*
X189944666Y-147050119D01*
X190897047Y-147240595D01*
X187563714Y-147907261D02*
X187563714Y-145907261D01*
X186897047Y-147335833D01*
X186230380Y-145907261D01*
X186230380Y-147907261D01*
X184420857Y-146573928D02*
X184420857Y-147907261D01*
X185278000Y-146573928D02*
X185278000Y-147621547D01*
X185182761Y-147812023D01*
X184992285Y-147907261D01*
X184706571Y-147907261D01*
X184516095Y-147812023D01*
X184420857Y-147716785D01*
X183563714Y-147812023D02*
X183373238Y-147907261D01*
X182992285Y-147907261D01*
X182801809Y-147812023D01*
X182706571Y-147621547D01*
X182706571Y-147526309D01*
X182801809Y-147335833D01*
X182992285Y-147240595D01*
X183278000Y-147240595D01*
X183468476Y-147145357D01*
X183563714Y-146954880D01*
X183563714Y-146859642D01*
X183468476Y-146669166D01*
X183278000Y-146573928D01*
X182992285Y-146573928D01*
X182801809Y-146669166D01*
X180992285Y-146573928D02*
X180992285Y-148192976D01*
X181087523Y-148383452D01*
X181182761Y-148478690D01*
X181373238Y-148573928D01*
X181658952Y-148573928D01*
X181849428Y-148478690D01*
X180992285Y-147812023D02*
X181182761Y-147907261D01*
X181563714Y-147907261D01*
X181754190Y-147812023D01*
X181849428Y-147716785D01*
X181944666Y-147526309D01*
X181944666Y-146954880D01*
X181849428Y-146764404D01*
X181754190Y-146669166D01*
X181563714Y-146573928D01*
X181182761Y-146573928D01*
X180992285Y-146669166D01*
X179754190Y-147907261D02*
X179944666Y-147812023D01*
X180039904Y-147716785D01*
X180135142Y-147526309D01*
X180135142Y-146954880D01*
X180039904Y-146764404D01*
X179944666Y-146669166D01*
X179754190Y-146573928D01*
X179468476Y-146573928D01*
X179278000Y-146669166D01*
X179182761Y-146764404D01*
X179087523Y-146954880D01*
X179087523Y-147526309D01*
X179182761Y-147716785D01*
X179278000Y-147812023D01*
X179468476Y-147907261D01*
X179754190Y-147907261D01*
X178325619Y-145907261D02*
X178325619Y-146288214D01*
X177563714Y-145907261D02*
X177563714Y-146288214D01*
D12*
X153920000Y-96655071D02*
X153920000Y-97369357D01*
X154348571Y-96512214D02*
X152848571Y-97012214D01*
X154348571Y-97512214D01*
X152848571Y-98297928D02*
X152848571Y-98440785D01*
X152920000Y-98583642D01*
X152991428Y-98655071D01*
X153134285Y-98726500D01*
X153420000Y-98797928D01*
X153777142Y-98797928D01*
X154062857Y-98726500D01*
X154205714Y-98655071D01*
X154277142Y-98583642D01*
X154348571Y-98440785D01*
X154348571Y-98297928D01*
X154277142Y-98155071D01*
X154205714Y-98083642D01*
X154062857Y-98012214D01*
X153777142Y-97940785D01*
X153420000Y-97940785D01*
X153134285Y-98012214D01*
X152991428Y-98083642D01*
X152920000Y-98155071D01*
X152848571Y-98297928D01*
X156587000Y-96655071D02*
X156587000Y-97369357D01*
X157015571Y-96512214D02*
X155515571Y-97012214D01*
X157015571Y-97512214D01*
X157015571Y-98797928D02*
X157015571Y-97940785D01*
X157015571Y-98369357D02*
X155515571Y-98369357D01*
X155729857Y-98226500D01*
X155872714Y-98083642D01*
X155944142Y-97940785D01*
X159000000Y-96655071D02*
X159000000Y-97369357D01*
X159428571Y-96512214D02*
X157928571Y-97012214D01*
X159428571Y-97512214D01*
X158071428Y-97940785D02*
X158000000Y-98012214D01*
X157928571Y-98155071D01*
X157928571Y-98512214D01*
X158000000Y-98655071D01*
X158071428Y-98726500D01*
X158214285Y-98797928D01*
X158357142Y-98797928D01*
X158571428Y-98726500D01*
X159428571Y-97869357D01*
X159428571Y-98797928D01*
X161857500Y-96655071D02*
X161857500Y-97369357D01*
X162286071Y-96512214D02*
X160786071Y-97012214D01*
X162286071Y-97512214D01*
X160786071Y-97869357D02*
X160786071Y-98797928D01*
X161357500Y-98297928D01*
X161357500Y-98512214D01*
X161428928Y-98655071D01*
X161500357Y-98726500D01*
X161643214Y-98797928D01*
X162000357Y-98797928D01*
X162143214Y-98726500D01*
X162214642Y-98655071D01*
X162286071Y-98512214D01*
X162286071Y-98083642D01*
X162214642Y-97940785D01*
X162143214Y-97869357D01*
X162937000Y-88590571D02*
X162937000Y-89304857D01*
X163365571Y-88447714D02*
X161865571Y-88947714D01*
X163365571Y-89447714D01*
X161865571Y-90662000D02*
X161865571Y-89947714D01*
X162579857Y-89876285D01*
X162508428Y-89947714D01*
X162437000Y-90090571D01*
X162437000Y-90447714D01*
X162508428Y-90590571D01*
X162579857Y-90662000D01*
X162722714Y-90733428D01*
X163079857Y-90733428D01*
X163222714Y-90662000D01*
X163294142Y-90590571D01*
X163365571Y-90447714D01*
X163365571Y-90090571D01*
X163294142Y-89947714D01*
X163222714Y-89876285D01*
X160651000Y-88717571D02*
X160651000Y-89431857D01*
X161079571Y-88574714D02*
X159579571Y-89074714D01*
X161079571Y-89574714D01*
X160079571Y-90717571D02*
X161079571Y-90717571D01*
X159508142Y-90360428D02*
X160579571Y-90003285D01*
X160579571Y-90931857D01*
X152967500Y-88844571D02*
X152967500Y-89558857D01*
X153396071Y-88701714D02*
X151896071Y-89201714D01*
X153396071Y-89701714D01*
X151896071Y-90058857D02*
X151896071Y-91058857D01*
X153396071Y-90416000D01*
X150173500Y-88844571D02*
X150173500Y-89558857D01*
X150602071Y-88701714D02*
X149102071Y-89201714D01*
X150602071Y-89701714D01*
X149102071Y-90844571D02*
X149102071Y-90558857D01*
X149173500Y-90416000D01*
X149244928Y-90344571D01*
X149459214Y-90201714D01*
X149744928Y-90130285D01*
X150316357Y-90130285D01*
X150459214Y-90201714D01*
X150530642Y-90273142D01*
X150602071Y-90416000D01*
X150602071Y-90701714D01*
X150530642Y-90844571D01*
X150459214Y-90916000D01*
X150316357Y-90987428D01*
X149959214Y-90987428D01*
X149816357Y-90916000D01*
X149744928Y-90844571D01*
X149673500Y-90701714D01*
X149673500Y-90416000D01*
X149744928Y-90273142D01*
X149816357Y-90201714D01*
X149959214Y-90130285D01*
D10*
X125882384Y-69240400D02*
X235153955Y-69240400D01*
X125882400Y-69240400D02*
X123240800Y-71932800D01*
X123240800Y-150114000D02*
X123240800Y-71932800D01*
X125018800Y-151892000D02*
X123240800Y-150114000D01*
X234238906Y-151892000D02*
X125018800Y-151892000D01*
X234238800Y-140206234D02*
X234238800Y-151892000D01*
X246227600Y-74930000D02*
X246227600Y-139496979D01*
X235153200Y-69240400D02*
X235153200Y-74066400D01*
%LPC*%
D13*
%TO.C,*%
X230428800Y-147015200D03*
D14*
X232828800Y-147015200D03*
X232125856Y-148712256D03*
X230428800Y-149415200D03*
X228731744Y-148712256D03*
X228028800Y-147015200D03*
X228731744Y-145318144D03*
X230428800Y-144615200D03*
X232125856Y-145318144D03*
%TD*%
D15*
%TO.C,J4*%
X150622000Y-102743000D03*
D16*
X150622000Y-105283000D03*
X150622000Y-107823000D03*
X150622000Y-110363000D03*
%TD*%
D17*
%TO.C,IC1*%
X152527000Y-92583000D03*
X149987000Y-92583000D03*
X171577000Y-79883000D03*
X169037000Y-79883000D03*
X166497000Y-79883000D03*
X163957000Y-79883000D03*
X161417000Y-79883000D03*
X158877000Y-79883000D03*
X156337000Y-79883000D03*
X153797000Y-79883000D03*
X151257000Y-79883000D03*
X148717000Y-79883000D03*
X146177000Y-79883000D03*
X143637000Y-79883000D03*
X143637000Y-95123000D03*
X146177000Y-95123000D03*
X148717000Y-95123000D03*
X151257000Y-95123000D03*
X153797000Y-95123000D03*
X156337000Y-95123000D03*
X158877000Y-95123000D03*
X161417000Y-95123000D03*
X163957000Y-95123000D03*
X166497000Y-95123000D03*
X169037000Y-95123000D03*
X171577000Y-95123000D03*
X160147000Y-92583000D03*
X162687000Y-92583000D03*
%TD*%
D13*
%TO.C,*%
X172618400Y-121462800D03*
D14*
X175018400Y-121462800D03*
X174315456Y-123159856D03*
X172618400Y-123862800D03*
X170921344Y-123159856D03*
X170218400Y-121462800D03*
X170921344Y-119765744D03*
X172618400Y-119062800D03*
X174315456Y-119765744D03*
%TD*%
D13*
%TO.C,*%
X239408000Y-106273600D03*
D14*
X241808000Y-106273600D03*
X241105056Y-107970656D03*
X239408000Y-108673600D03*
X237710944Y-107970656D03*
X237008000Y-106273600D03*
X237710944Y-104576544D03*
X239408000Y-103873600D03*
X241105056Y-104576544D03*
%TD*%
D13*
%TO.C,*%
X193171744Y-74299744D03*
D14*
X195571744Y-74299744D03*
X194868800Y-75996800D03*
X193171744Y-76699744D03*
X191474688Y-75996800D03*
X190771744Y-74299744D03*
X191474688Y-72602688D03*
X193171744Y-71899744D03*
X194868800Y-72602688D03*
%TD*%
D13*
%TO.C,REF\u002A\u002A*%
X134467600Y-139090400D03*
D14*
X136867600Y-139090400D03*
X136164656Y-140787456D03*
X134467600Y-141490400D03*
X132770544Y-140787456D03*
X132067600Y-139090400D03*
X132770544Y-137393344D03*
X134467600Y-136690400D03*
X136164656Y-137393344D03*
%TD*%
D18*
%TO.C,J1*%
X129032000Y-75645000D03*
D19*
X129032000Y-80645000D03*
%TD*%
D15*
%TO.C,J2*%
X126746000Y-130556000D03*
D16*
X129286000Y-130556000D03*
X131826000Y-130556000D03*
X134366000Y-130556000D03*
X136906000Y-130556000D03*
X139446000Y-130556000D03*
X141986000Y-130556000D03*
%TD*%
D15*
%TO.C,J3*%
X126111000Y-106299000D03*
D16*
X128651000Y-106299000D03*
X131191000Y-106299000D03*
X133731000Y-106299000D03*
X136271000Y-106299000D03*
X138811000Y-106299000D03*
X141351000Y-106299000D03*
%TD*%
D20*
%TO.C,Q1*%
X148209000Y-120777000D03*
X148209000Y-123317000D03*
D21*
X148209000Y-118237000D03*
%TD*%
D20*
%TO.C,Q2*%
X164465000Y-73152000D03*
X164465000Y-70612000D03*
D21*
X164465000Y-75692000D03*
%TD*%
D22*
%TO.C,R1*%
X165735000Y-120777000D03*
D23*
X155575000Y-120777000D03*
%TD*%
D22*
%TO.C,R2*%
X158750000Y-73914000D03*
D23*
X148590000Y-73914000D03*
%TD*%
D18*
%TO.C,R3*%
X226267000Y-134493000D03*
D19*
X231267000Y-134493000D03*
%TD*%
D18*
%TO.C,R4*%
X238522500Y-134429500D03*
D19*
X243522500Y-134429500D03*
%TD*%
D18*
%TO.C,R5*%
X202391000Y-134493000D03*
D19*
X207391000Y-134493000D03*
%TD*%
D18*
%TO.C,R6*%
X214202000Y-134683500D03*
D19*
X219202000Y-134683500D03*
%TD*%
D22*
%TO.C,R7*%
X225107500Y-125349000D03*
D23*
X225107500Y-115189000D03*
%TD*%
D22*
%TO.C,R8*%
X201295000Y-125476000D03*
D23*
X201295000Y-115316000D03*
%TD*%
D22*
%TO.C,R9*%
X213169500Y-125412500D03*
D23*
X213169500Y-115252500D03*
%TD*%
D22*
%TO.C,R10*%
X237236000Y-125412500D03*
D23*
X237236000Y-115252500D03*
%TD*%
D18*
%TO.C,R11*%
X226267000Y-80518000D03*
D19*
X231267000Y-80518000D03*
%TD*%
D18*
%TO.C,R12*%
X202264000Y-80645000D03*
D19*
X207264000Y-80645000D03*
%TD*%
D18*
%TO.C,R13*%
X214329000Y-80581500D03*
D19*
X219329000Y-80581500D03*
%TD*%
D18*
%TO.C,R14*%
X238315500Y-80581500D03*
D19*
X243315500Y-80581500D03*
%TD*%
D22*
%TO.C,R15*%
X225234500Y-89344500D03*
D23*
X225234500Y-99504500D03*
%TD*%
D22*
%TO.C,R16*%
X201358500Y-89471500D03*
D23*
X201358500Y-99631500D03*
%TD*%
D22*
%TO.C,R17*%
X213233000Y-89408000D03*
D23*
X213233000Y-99568000D03*
%TD*%
D22*
%TO.C,R18*%
X237236000Y-89344500D03*
D23*
X237236000Y-99504500D03*
%TD*%
D24*
%TO.C,U1*%
X185674000Y-110236000D03*
D25*
X193294000Y-125476000D03*
X185674000Y-112776000D03*
X193294000Y-122936000D03*
X185674000Y-115316000D03*
X193294000Y-120396000D03*
X185674000Y-117856000D03*
X193294000Y-117856000D03*
X185674000Y-120396000D03*
X193294000Y-115316000D03*
X185674000Y-122936000D03*
X193294000Y-112776000D03*
X185674000Y-125476000D03*
X193294000Y-110236000D03*
%TD*%
D24*
%TO.C,U2*%
X185420000Y-88011000D03*
D25*
X193040000Y-103251000D03*
X185420000Y-90551000D03*
X193040000Y-100711000D03*
X185420000Y-93091000D03*
X193040000Y-98171000D03*
X185420000Y-95631000D03*
X193040000Y-95631000D03*
X185420000Y-98171000D03*
X193040000Y-93091000D03*
X185420000Y-100711000D03*
X193040000Y-90551000D03*
X185420000Y-103251000D03*
X193040000Y-88011000D03*
%TD*%
D26*
%TO.C,U3*%
X131699000Y-87630000D03*
X129159000Y-87630000D03*
X134239000Y-87630000D03*
%TD*%
D13*
%TO.C,*%
X141224000Y-74269600D03*
D14*
X143624000Y-74269600D03*
X142921056Y-75966656D03*
X141224000Y-76669600D03*
X139526944Y-75966656D03*
X138824000Y-74269600D03*
X139526944Y-72572544D03*
X141224000Y-71869600D03*
X142921056Y-72572544D03*
%TD*%
D27*
%TO.C,C1*%
X182245000Y-82279500D03*
D28*
X182245000Y-77279500D03*
%TD*%
D22*
%TO.C,R19*%
X160629600Y-104140000D03*
D23*
X160629600Y-114300000D03*
%TD*%
M02*
