%FSLAX45Y45*%
G04 Gerber Fmt 4.5, Leading zero omitted, Abs format (unit mm)*
G04 Created by KiCad (PCBNEW 6.0.2+dfsg-1) date 2023-03-10 19:29:58*
%MOMM*%
%LPD*%
G01*
G04 APERTURE LIST*
%TA.AperFunction,Profile*%
%ADD10C,0.150000*%
%TD*%
%ADD11C,0.200000*%
%ADD12C,0.050000*%
%ADD13C,0.060000*%
%ADD14C,0.080000*%
%ADD15C,0.080010*%
%ADD16C,0.100000*%
%ADD17C,0.114300*%
%ADD18C,0.130000*%
%ADD19C,0.320000*%
G04 APERTURE END LIST*
D10*
X23606760Y-7493000D02*
X23515320Y-7406640D01*
X24622760Y-7493000D02*
X23606760Y-7493000D01*
X23495000Y-13949698D02*
X23423880Y-14020818D01*
X24622760Y-13949698D02*
X23495000Y-13949698D01*
X12588238Y-6924040D02*
X23515395Y-6924040D01*
X12588240Y-6924040D02*
X12324080Y-7193280D01*
X12324080Y-15011400D02*
X12324080Y-7193280D01*
X12501880Y-15189200D02*
X12324080Y-15011400D01*
X23423891Y-15189200D02*
X12501880Y-15189200D01*
X23423880Y-14020623D02*
X23423880Y-15189200D01*
X24622760Y-7493000D02*
X24622760Y-13949698D01*
X23515320Y-6924040D02*
X23515320Y-7406640D01*
D11*
D12*
X13181760Y-13884040D02*
X13231760Y-13934040D01*
X13231760Y-13884040D02*
X13181760Y-13934040D01*
X13252054Y-13714334D02*
X13302054Y-13764334D01*
X13302054Y-13714334D02*
X13252054Y-13764334D01*
X13252054Y-14053746D02*
X13302054Y-14103746D01*
X13302054Y-14053746D02*
X13252054Y-14103746D01*
X13421760Y-13644040D02*
X13471760Y-13694040D01*
X13471760Y-13644040D02*
X13421760Y-13694040D01*
X13421760Y-14124040D02*
X13471760Y-14174040D01*
X13471760Y-14124040D02*
X13421760Y-14174040D01*
X13591466Y-13714334D02*
X13641466Y-13764334D01*
X13641466Y-13714334D02*
X13591466Y-13764334D01*
X13591466Y-14053746D02*
X13641466Y-14103746D01*
X13641466Y-14053746D02*
X13591466Y-14103746D01*
X13661760Y-13884040D02*
X13711760Y-13934040D01*
X13711760Y-13884040D02*
X13661760Y-13934040D01*
X13857400Y-7401960D02*
X13907400Y-7451960D01*
X13907400Y-7401960D02*
X13857400Y-7451960D01*
X13927694Y-7232254D02*
X13977694Y-7282254D01*
X13977694Y-7232254D02*
X13927694Y-7282254D01*
X13927694Y-7571666D02*
X13977694Y-7621666D01*
X13977694Y-7571666D02*
X13927694Y-7621666D01*
X14097400Y-7161960D02*
X14147400Y-7211960D01*
X14147400Y-7161960D02*
X14097400Y-7211960D01*
X14097400Y-7641960D02*
X14147400Y-7691960D01*
X14147400Y-7641960D02*
X14097400Y-7691960D01*
X14267106Y-7232254D02*
X14317106Y-7282254D01*
X14317106Y-7232254D02*
X14267106Y-7282254D01*
X14267106Y-7571666D02*
X14317106Y-7621666D01*
X14317106Y-7571666D02*
X14267106Y-7621666D01*
X14337400Y-7401960D02*
X14387400Y-7451960D01*
X14387400Y-7401960D02*
X14337400Y-7451960D01*
X16996840Y-12121280D02*
X17046840Y-12171280D01*
X17046840Y-12121280D02*
X16996840Y-12171280D01*
X17067134Y-11951574D02*
X17117134Y-12001574D01*
X17117134Y-11951574D02*
X17067134Y-12001574D01*
X17067134Y-12290986D02*
X17117134Y-12340986D01*
X17117134Y-12290986D02*
X17067134Y-12340986D01*
X17236840Y-11881280D02*
X17286840Y-11931280D01*
X17286840Y-11881280D02*
X17236840Y-11931280D01*
X17236840Y-12361280D02*
X17286840Y-12411280D01*
X17286840Y-12361280D02*
X17236840Y-12411280D01*
X17406546Y-11951574D02*
X17456546Y-12001574D01*
X17456546Y-11951574D02*
X17406546Y-12001574D01*
X17406546Y-12290986D02*
X17456546Y-12340986D01*
X17456546Y-12290986D02*
X17406546Y-12340986D01*
X17476840Y-12121280D02*
X17526840Y-12171280D01*
X17526840Y-12121280D02*
X17476840Y-12171280D01*
X19052174Y-7404974D02*
X19102174Y-7454974D01*
X19102174Y-7404974D02*
X19052174Y-7454974D01*
X19122469Y-7235269D02*
X19172469Y-7285269D01*
X19172469Y-7235269D02*
X19122469Y-7285269D01*
X19122469Y-7574680D02*
X19172469Y-7624680D01*
X19172469Y-7574680D02*
X19122469Y-7624680D01*
X19292174Y-7164974D02*
X19342174Y-7214974D01*
X19342174Y-7164974D02*
X19292174Y-7214974D01*
X19292174Y-7644974D02*
X19342174Y-7694974D01*
X19342174Y-7644974D02*
X19292174Y-7694974D01*
X19461880Y-7235269D02*
X19511880Y-7285269D01*
X19511880Y-7235269D02*
X19461880Y-7285269D01*
X19461880Y-7574680D02*
X19511880Y-7624680D01*
X19511880Y-7574680D02*
X19461880Y-7624680D01*
X19532174Y-7404974D02*
X19582174Y-7454974D01*
X19582174Y-7404974D02*
X19532174Y-7454974D01*
X22777880Y-14676520D02*
X22827880Y-14726520D01*
X22827880Y-14676520D02*
X22777880Y-14726520D01*
X22848174Y-14506814D02*
X22898174Y-14556814D01*
X22898174Y-14506814D02*
X22848174Y-14556814D01*
X22848174Y-14846226D02*
X22898174Y-14896226D01*
X22898174Y-14846226D02*
X22848174Y-14896226D01*
X23017880Y-14436520D02*
X23067880Y-14486520D01*
X23067880Y-14436520D02*
X23017880Y-14486520D01*
X23017880Y-14916520D02*
X23067880Y-14966520D01*
X23067880Y-14916520D02*
X23017880Y-14966520D01*
X23187586Y-14506814D02*
X23237586Y-14556814D01*
X23237586Y-14506814D02*
X23187586Y-14556814D01*
X23187586Y-14846226D02*
X23237586Y-14896226D01*
X23237586Y-14846226D02*
X23187586Y-14896226D01*
X23257880Y-14676520D02*
X23307880Y-14726520D01*
X23307880Y-14676520D02*
X23257880Y-14726520D01*
X23675800Y-10602360D02*
X23725800Y-10652360D01*
X23725800Y-10602360D02*
X23675800Y-10652360D01*
X23746094Y-10432654D02*
X23796094Y-10482654D01*
X23796094Y-10432654D02*
X23746094Y-10482654D01*
X23746094Y-10772066D02*
X23796094Y-10822066D01*
X23796094Y-10772066D02*
X23746094Y-10822066D01*
X23915800Y-10362360D02*
X23965800Y-10412360D01*
X23965800Y-10362360D02*
X23915800Y-10412360D01*
X23915800Y-10842360D02*
X23965800Y-10892360D01*
X23965800Y-10842360D02*
X23915800Y-10892360D01*
X24085506Y-10432654D02*
X24135506Y-10482654D01*
X24135506Y-10432654D02*
X24085506Y-10482654D01*
X24085506Y-10772066D02*
X24135506Y-10822066D01*
X24135506Y-10772066D02*
X24085506Y-10822066D01*
X24155800Y-10602360D02*
X24205800Y-10652360D01*
X24205800Y-10602360D02*
X24155800Y-10652360D01*
D13*
X12577600Y-11512550D02*
G75*
G03*
X12577600Y-11512550I-30000J0D01*
G01*
X12583950Y-8451850D02*
G75*
G03*
X12583950Y-8451850I-30000J0D01*
G01*
X12774450Y-11969750D02*
G75*
G03*
X12774450Y-11969750I-30000J0D01*
G01*
X12799850Y-12801600D02*
G75*
G03*
X12799850Y-12801600I-30000J0D01*
G01*
X12996700Y-9753600D02*
G75*
G03*
X12996700Y-9753600I-30000J0D01*
G01*
X13130050Y-8464550D02*
G75*
G03*
X13130050Y-8464550I-30000J0D01*
G01*
X13212600Y-12534900D02*
G75*
G03*
X13212600Y-12534900I-30000J0D01*
G01*
X13980950Y-9387300D02*
G75*
G03*
X13980950Y-9387300I-30000J0D01*
G01*
X14038100Y-8553450D02*
G75*
G03*
X14038100Y-8553450I-30000J0D01*
G01*
X14038100Y-11950700D02*
G75*
G03*
X14038100Y-11950700I-30000J0D01*
G01*
X14059691Y-10477867D02*
G75*
G03*
X14059691Y-10477867I-30000J0D01*
G01*
X14158750Y-9988550D02*
G75*
G03*
X14158750Y-9988550I-30000J0D01*
G01*
X14165100Y-12534900D02*
G75*
G03*
X14165100Y-12534900I-30000J0D01*
G01*
X14222250Y-11480800D02*
G75*
G03*
X14222250Y-11480800I-30000J0D01*
G01*
X14228600Y-9378950D02*
G75*
G03*
X14228600Y-9378950I-30000J0D01*
G01*
X14228600Y-12801600D02*
G75*
G03*
X14228600Y-12801600I-30000J0D01*
G01*
X14273050Y-8312150D02*
G75*
G03*
X14273050Y-8312150I-30000J0D01*
G01*
X14533400Y-8305800D02*
G75*
G03*
X14533400Y-8305800I-30000J0D01*
G01*
X14664704Y-10673307D02*
G75*
G03*
X14664704Y-10673307I-30000J0D01*
G01*
X14762000Y-10982960D02*
G75*
G03*
X14762000Y-10982960I-30000J0D01*
G01*
X14850900Y-8731250D02*
G75*
G03*
X14850900Y-8731250I-30000J0D01*
G01*
X15136650Y-8515350D02*
G75*
G03*
X15136650Y-8515350I-30000J0D01*
G01*
X15181100Y-8293100D02*
G75*
G03*
X15181100Y-8293100I-30000J0D01*
G01*
X15447800Y-10419080D02*
G75*
G03*
X15447800Y-10419080I-30000J0D01*
G01*
X15449033Y-9885717D02*
G75*
G03*
X15449033Y-9885717I-30000J0D01*
G01*
X15555750Y-9143300D02*
G75*
G03*
X15555750Y-9143300I-30000J0D01*
G01*
X15635637Y-9909687D02*
G75*
G03*
X15635637Y-9909687I-30000J0D01*
G01*
X15720850Y-8928800D02*
G75*
G03*
X15720850Y-8928800I-30000J0D01*
G01*
X15815588Y-10076749D02*
G75*
G03*
X15815588Y-10076749I-30000J0D01*
G01*
X15854200Y-8489950D02*
G75*
G03*
X15854200Y-8489950I-30000J0D01*
G01*
X15866900Y-9855200D02*
G75*
G03*
X15866900Y-9855200I-30000J0D01*
G01*
X16012846Y-8953396D02*
G75*
G03*
X16012846Y-8953396I-30000J0D01*
G01*
X16279650Y-8813800D02*
G75*
G03*
X16279650Y-8813800I-30000J0D01*
G01*
X16322868Y-10256482D02*
G75*
G03*
X16322868Y-10256482I-30000J0D01*
G01*
X16451100Y-9029700D02*
G75*
G03*
X16451100Y-9029700I-30000J0D01*
G01*
X16463800Y-9819100D02*
G75*
G03*
X16463800Y-9819100I-30000J0D01*
G01*
X16552700Y-10069100D02*
G75*
G03*
X16552700Y-10069100I-30000J0D01*
G01*
X16786574Y-9253026D02*
G75*
G03*
X16786574Y-9253026I-30000J0D01*
G01*
X16882900Y-8813800D02*
G75*
G03*
X16882900Y-8813800I-30000J0D01*
G01*
X16978150Y-10293350D02*
G75*
G03*
X16978150Y-10293350I-30000J0D01*
G01*
X17009900Y-9029700D02*
G75*
G03*
X17009900Y-9029700I-30000J0D01*
G01*
X17228218Y-9217782D02*
G75*
G03*
X17228218Y-9217782I-30000J0D01*
G01*
X17289300Y-9740900D02*
G75*
G03*
X17289300Y-9740900I-30000J0D01*
G01*
X17308350Y-8934450D02*
G75*
G03*
X17308350Y-8934450I-30000J0D01*
G01*
X17442298Y-10299102D02*
G75*
G03*
X17442298Y-10299102I-30000J0D01*
G01*
X17759200Y-11855450D02*
G75*
G03*
X17759200Y-11855450I-30000J0D01*
G01*
X18025900Y-9563100D02*
G75*
G03*
X18025900Y-9563100I-30000J0D01*
G01*
X18076700Y-8991600D02*
G75*
G03*
X18076700Y-8991600I-30000J0D01*
G01*
X18095750Y-11900601D02*
G75*
G03*
X18095750Y-11900601I-30000J0D01*
G01*
X18103550Y-10115550D02*
G75*
G03*
X18103550Y-10115550I-30000J0D01*
G01*
X18140200Y-11023600D02*
G75*
G03*
X18140200Y-11023600I-30000J0D01*
G01*
X18153412Y-10648438D02*
G75*
G03*
X18153412Y-10648438I-30000J0D01*
G01*
X18489450Y-12928600D02*
G75*
G03*
X18489450Y-12928600I-30000J0D01*
G01*
X18660900Y-10750550D02*
G75*
G03*
X18660900Y-10750550I-30000J0D01*
G01*
X18819650Y-8439150D02*
G75*
G03*
X18819650Y-8439150I-30000J0D01*
G01*
X18895850Y-9182100D02*
G75*
G03*
X18895850Y-9182100I-30000J0D01*
G01*
X19181600Y-8515350D02*
G75*
G03*
X19181600Y-8515350I-30000J0D01*
G01*
X20020850Y-9818150D02*
G75*
G03*
X20020850Y-9818150I-30000J0D01*
G01*
X20609080Y-10271760D02*
G75*
G03*
X20609080Y-10271760I-30000J0D01*
G01*
X20629400Y-11856720D02*
G75*
G03*
X20629400Y-11856720I-30000J0D01*
G01*
X21569200Y-8934450D02*
G75*
G03*
X21569200Y-8934450I-30000J0D01*
G01*
X21740650Y-11093450D02*
G75*
G03*
X21740650Y-11093450I-30000J0D01*
G01*
X21804150Y-12338050D02*
G75*
G03*
X21804150Y-12338050I-30000J0D01*
G01*
X21804150Y-12725400D02*
G75*
G03*
X21804150Y-12725400I-30000J0D01*
G01*
X21912100Y-11391900D02*
G75*
G03*
X21912100Y-11391900I-30000J0D01*
G01*
X22064500Y-8934450D02*
G75*
G03*
X22064500Y-8934450I-30000J0D01*
G01*
X22820150Y-8928100D02*
G75*
G03*
X22820150Y-8928100I-30000J0D01*
G01*
X23029700Y-12280900D02*
G75*
G03*
X23029700Y-12280900I-30000J0D01*
G01*
X23029700Y-12788900D02*
G75*
G03*
X23029700Y-12788900I-30000J0D01*
G01*
X23194800Y-8928100D02*
G75*
G03*
X23194800Y-8928100I-30000J0D01*
G01*
D14*
X14820900Y-11783700D02*
X14820900Y-11863700D01*
X14780900Y-11823700D02*
X14860900Y-11823700D01*
X14820900Y-12037700D02*
X14820900Y-12117700D01*
X14780900Y-12077700D02*
X14860900Y-12077700D01*
X14820900Y-12291700D02*
X14820900Y-12371700D01*
X14780900Y-12331700D02*
X14860900Y-12331700D01*
X14859000Y-7351400D02*
X14859000Y-7431400D01*
X14819000Y-7391400D02*
X14899000Y-7391400D01*
X15557500Y-12037700D02*
X15557500Y-12117700D01*
X15517500Y-12077700D02*
X15597500Y-12077700D01*
X15875000Y-7351400D02*
X15875000Y-7431400D01*
X15835000Y-7391400D02*
X15915000Y-7391400D01*
X16062960Y-10374000D02*
X16062960Y-10454000D01*
X16022960Y-10414000D02*
X16102960Y-10414000D01*
X16062960Y-11390000D02*
X16062960Y-11470000D01*
X16022960Y-11430000D02*
X16102960Y-11430000D01*
X16446500Y-7021200D02*
X16446500Y-7101200D01*
X16406500Y-7061200D02*
X16486500Y-7061200D01*
X16446500Y-7275200D02*
X16446500Y-7355200D01*
X16406500Y-7315200D02*
X16486500Y-7315200D01*
X16446500Y-7529200D02*
X16446500Y-7609200D01*
X16406500Y-7569200D02*
X16486500Y-7569200D01*
X16573500Y-12037700D02*
X16573500Y-12117700D01*
X16533500Y-12077700D02*
X16613500Y-12077700D01*
X18542000Y-8761100D02*
X18542000Y-8841100D01*
X18502000Y-8801100D02*
X18582000Y-8801100D01*
X18542000Y-9015100D02*
X18542000Y-9095100D01*
X18502000Y-9055100D02*
X18582000Y-9055100D01*
X18542000Y-9269100D02*
X18542000Y-9349100D01*
X18502000Y-9309100D02*
X18582000Y-9309100D01*
X18542000Y-9523100D02*
X18542000Y-9603100D01*
X18502000Y-9563100D02*
X18582000Y-9563100D01*
X18542000Y-9777100D02*
X18542000Y-9857100D01*
X18502000Y-9817100D02*
X18582000Y-9817100D01*
X18542000Y-10031100D02*
X18542000Y-10111100D01*
X18502000Y-10071100D02*
X18582000Y-10071100D01*
X18542000Y-10285100D02*
X18542000Y-10365100D01*
X18502000Y-10325100D02*
X18582000Y-10325100D01*
X18567400Y-10983600D02*
X18567400Y-11063600D01*
X18527400Y-11023600D02*
X18607400Y-11023600D01*
X18567400Y-11237600D02*
X18567400Y-11317600D01*
X18527400Y-11277600D02*
X18607400Y-11277600D01*
X18567400Y-11491600D02*
X18567400Y-11571600D01*
X18527400Y-11531600D02*
X18607400Y-11531600D01*
X18567400Y-11745600D02*
X18567400Y-11825600D01*
X18527400Y-11785600D02*
X18607400Y-11785600D01*
X18567400Y-11999600D02*
X18567400Y-12079600D01*
X18527400Y-12039600D02*
X18607400Y-12039600D01*
X18567400Y-12253600D02*
X18567400Y-12333600D01*
X18527400Y-12293600D02*
X18607400Y-12293600D01*
X18567400Y-12507600D02*
X18567400Y-12587600D01*
X18527400Y-12547600D02*
X18607400Y-12547600D01*
X19304000Y-8761100D02*
X19304000Y-8841100D01*
X19264000Y-8801100D02*
X19344000Y-8801100D01*
X19304000Y-9015100D02*
X19304000Y-9095100D01*
X19264000Y-9055100D02*
X19344000Y-9055100D01*
X19304000Y-9269100D02*
X19304000Y-9349100D01*
X19264000Y-9309100D02*
X19344000Y-9309100D01*
X19304000Y-9523100D02*
X19304000Y-9603100D01*
X19264000Y-9563100D02*
X19344000Y-9563100D01*
X19304000Y-9777100D02*
X19304000Y-9857100D01*
X19264000Y-9817100D02*
X19344000Y-9817100D01*
X19304000Y-10031100D02*
X19304000Y-10111100D01*
X19264000Y-10071100D02*
X19344000Y-10071100D01*
X19304000Y-10285100D02*
X19304000Y-10365100D01*
X19264000Y-10325100D02*
X19344000Y-10325100D01*
X19329400Y-10983600D02*
X19329400Y-11063600D01*
X19289400Y-11023600D02*
X19369400Y-11023600D01*
X19329400Y-11237600D02*
X19329400Y-11317600D01*
X19289400Y-11277600D02*
X19369400Y-11277600D01*
X19329400Y-11491600D02*
X19329400Y-11571600D01*
X19289400Y-11531600D02*
X19369400Y-11531600D01*
X19329400Y-11745600D02*
X19329400Y-11825600D01*
X19289400Y-11785600D02*
X19369400Y-11785600D01*
X19329400Y-11999600D02*
X19329400Y-12079600D01*
X19289400Y-12039600D02*
X19369400Y-12039600D01*
X19329400Y-12253600D02*
X19329400Y-12333600D01*
X19289400Y-12293600D02*
X19369400Y-12293600D01*
X19329400Y-12507600D02*
X19329400Y-12587600D01*
X19289400Y-12547600D02*
X19369400Y-12547600D01*
X20129500Y-11491600D02*
X20129500Y-11571600D01*
X20089500Y-11531600D02*
X20169500Y-11531600D01*
X20129500Y-12507600D02*
X20129500Y-12587600D01*
X20089500Y-12547600D02*
X20169500Y-12547600D01*
X20135850Y-8907150D02*
X20135850Y-8987150D01*
X20095850Y-8947150D02*
X20175850Y-8947150D01*
X20135850Y-9923150D02*
X20135850Y-10003150D01*
X20095850Y-9963150D02*
X20175850Y-9963150D01*
X21316950Y-11485250D02*
X21316950Y-11565250D01*
X21276950Y-11525250D02*
X21356950Y-11525250D01*
X21316950Y-12501250D02*
X21316950Y-12581250D01*
X21276950Y-12541250D02*
X21356950Y-12541250D01*
X21323300Y-8900800D02*
X21323300Y-8980800D01*
X21283300Y-8940800D02*
X21363300Y-8940800D01*
X21323300Y-9916800D02*
X21323300Y-9996800D01*
X21283300Y-9956800D02*
X21363300Y-9956800D01*
X22510750Y-11478900D02*
X22510750Y-11558900D01*
X22470750Y-11518900D02*
X22550750Y-11518900D01*
X22510750Y-12494900D02*
X22510750Y-12574900D01*
X22470750Y-12534900D02*
X22550750Y-12534900D01*
X22523450Y-8894450D02*
X22523450Y-8974450D01*
X22483450Y-8934450D02*
X22563450Y-8934450D01*
X22523450Y-9910450D02*
X22523450Y-9990450D01*
X22483450Y-9950450D02*
X22563450Y-9950450D01*
X23723600Y-8894450D02*
X23723600Y-8974450D01*
X23683600Y-8934450D02*
X23763600Y-8934450D01*
X23723600Y-9910450D02*
X23723600Y-9990450D01*
X23683600Y-9950450D02*
X23763600Y-9950450D01*
X23723600Y-11485250D02*
X23723600Y-11565250D01*
X23683600Y-11525250D02*
X23763600Y-11525250D01*
X23723600Y-12501250D02*
X23723600Y-12581250D01*
X23683600Y-12541250D02*
X23763600Y-12541250D01*
D15*
X14391988Y-8016588D02*
X14391988Y-7960012D01*
X14335412Y-7960012D01*
X14335412Y-8016588D01*
X14391988Y-8016588D01*
X14391988Y-9540588D02*
X14391988Y-9484012D01*
X14335412Y-9484012D01*
X14335412Y-9540588D01*
X14391988Y-9540588D01*
X14645988Y-8016588D02*
X14645988Y-7960012D01*
X14589412Y-7960012D01*
X14589412Y-8016588D01*
X14645988Y-8016588D01*
X14645988Y-9540588D02*
X14645988Y-9484012D01*
X14589412Y-9484012D01*
X14589412Y-9540588D01*
X14645988Y-9540588D01*
X14899988Y-8016588D02*
X14899988Y-7960012D01*
X14843412Y-7960012D01*
X14843412Y-8016588D01*
X14899988Y-8016588D01*
X14899988Y-9540588D02*
X14899988Y-9484012D01*
X14843412Y-9484012D01*
X14843412Y-9540588D01*
X14899988Y-9540588D01*
X15026988Y-9286588D02*
X15026988Y-9230012D01*
X14970412Y-9230012D01*
X14970412Y-9286588D01*
X15026988Y-9286588D01*
X15153988Y-8016588D02*
X15153988Y-7960012D01*
X15097412Y-7960012D01*
X15097412Y-8016588D01*
X15153988Y-8016588D01*
X15153988Y-9540588D02*
X15153988Y-9484012D01*
X15097412Y-9484012D01*
X15097412Y-9540588D01*
X15153988Y-9540588D01*
X15280988Y-9286588D02*
X15280988Y-9230012D01*
X15224412Y-9230012D01*
X15224412Y-9286588D01*
X15280988Y-9286588D01*
X15407988Y-8016588D02*
X15407988Y-7960012D01*
X15351412Y-7960012D01*
X15351412Y-8016588D01*
X15407988Y-8016588D01*
X15407988Y-9540588D02*
X15407988Y-9484012D01*
X15351412Y-9484012D01*
X15351412Y-9540588D01*
X15407988Y-9540588D01*
X15661988Y-8016588D02*
X15661988Y-7960012D01*
X15605412Y-7960012D01*
X15605412Y-8016588D01*
X15661988Y-8016588D01*
X15661988Y-9540588D02*
X15661988Y-9484012D01*
X15605412Y-9484012D01*
X15605412Y-9540588D01*
X15661988Y-9540588D01*
X15915988Y-8016588D02*
X15915988Y-7960012D01*
X15859412Y-7960012D01*
X15859412Y-8016588D01*
X15915988Y-8016588D01*
X15915988Y-9540588D02*
X15915988Y-9484012D01*
X15859412Y-9484012D01*
X15859412Y-9540588D01*
X15915988Y-9540588D01*
X16042988Y-9286588D02*
X16042988Y-9230012D01*
X15986412Y-9230012D01*
X15986412Y-9286588D01*
X16042988Y-9286588D01*
X16169988Y-8016588D02*
X16169988Y-7960012D01*
X16113412Y-7960012D01*
X16113412Y-8016588D01*
X16169988Y-8016588D01*
X16169988Y-9540588D02*
X16169988Y-9484012D01*
X16113412Y-9484012D01*
X16113412Y-9540588D01*
X16169988Y-9540588D01*
X16296988Y-9286588D02*
X16296988Y-9230012D01*
X16240412Y-9230012D01*
X16240412Y-9286588D01*
X16296988Y-9286588D01*
X16423988Y-8016588D02*
X16423988Y-7960012D01*
X16367412Y-7960012D01*
X16367412Y-8016588D01*
X16423988Y-8016588D01*
X16423988Y-9540588D02*
X16423988Y-9484012D01*
X16367412Y-9484012D01*
X16367412Y-9540588D01*
X16423988Y-9540588D01*
X16677988Y-8016588D02*
X16677988Y-7960012D01*
X16621412Y-7960012D01*
X16621412Y-8016588D01*
X16677988Y-8016588D01*
X16677988Y-9540588D02*
X16677988Y-9484012D01*
X16621412Y-9484012D01*
X16621412Y-9540588D01*
X16677988Y-9540588D01*
X16931988Y-8016588D02*
X16931988Y-7960012D01*
X16875412Y-7960012D01*
X16875412Y-8016588D01*
X16931988Y-8016588D01*
X16931988Y-9540588D02*
X16931988Y-9484012D01*
X16875412Y-9484012D01*
X16875412Y-9540588D01*
X16931988Y-9540588D01*
X17185988Y-8016588D02*
X17185988Y-7960012D01*
X17129412Y-7960012D01*
X17129412Y-8016588D01*
X17185988Y-8016588D01*
X17185988Y-9540588D02*
X17185988Y-9484012D01*
X17129412Y-9484012D01*
X17129412Y-9540588D01*
X17185988Y-9540588D01*
D16*
X12611100Y-10679900D02*
X12661100Y-10629900D01*
X12611100Y-10579900D01*
X12561100Y-10629900D01*
X12611100Y-10679900D01*
X12674600Y-13105600D02*
X12724600Y-13055600D01*
X12674600Y-13005600D01*
X12624600Y-13055600D01*
X12674600Y-13105600D01*
X12865100Y-10679900D02*
X12915100Y-10629900D01*
X12865100Y-10579900D01*
X12815100Y-10629900D01*
X12865100Y-10679900D01*
X12928600Y-13105600D02*
X12978600Y-13055600D01*
X12928600Y-13005600D01*
X12878600Y-13055600D01*
X12928600Y-13105600D01*
X13119100Y-10679900D02*
X13169100Y-10629900D01*
X13119100Y-10579900D01*
X13069100Y-10629900D01*
X13119100Y-10679900D01*
X13182600Y-13105600D02*
X13232600Y-13055600D01*
X13182600Y-13005600D01*
X13132600Y-13055600D01*
X13182600Y-13105600D01*
X13373100Y-10679900D02*
X13423100Y-10629900D01*
X13373100Y-10579900D01*
X13323100Y-10629900D01*
X13373100Y-10679900D01*
X13436600Y-13105600D02*
X13486600Y-13055600D01*
X13436600Y-13005600D01*
X13386600Y-13055600D01*
X13436600Y-13105600D01*
X13627100Y-10679900D02*
X13677100Y-10629900D01*
X13627100Y-10579900D01*
X13577100Y-10629900D01*
X13627100Y-10679900D01*
X13690600Y-13105600D02*
X13740600Y-13055600D01*
X13690600Y-13005600D01*
X13640600Y-13055600D01*
X13690600Y-13105600D01*
X13881100Y-10679900D02*
X13931100Y-10629900D01*
X13881100Y-10579900D01*
X13831100Y-10629900D01*
X13881100Y-10679900D01*
X13944600Y-13105600D02*
X13994600Y-13055600D01*
X13944600Y-13005600D01*
X13894600Y-13055600D01*
X13944600Y-13105600D01*
X14135100Y-10679900D02*
X14185100Y-10629900D01*
X14135100Y-10579900D01*
X14085100Y-10629900D01*
X14135100Y-10679900D01*
X14198600Y-13105600D02*
X14248600Y-13055600D01*
X14198600Y-13005600D01*
X14148600Y-13055600D01*
X14198600Y-13105600D01*
X15062200Y-10324300D02*
X15112200Y-10274300D01*
X15062200Y-10224300D01*
X15012200Y-10274300D01*
X15062200Y-10324300D01*
X15062200Y-10578300D02*
X15112200Y-10528300D01*
X15062200Y-10478300D01*
X15012200Y-10528300D01*
X15062200Y-10578300D01*
X15062200Y-10832300D02*
X15112200Y-10782300D01*
X15062200Y-10732300D01*
X15012200Y-10782300D01*
X15062200Y-10832300D01*
X15062200Y-11086300D02*
X15112200Y-11036300D01*
X15062200Y-10986300D01*
X15012200Y-11036300D01*
X15062200Y-11086300D01*
X18224500Y-7777950D02*
X18274500Y-7727950D01*
X18224500Y-7677950D01*
X18174500Y-7727950D01*
X18224500Y-7777950D01*
X18224500Y-8277950D02*
X18274500Y-8227950D01*
X18224500Y-8177950D01*
X18174500Y-8227950D01*
X18224500Y-8277950D01*
D17*
X12858750Y-8705850D02*
X12973050Y-8820150D01*
X12973050Y-8705850D02*
X12858750Y-8820150D01*
X12973050Y-8763000D02*
G75*
G03*
X12973050Y-8763000I-57150J0D01*
G01*
X13112750Y-8705850D02*
X13227050Y-8820150D01*
X13227050Y-8705850D02*
X13112750Y-8820150D01*
X13227050Y-8763000D02*
G75*
G03*
X13227050Y-8763000I-57150J0D01*
G01*
X13366750Y-8705850D02*
X13481050Y-8820150D01*
X13481050Y-8705850D02*
X13366750Y-8820150D01*
X13481050Y-8763000D02*
G75*
G03*
X13481050Y-8763000I-57150J0D01*
G01*
D18*
X12838200Y-7499500D02*
X12968200Y-7629500D01*
X12968200Y-7499500D02*
X12838200Y-7629500D01*
X12903200Y-7499500D02*
X12903200Y-7629500D01*
X12838200Y-7564500D02*
X12968200Y-7564500D01*
X12838200Y-7999500D02*
X12968200Y-8129500D01*
X12968200Y-7999500D02*
X12838200Y-8129500D01*
X12903200Y-7999500D02*
X12903200Y-8129500D01*
X12838200Y-8064500D02*
X12968200Y-8064500D01*
X20161400Y-7999500D02*
X20291400Y-8129500D01*
X20291400Y-7999500D02*
X20161400Y-8129500D01*
X20226400Y-7999500D02*
X20226400Y-8129500D01*
X20161400Y-8064500D02*
X20291400Y-8064500D01*
X20174100Y-13384300D02*
X20304100Y-13514300D01*
X20304100Y-13384300D02*
X20174100Y-13514300D01*
X20239100Y-13384300D02*
X20239100Y-13514300D01*
X20174100Y-13449300D02*
X20304100Y-13449300D01*
X20661400Y-7999500D02*
X20791400Y-8129500D01*
X20791400Y-7999500D02*
X20661400Y-8129500D01*
X20726400Y-7999500D02*
X20726400Y-8129500D01*
X20661400Y-8064500D02*
X20791400Y-8064500D01*
X20674100Y-13384300D02*
X20804100Y-13514300D01*
X20804100Y-13384300D02*
X20674100Y-13514300D01*
X20739100Y-13384300D02*
X20739100Y-13514300D01*
X20674100Y-13449300D02*
X20804100Y-13449300D01*
X21355200Y-13403350D02*
X21485200Y-13533350D01*
X21485200Y-13403350D02*
X21355200Y-13533350D01*
X21420200Y-13403350D02*
X21420200Y-13533350D01*
X21355200Y-13468350D02*
X21485200Y-13468350D01*
X21367900Y-7993150D02*
X21497900Y-8123150D01*
X21497900Y-7993150D02*
X21367900Y-8123150D01*
X21432900Y-7993150D02*
X21432900Y-8123150D01*
X21367900Y-8058150D02*
X21497900Y-8058150D01*
X21855200Y-13403350D02*
X21985200Y-13533350D01*
X21985200Y-13403350D02*
X21855200Y-13533350D01*
X21920200Y-13403350D02*
X21920200Y-13533350D01*
X21855200Y-13468350D02*
X21985200Y-13468350D01*
X21867900Y-7993150D02*
X21997900Y-8123150D01*
X21997900Y-7993150D02*
X21867900Y-8123150D01*
X21932900Y-7993150D02*
X21932900Y-8123150D01*
X21867900Y-8058150D02*
X21997900Y-8058150D01*
X22561700Y-7986800D02*
X22691700Y-8116800D01*
X22691700Y-7986800D02*
X22561700Y-8116800D01*
X22626700Y-7986800D02*
X22626700Y-8116800D01*
X22561700Y-8051800D02*
X22691700Y-8051800D01*
X22561700Y-13384300D02*
X22691700Y-13514300D01*
X22691700Y-13384300D02*
X22561700Y-13514300D01*
X22626700Y-13384300D02*
X22626700Y-13514300D01*
X22561700Y-13449300D02*
X22691700Y-13449300D01*
X23061700Y-7986800D02*
X23191700Y-8116800D01*
X23191700Y-7986800D02*
X23061700Y-8116800D01*
X23126700Y-7986800D02*
X23126700Y-8116800D01*
X23061700Y-8051800D02*
X23191700Y-8051800D01*
X23061700Y-13384300D02*
X23191700Y-13514300D01*
X23191700Y-13384300D02*
X23061700Y-13514300D01*
X23126700Y-13384300D02*
X23126700Y-13514300D01*
X23061700Y-13449300D02*
X23191700Y-13449300D01*
X23766550Y-7993150D02*
X23896550Y-8123150D01*
X23896550Y-7993150D02*
X23766550Y-8123150D01*
X23831550Y-7993150D02*
X23831550Y-8123150D01*
X23766550Y-8058150D02*
X23896550Y-8058150D01*
X23787250Y-13377950D02*
X23917250Y-13507950D01*
X23917250Y-13377950D02*
X23787250Y-13507950D01*
X23852250Y-13377950D02*
X23852250Y-13507950D01*
X23787250Y-13442950D02*
X23917250Y-13442950D01*
X24266550Y-7993150D02*
X24396550Y-8123150D01*
X24396550Y-7993150D02*
X24266550Y-8123150D01*
X24331550Y-7993150D02*
X24331550Y-8123150D01*
X24266550Y-8058150D02*
X24396550Y-8058150D01*
X24287250Y-13377950D02*
X24417250Y-13507950D01*
X24417250Y-13377950D02*
X24287250Y-13507950D01*
X24352250Y-13377950D02*
X24352250Y-13507950D01*
X24287250Y-13442950D02*
X24417250Y-13442950D01*
D19*
X13286760Y-13749040D02*
X13606760Y-14069040D01*
X13606760Y-13749040D02*
X13286760Y-14069040D01*
X13559898Y-14022178D02*
X13559898Y-13795902D01*
X13333622Y-13795902D01*
X13333622Y-14022178D01*
X13559898Y-14022178D01*
X13962400Y-7266960D02*
X14282400Y-7586960D01*
X14282400Y-7266960D02*
X13962400Y-7586960D01*
X14235538Y-7540098D02*
X14235538Y-7313822D01*
X14009262Y-7313822D01*
X14009262Y-7540098D01*
X14235538Y-7540098D01*
X17101840Y-11986280D02*
X17421840Y-12306280D01*
X17421840Y-11986280D02*
X17101840Y-12306280D01*
X17374978Y-12259418D02*
X17374978Y-12033142D01*
X17148702Y-12033142D01*
X17148702Y-12259418D01*
X17374978Y-12259418D01*
X19157174Y-7269974D02*
X19477174Y-7589974D01*
X19477174Y-7269974D02*
X19157174Y-7589974D01*
X19430313Y-7543113D02*
X19430313Y-7316836D01*
X19204036Y-7316836D01*
X19204036Y-7543113D01*
X19430313Y-7543113D01*
X22882880Y-14541520D02*
X23202880Y-14861520D01*
X23202880Y-14541520D02*
X22882880Y-14861520D01*
X23156018Y-14814658D02*
X23156018Y-14588382D01*
X22929742Y-14588382D01*
X22929742Y-14814658D01*
X23156018Y-14814658D01*
X23780800Y-10467360D02*
X24100800Y-10787360D01*
X24100800Y-10467360D02*
X23780800Y-10787360D01*
X24053938Y-10740498D02*
X24053938Y-10514222D01*
X23827662Y-10514222D01*
X23827662Y-10740498D01*
X24053938Y-10740498D01*
D11*
X12574199Y-15507176D02*
X12574199Y-15307176D01*
X12621818Y-15307176D01*
X12650389Y-15316700D01*
X12669437Y-15335748D01*
X12678961Y-15354795D01*
X12688485Y-15392890D01*
X12688485Y-15421462D01*
X12678961Y-15459557D01*
X12669437Y-15478605D01*
X12650389Y-15497652D01*
X12621818Y-15507176D01*
X12574199Y-15507176D01*
X12774199Y-15507176D02*
X12774199Y-15373843D01*
X12774199Y-15411938D02*
X12783723Y-15392890D01*
X12793247Y-15383367D01*
X12812294Y-15373843D01*
X12831342Y-15373843D01*
X12898008Y-15507176D02*
X12898008Y-15373843D01*
X12898008Y-15307176D02*
X12888485Y-15316700D01*
X12898008Y-15326224D01*
X12907532Y-15316700D01*
X12898008Y-15307176D01*
X12898008Y-15326224D01*
X13021818Y-15507176D02*
X13002770Y-15497652D01*
X12993247Y-15478605D01*
X12993247Y-15307176D01*
X13126580Y-15507176D02*
X13107532Y-15497652D01*
X13098008Y-15478605D01*
X13098008Y-15307176D01*
X13355151Y-15507176D02*
X13355151Y-15307176D01*
X13421818Y-15450033D01*
X13488485Y-15307176D01*
X13488485Y-15507176D01*
X13669437Y-15507176D02*
X13669437Y-15402414D01*
X13659913Y-15383367D01*
X13640866Y-15373843D01*
X13602770Y-15373843D01*
X13583723Y-15383367D01*
X13669437Y-15497652D02*
X13650389Y-15507176D01*
X13602770Y-15507176D01*
X13583723Y-15497652D01*
X13574199Y-15478605D01*
X13574199Y-15459557D01*
X13583723Y-15440509D01*
X13602770Y-15430986D01*
X13650389Y-15430986D01*
X13669437Y-15421462D01*
X13764675Y-15373843D02*
X13764675Y-15573843D01*
X13764675Y-15383367D02*
X13783723Y-15373843D01*
X13821818Y-15373843D01*
X13840866Y-15383367D01*
X13850389Y-15392890D01*
X13859913Y-15411938D01*
X13859913Y-15469081D01*
X13850389Y-15488128D01*
X13840866Y-15497652D01*
X13821818Y-15507176D01*
X13783723Y-15507176D01*
X13764675Y-15497652D01*
X13945628Y-15488128D02*
X13955151Y-15497652D01*
X13945628Y-15507176D01*
X13936104Y-15497652D01*
X13945628Y-15488128D01*
X13945628Y-15507176D01*
X13945628Y-15383367D02*
X13955151Y-15392890D01*
X13945628Y-15402414D01*
X13936104Y-15392890D01*
X13945628Y-15383367D01*
X13945628Y-15402414D01*
D12*
X12266580Y-15811700D02*
X12316580Y-15861700D01*
X12316580Y-15811700D02*
X12266580Y-15861700D01*
D11*
X12612294Y-15727176D02*
X12631342Y-15727176D01*
X12650389Y-15736700D01*
X12659913Y-15746224D01*
X12669437Y-15765271D01*
X12678961Y-15803367D01*
X12678961Y-15850986D01*
X12669437Y-15889081D01*
X12659913Y-15908128D01*
X12650389Y-15917652D01*
X12631342Y-15927176D01*
X12612294Y-15927176D01*
X12593247Y-15917652D01*
X12583723Y-15908128D01*
X12574199Y-15889081D01*
X12564675Y-15850986D01*
X12564675Y-15803367D01*
X12574199Y-15765271D01*
X12583723Y-15746224D01*
X12593247Y-15736700D01*
X12612294Y-15727176D01*
X12764675Y-15908128D02*
X12774199Y-15917652D01*
X12764675Y-15927176D01*
X12755151Y-15917652D01*
X12764675Y-15908128D01*
X12764675Y-15927176D01*
X12955151Y-15727176D02*
X12859913Y-15727176D01*
X12850389Y-15822414D01*
X12859913Y-15812890D01*
X12878961Y-15803367D01*
X12926580Y-15803367D01*
X12945628Y-15812890D01*
X12955151Y-15822414D01*
X12964675Y-15841462D01*
X12964675Y-15889081D01*
X12955151Y-15908128D01*
X12945628Y-15917652D01*
X12926580Y-15927176D01*
X12878961Y-15927176D01*
X12859913Y-15917652D01*
X12850389Y-15908128D01*
X13088485Y-15727176D02*
X13107532Y-15727176D01*
X13126580Y-15736700D01*
X13136104Y-15746224D01*
X13145628Y-15765271D01*
X13155151Y-15803367D01*
X13155151Y-15850986D01*
X13145628Y-15889081D01*
X13136104Y-15908128D01*
X13126580Y-15917652D01*
X13107532Y-15927176D01*
X13088485Y-15927176D01*
X13069437Y-15917652D01*
X13059913Y-15908128D01*
X13050389Y-15889081D01*
X13040866Y-15850986D01*
X13040866Y-15803367D01*
X13050389Y-15765271D01*
X13059913Y-15746224D01*
X13069437Y-15736700D01*
X13088485Y-15727176D01*
X13278961Y-15727176D02*
X13298008Y-15727176D01*
X13317056Y-15736700D01*
X13326580Y-15746224D01*
X13336104Y-15765271D01*
X13345628Y-15803367D01*
X13345628Y-15850986D01*
X13336104Y-15889081D01*
X13326580Y-15908128D01*
X13317056Y-15917652D01*
X13298008Y-15927176D01*
X13278961Y-15927176D01*
X13259913Y-15917652D01*
X13250389Y-15908128D01*
X13240866Y-15889081D01*
X13231342Y-15850986D01*
X13231342Y-15803367D01*
X13240866Y-15765271D01*
X13250389Y-15746224D01*
X13259913Y-15736700D01*
X13278961Y-15727176D01*
X13431342Y-15927176D02*
X13431342Y-15793843D01*
X13431342Y-15812890D02*
X13440866Y-15803367D01*
X13459913Y-15793843D01*
X13488485Y-15793843D01*
X13507532Y-15803367D01*
X13517056Y-15822414D01*
X13517056Y-15927176D01*
X13517056Y-15822414D02*
X13526580Y-15803367D01*
X13545628Y-15793843D01*
X13574199Y-15793843D01*
X13593247Y-15803367D01*
X13602770Y-15822414D01*
X13602770Y-15927176D01*
X13698008Y-15927176D02*
X13698008Y-15793843D01*
X13698008Y-15812890D02*
X13707532Y-15803367D01*
X13726580Y-15793843D01*
X13755151Y-15793843D01*
X13774199Y-15803367D01*
X13783723Y-15822414D01*
X13783723Y-15927176D01*
X13783723Y-15822414D02*
X13793247Y-15803367D01*
X13812294Y-15793843D01*
X13840866Y-15793843D01*
X13859913Y-15803367D01*
X13869437Y-15822414D01*
X13869437Y-15927176D01*
X14259913Y-15717652D02*
X14088485Y-15974795D01*
X14517056Y-15727176D02*
X14536104Y-15727176D01*
X14555151Y-15736700D01*
X14564675Y-15746224D01*
X14574199Y-15765271D01*
X14583723Y-15803367D01*
X14583723Y-15850986D01*
X14574199Y-15889081D01*
X14564675Y-15908128D01*
X14555151Y-15917652D01*
X14536104Y-15927176D01*
X14517056Y-15927176D01*
X14498008Y-15917652D01*
X14488485Y-15908128D01*
X14478961Y-15889081D01*
X14469437Y-15850986D01*
X14469437Y-15803367D01*
X14478961Y-15765271D01*
X14488485Y-15746224D01*
X14498008Y-15736700D01*
X14517056Y-15727176D01*
X14669437Y-15908128D02*
X14678961Y-15917652D01*
X14669437Y-15927176D01*
X14659913Y-15917652D01*
X14669437Y-15908128D01*
X14669437Y-15927176D01*
X14802770Y-15727176D02*
X14821818Y-15727176D01*
X14840866Y-15736700D01*
X14850389Y-15746224D01*
X14859913Y-15765271D01*
X14869437Y-15803367D01*
X14869437Y-15850986D01*
X14859913Y-15889081D01*
X14850389Y-15908128D01*
X14840866Y-15917652D01*
X14821818Y-15927176D01*
X14802770Y-15927176D01*
X14783723Y-15917652D01*
X14774199Y-15908128D01*
X14764675Y-15889081D01*
X14755151Y-15850986D01*
X14755151Y-15803367D01*
X14764675Y-15765271D01*
X14774199Y-15746224D01*
X14783723Y-15736700D01*
X14802770Y-15727176D01*
X15059913Y-15927176D02*
X14945628Y-15927176D01*
X15002770Y-15927176D02*
X15002770Y-15727176D01*
X14983723Y-15755748D01*
X14964675Y-15774795D01*
X14945628Y-15784319D01*
X15155151Y-15927176D02*
X15193247Y-15927176D01*
X15212294Y-15917652D01*
X15221818Y-15908128D01*
X15240866Y-15879557D01*
X15250389Y-15841462D01*
X15250389Y-15765271D01*
X15240866Y-15746224D01*
X15231342Y-15736700D01*
X15212294Y-15727176D01*
X15174199Y-15727176D01*
X15155151Y-15736700D01*
X15145628Y-15746224D01*
X15136104Y-15765271D01*
X15136104Y-15812890D01*
X15145628Y-15831938D01*
X15155151Y-15841462D01*
X15174199Y-15850986D01*
X15212294Y-15850986D01*
X15231342Y-15841462D01*
X15240866Y-15831938D01*
X15250389Y-15812890D01*
X15317056Y-15727176D02*
X15450389Y-15727176D01*
X15364675Y-15927176D01*
X15517056Y-15727176D02*
X15517056Y-15765271D01*
X15593247Y-15727176D02*
X15593247Y-15765271D01*
X15888485Y-16003367D02*
X15878961Y-15993843D01*
X15859913Y-15965271D01*
X15850389Y-15946224D01*
X15840866Y-15917652D01*
X15831342Y-15870033D01*
X15831342Y-15831938D01*
X15840866Y-15784319D01*
X15850389Y-15755748D01*
X15859913Y-15736700D01*
X15878961Y-15708128D01*
X15888485Y-15698605D01*
X16050389Y-15793843D02*
X16050389Y-15927176D01*
X16002770Y-15717652D02*
X15955151Y-15860509D01*
X16078961Y-15860509D01*
X16183723Y-15812890D02*
X16164675Y-15803367D01*
X16155151Y-15793843D01*
X16145628Y-15774795D01*
X16145628Y-15765271D01*
X16155151Y-15746224D01*
X16164675Y-15736700D01*
X16183723Y-15727176D01*
X16221818Y-15727176D01*
X16240866Y-15736700D01*
X16250389Y-15746224D01*
X16259913Y-15765271D01*
X16259913Y-15774795D01*
X16250389Y-15793843D01*
X16240866Y-15803367D01*
X16221818Y-15812890D01*
X16183723Y-15812890D01*
X16164675Y-15822414D01*
X16155151Y-15831938D01*
X16145628Y-15850986D01*
X16145628Y-15889081D01*
X16155151Y-15908128D01*
X16164675Y-15917652D01*
X16183723Y-15927176D01*
X16221818Y-15927176D01*
X16240866Y-15917652D01*
X16250389Y-15908128D01*
X16259913Y-15889081D01*
X16259913Y-15850986D01*
X16250389Y-15831938D01*
X16240866Y-15822414D01*
X16221818Y-15812890D01*
X16498008Y-15927176D02*
X16498008Y-15727176D01*
X16583723Y-15927176D02*
X16583723Y-15822414D01*
X16574199Y-15803367D01*
X16555151Y-15793843D01*
X16526580Y-15793843D01*
X16507532Y-15803367D01*
X16498008Y-15812890D01*
X16707532Y-15927176D02*
X16688485Y-15917652D01*
X16678961Y-15908128D01*
X16669437Y-15889081D01*
X16669437Y-15831938D01*
X16678961Y-15812890D01*
X16688485Y-15803367D01*
X16707532Y-15793843D01*
X16736104Y-15793843D01*
X16755151Y-15803367D01*
X16764675Y-15812890D01*
X16774199Y-15831938D01*
X16774199Y-15889081D01*
X16764675Y-15908128D01*
X16755151Y-15917652D01*
X16736104Y-15927176D01*
X16707532Y-15927176D01*
X16888485Y-15927176D02*
X16869437Y-15917652D01*
X16859913Y-15898605D01*
X16859913Y-15727176D01*
X17040866Y-15917652D02*
X17021818Y-15927176D01*
X16983723Y-15927176D01*
X16964675Y-15917652D01*
X16955151Y-15898605D01*
X16955151Y-15822414D01*
X16964675Y-15803367D01*
X16983723Y-15793843D01*
X17021818Y-15793843D01*
X17040866Y-15803367D01*
X17050390Y-15822414D01*
X17050390Y-15841462D01*
X16955151Y-15860509D01*
X17126580Y-15917652D02*
X17145628Y-15927176D01*
X17183723Y-15927176D01*
X17202770Y-15917652D01*
X17212294Y-15898605D01*
X17212294Y-15889081D01*
X17202770Y-15870033D01*
X17183723Y-15860509D01*
X17155151Y-15860509D01*
X17136104Y-15850986D01*
X17126580Y-15831938D01*
X17126580Y-15822414D01*
X17136104Y-15803367D01*
X17155151Y-15793843D01*
X17183723Y-15793843D01*
X17202770Y-15803367D01*
X17278961Y-16003367D02*
X17288485Y-15993843D01*
X17307532Y-15965271D01*
X17317056Y-15946224D01*
X17326580Y-15917652D01*
X17336104Y-15870033D01*
X17336104Y-15831938D01*
X17326580Y-15784319D01*
X17317056Y-15755748D01*
X17307532Y-15736700D01*
X17288485Y-15708128D01*
X17278961Y-15698605D01*
D13*
X12316580Y-16100700D02*
G75*
G03*
X12316580Y-16100700I-30000J0D01*
G01*
D11*
X12612294Y-15991176D02*
X12631342Y-15991176D01*
X12650389Y-16000700D01*
X12659913Y-16010224D01*
X12669437Y-16029271D01*
X12678961Y-16067367D01*
X12678961Y-16114986D01*
X12669437Y-16153081D01*
X12659913Y-16172128D01*
X12650389Y-16181652D01*
X12631342Y-16191176D01*
X12612294Y-16191176D01*
X12593247Y-16181652D01*
X12583723Y-16172128D01*
X12574199Y-16153081D01*
X12564675Y-16114986D01*
X12564675Y-16067367D01*
X12574199Y-16029271D01*
X12583723Y-16010224D01*
X12593247Y-16000700D01*
X12612294Y-15991176D01*
X12764675Y-16172128D02*
X12774199Y-16181652D01*
X12764675Y-16191176D01*
X12755151Y-16181652D01*
X12764675Y-16172128D01*
X12764675Y-16191176D01*
X12945628Y-15991176D02*
X12907532Y-15991176D01*
X12888485Y-16000700D01*
X12878961Y-16010224D01*
X12859913Y-16038795D01*
X12850389Y-16076890D01*
X12850389Y-16153081D01*
X12859913Y-16172128D01*
X12869437Y-16181652D01*
X12888485Y-16191176D01*
X12926580Y-16191176D01*
X12945628Y-16181652D01*
X12955151Y-16172128D01*
X12964675Y-16153081D01*
X12964675Y-16105462D01*
X12955151Y-16086414D01*
X12945628Y-16076890D01*
X12926580Y-16067367D01*
X12888485Y-16067367D01*
X12869437Y-16076890D01*
X12859913Y-16086414D01*
X12850389Y-16105462D01*
X13088485Y-15991176D02*
X13107532Y-15991176D01*
X13126580Y-16000700D01*
X13136104Y-16010224D01*
X13145628Y-16029271D01*
X13155151Y-16067367D01*
X13155151Y-16114986D01*
X13145628Y-16153081D01*
X13136104Y-16172128D01*
X13126580Y-16181652D01*
X13107532Y-16191176D01*
X13088485Y-16191176D01*
X13069437Y-16181652D01*
X13059913Y-16172128D01*
X13050389Y-16153081D01*
X13040866Y-16114986D01*
X13040866Y-16067367D01*
X13050389Y-16029271D01*
X13059913Y-16010224D01*
X13069437Y-16000700D01*
X13088485Y-15991176D01*
X13278961Y-15991176D02*
X13298008Y-15991176D01*
X13317056Y-16000700D01*
X13326580Y-16010224D01*
X13336104Y-16029271D01*
X13345628Y-16067367D01*
X13345628Y-16114986D01*
X13336104Y-16153081D01*
X13326580Y-16172128D01*
X13317056Y-16181652D01*
X13298008Y-16191176D01*
X13278961Y-16191176D01*
X13259913Y-16181652D01*
X13250389Y-16172128D01*
X13240866Y-16153081D01*
X13231342Y-16114986D01*
X13231342Y-16067367D01*
X13240866Y-16029271D01*
X13250389Y-16010224D01*
X13259913Y-16000700D01*
X13278961Y-15991176D01*
X13431342Y-16191176D02*
X13431342Y-16057843D01*
X13431342Y-16076890D02*
X13440866Y-16067367D01*
X13459913Y-16057843D01*
X13488485Y-16057843D01*
X13507532Y-16067367D01*
X13517056Y-16086414D01*
X13517056Y-16191176D01*
X13517056Y-16086414D02*
X13526580Y-16067367D01*
X13545628Y-16057843D01*
X13574199Y-16057843D01*
X13593247Y-16067367D01*
X13602770Y-16086414D01*
X13602770Y-16191176D01*
X13698008Y-16191176D02*
X13698008Y-16057843D01*
X13698008Y-16076890D02*
X13707532Y-16067367D01*
X13726580Y-16057843D01*
X13755151Y-16057843D01*
X13774199Y-16067367D01*
X13783723Y-16086414D01*
X13783723Y-16191176D01*
X13783723Y-16086414D02*
X13793247Y-16067367D01*
X13812294Y-16057843D01*
X13840866Y-16057843D01*
X13859913Y-16067367D01*
X13869437Y-16086414D01*
X13869437Y-16191176D01*
X14259913Y-15981652D02*
X14088485Y-16238795D01*
X14517056Y-15991176D02*
X14536104Y-15991176D01*
X14555151Y-16000700D01*
X14564675Y-16010224D01*
X14574199Y-16029271D01*
X14583723Y-16067367D01*
X14583723Y-16114986D01*
X14574199Y-16153081D01*
X14564675Y-16172128D01*
X14555151Y-16181652D01*
X14536104Y-16191176D01*
X14517056Y-16191176D01*
X14498008Y-16181652D01*
X14488485Y-16172128D01*
X14478961Y-16153081D01*
X14469437Y-16114986D01*
X14469437Y-16067367D01*
X14478961Y-16029271D01*
X14488485Y-16010224D01*
X14498008Y-16000700D01*
X14517056Y-15991176D01*
X14669437Y-16172128D02*
X14678961Y-16181652D01*
X14669437Y-16191176D01*
X14659913Y-16181652D01*
X14669437Y-16172128D01*
X14669437Y-16191176D01*
X14802770Y-15991176D02*
X14821818Y-15991176D01*
X14840866Y-16000700D01*
X14850389Y-16010224D01*
X14859913Y-16029271D01*
X14869437Y-16067367D01*
X14869437Y-16114986D01*
X14859913Y-16153081D01*
X14850389Y-16172128D01*
X14840866Y-16181652D01*
X14821818Y-16191176D01*
X14802770Y-16191176D01*
X14783723Y-16181652D01*
X14774199Y-16172128D01*
X14764675Y-16153081D01*
X14755151Y-16114986D01*
X14755151Y-16067367D01*
X14764675Y-16029271D01*
X14774199Y-16010224D01*
X14783723Y-16000700D01*
X14802770Y-15991176D01*
X14945628Y-16010224D02*
X14955151Y-16000700D01*
X14974199Y-15991176D01*
X15021818Y-15991176D01*
X15040866Y-16000700D01*
X15050389Y-16010224D01*
X15059913Y-16029271D01*
X15059913Y-16048319D01*
X15050389Y-16076890D01*
X14936104Y-16191176D01*
X15059913Y-16191176D01*
X15126580Y-15991176D02*
X15250389Y-15991176D01*
X15183723Y-16067367D01*
X15212294Y-16067367D01*
X15231342Y-16076890D01*
X15240866Y-16086414D01*
X15250389Y-16105462D01*
X15250389Y-16153081D01*
X15240866Y-16172128D01*
X15231342Y-16181652D01*
X15212294Y-16191176D01*
X15155151Y-16191176D01*
X15136104Y-16181652D01*
X15126580Y-16172128D01*
X15421818Y-15991176D02*
X15383723Y-15991176D01*
X15364675Y-16000700D01*
X15355151Y-16010224D01*
X15336104Y-16038795D01*
X15326580Y-16076890D01*
X15326580Y-16153081D01*
X15336104Y-16172128D01*
X15345628Y-16181652D01*
X15364675Y-16191176D01*
X15402770Y-16191176D01*
X15421818Y-16181652D01*
X15431342Y-16172128D01*
X15440866Y-16153081D01*
X15440866Y-16105462D01*
X15431342Y-16086414D01*
X15421818Y-16076890D01*
X15402770Y-16067367D01*
X15364675Y-16067367D01*
X15345628Y-16076890D01*
X15336104Y-16086414D01*
X15326580Y-16105462D01*
X15517056Y-15991176D02*
X15517056Y-16029271D01*
X15593247Y-15991176D02*
X15593247Y-16029271D01*
X15888485Y-16267367D02*
X15878961Y-16257843D01*
X15859913Y-16229271D01*
X15850389Y-16210224D01*
X15840866Y-16181652D01*
X15831342Y-16134033D01*
X15831342Y-16095938D01*
X15840866Y-16048319D01*
X15850389Y-16019748D01*
X15859913Y-16000700D01*
X15878961Y-15972128D01*
X15888485Y-15962605D01*
X15945628Y-15991176D02*
X16078961Y-15991176D01*
X15993247Y-16191176D01*
X16193247Y-15991176D02*
X16212294Y-15991176D01*
X16231342Y-16000700D01*
X16240866Y-16010224D01*
X16250389Y-16029271D01*
X16259913Y-16067367D01*
X16259913Y-16114986D01*
X16250389Y-16153081D01*
X16240866Y-16172128D01*
X16231342Y-16181652D01*
X16212294Y-16191176D01*
X16193247Y-16191176D01*
X16174199Y-16181652D01*
X16164675Y-16172128D01*
X16155151Y-16153081D01*
X16145628Y-16114986D01*
X16145628Y-16067367D01*
X16155151Y-16029271D01*
X16164675Y-16010224D01*
X16174199Y-16000700D01*
X16193247Y-15991176D01*
X16498008Y-16191176D02*
X16498008Y-15991176D01*
X16583723Y-16191176D02*
X16583723Y-16086414D01*
X16574199Y-16067367D01*
X16555151Y-16057843D01*
X16526580Y-16057843D01*
X16507532Y-16067367D01*
X16498008Y-16076890D01*
X16707532Y-16191176D02*
X16688485Y-16181652D01*
X16678961Y-16172128D01*
X16669437Y-16153081D01*
X16669437Y-16095938D01*
X16678961Y-16076890D01*
X16688485Y-16067367D01*
X16707532Y-16057843D01*
X16736104Y-16057843D01*
X16755151Y-16067367D01*
X16764675Y-16076890D01*
X16774199Y-16095938D01*
X16774199Y-16153081D01*
X16764675Y-16172128D01*
X16755151Y-16181652D01*
X16736104Y-16191176D01*
X16707532Y-16191176D01*
X16888485Y-16191176D02*
X16869437Y-16181652D01*
X16859913Y-16162605D01*
X16859913Y-15991176D01*
X17040866Y-16181652D02*
X17021818Y-16191176D01*
X16983723Y-16191176D01*
X16964675Y-16181652D01*
X16955151Y-16162605D01*
X16955151Y-16086414D01*
X16964675Y-16067367D01*
X16983723Y-16057843D01*
X17021818Y-16057843D01*
X17040866Y-16067367D01*
X17050390Y-16086414D01*
X17050390Y-16105462D01*
X16955151Y-16124509D01*
X17126580Y-16181652D02*
X17145628Y-16191176D01*
X17183723Y-16191176D01*
X17202770Y-16181652D01*
X17212294Y-16162605D01*
X17212294Y-16153081D01*
X17202770Y-16134033D01*
X17183723Y-16124509D01*
X17155151Y-16124509D01*
X17136104Y-16114986D01*
X17126580Y-16095938D01*
X17126580Y-16086414D01*
X17136104Y-16067367D01*
X17155151Y-16057843D01*
X17183723Y-16057843D01*
X17202770Y-16067367D01*
X17278961Y-16267367D02*
X17288485Y-16257843D01*
X17307532Y-16229271D01*
X17317056Y-16210224D01*
X17326580Y-16181652D01*
X17336104Y-16134033D01*
X17336104Y-16095938D01*
X17326580Y-16048319D01*
X17317056Y-16019748D01*
X17307532Y-16000700D01*
X17288485Y-15972128D01*
X17278961Y-15962605D01*
D14*
X12276580Y-16324700D02*
X12276580Y-16404700D01*
X12236580Y-16364700D02*
X12316580Y-16364700D01*
D11*
X12612294Y-16255176D02*
X12631342Y-16255176D01*
X12650389Y-16264700D01*
X12659913Y-16274224D01*
X12669437Y-16293271D01*
X12678961Y-16331367D01*
X12678961Y-16378986D01*
X12669437Y-16417081D01*
X12659913Y-16436128D01*
X12650389Y-16445652D01*
X12631342Y-16455176D01*
X12612294Y-16455176D01*
X12593247Y-16445652D01*
X12583723Y-16436128D01*
X12574199Y-16417081D01*
X12564675Y-16378986D01*
X12564675Y-16331367D01*
X12574199Y-16293271D01*
X12583723Y-16274224D01*
X12593247Y-16264700D01*
X12612294Y-16255176D01*
X12764675Y-16436128D02*
X12774199Y-16445652D01*
X12764675Y-16455176D01*
X12755151Y-16445652D01*
X12764675Y-16436128D01*
X12764675Y-16455176D01*
X12888485Y-16340890D02*
X12869437Y-16331367D01*
X12859913Y-16321843D01*
X12850389Y-16302795D01*
X12850389Y-16293271D01*
X12859913Y-16274224D01*
X12869437Y-16264700D01*
X12888485Y-16255176D01*
X12926580Y-16255176D01*
X12945628Y-16264700D01*
X12955151Y-16274224D01*
X12964675Y-16293271D01*
X12964675Y-16302795D01*
X12955151Y-16321843D01*
X12945628Y-16331367D01*
X12926580Y-16340890D01*
X12888485Y-16340890D01*
X12869437Y-16350414D01*
X12859913Y-16359938D01*
X12850389Y-16378986D01*
X12850389Y-16417081D01*
X12859913Y-16436128D01*
X12869437Y-16445652D01*
X12888485Y-16455176D01*
X12926580Y-16455176D01*
X12945628Y-16445652D01*
X12955151Y-16436128D01*
X12964675Y-16417081D01*
X12964675Y-16378986D01*
X12955151Y-16359938D01*
X12945628Y-16350414D01*
X12926580Y-16340890D01*
X13088485Y-16255176D02*
X13107532Y-16255176D01*
X13126580Y-16264700D01*
X13136104Y-16274224D01*
X13145628Y-16293271D01*
X13155151Y-16331367D01*
X13155151Y-16378986D01*
X13145628Y-16417081D01*
X13136104Y-16436128D01*
X13126580Y-16445652D01*
X13107532Y-16455176D01*
X13088485Y-16455176D01*
X13069437Y-16445652D01*
X13059913Y-16436128D01*
X13050389Y-16417081D01*
X13040866Y-16378986D01*
X13040866Y-16331367D01*
X13050389Y-16293271D01*
X13059913Y-16274224D01*
X13069437Y-16264700D01*
X13088485Y-16255176D01*
X13278961Y-16255176D02*
X13298008Y-16255176D01*
X13317056Y-16264700D01*
X13326580Y-16274224D01*
X13336104Y-16293271D01*
X13345628Y-16331367D01*
X13345628Y-16378986D01*
X13336104Y-16417081D01*
X13326580Y-16436128D01*
X13317056Y-16445652D01*
X13298008Y-16455176D01*
X13278961Y-16455176D01*
X13259913Y-16445652D01*
X13250389Y-16436128D01*
X13240866Y-16417081D01*
X13231342Y-16378986D01*
X13231342Y-16331367D01*
X13240866Y-16293271D01*
X13250389Y-16274224D01*
X13259913Y-16264700D01*
X13278961Y-16255176D01*
X13431342Y-16455176D02*
X13431342Y-16321843D01*
X13431342Y-16340890D02*
X13440866Y-16331367D01*
X13459913Y-16321843D01*
X13488485Y-16321843D01*
X13507532Y-16331367D01*
X13517056Y-16350414D01*
X13517056Y-16455176D01*
X13517056Y-16350414D02*
X13526580Y-16331367D01*
X13545628Y-16321843D01*
X13574199Y-16321843D01*
X13593247Y-16331367D01*
X13602770Y-16350414D01*
X13602770Y-16455176D01*
X13698008Y-16455176D02*
X13698008Y-16321843D01*
X13698008Y-16340890D02*
X13707532Y-16331367D01*
X13726580Y-16321843D01*
X13755151Y-16321843D01*
X13774199Y-16331367D01*
X13783723Y-16350414D01*
X13783723Y-16455176D01*
X13783723Y-16350414D02*
X13793247Y-16331367D01*
X13812294Y-16321843D01*
X13840866Y-16321843D01*
X13859913Y-16331367D01*
X13869437Y-16350414D01*
X13869437Y-16455176D01*
X14259913Y-16245652D02*
X14088485Y-16502795D01*
X14517056Y-16255176D02*
X14536104Y-16255176D01*
X14555151Y-16264700D01*
X14564675Y-16274224D01*
X14574199Y-16293271D01*
X14583723Y-16331367D01*
X14583723Y-16378986D01*
X14574199Y-16417081D01*
X14564675Y-16436128D01*
X14555151Y-16445652D01*
X14536104Y-16455176D01*
X14517056Y-16455176D01*
X14498008Y-16445652D01*
X14488485Y-16436128D01*
X14478961Y-16417081D01*
X14469437Y-16378986D01*
X14469437Y-16331367D01*
X14478961Y-16293271D01*
X14488485Y-16274224D01*
X14498008Y-16264700D01*
X14517056Y-16255176D01*
X14669437Y-16436128D02*
X14678961Y-16445652D01*
X14669437Y-16455176D01*
X14659913Y-16445652D01*
X14669437Y-16436128D01*
X14669437Y-16455176D01*
X14802770Y-16255176D02*
X14821818Y-16255176D01*
X14840866Y-16264700D01*
X14850389Y-16274224D01*
X14859913Y-16293271D01*
X14869437Y-16331367D01*
X14869437Y-16378986D01*
X14859913Y-16417081D01*
X14850389Y-16436128D01*
X14840866Y-16445652D01*
X14821818Y-16455176D01*
X14802770Y-16455176D01*
X14783723Y-16445652D01*
X14774199Y-16436128D01*
X14764675Y-16417081D01*
X14755151Y-16378986D01*
X14755151Y-16331367D01*
X14764675Y-16293271D01*
X14774199Y-16274224D01*
X14783723Y-16264700D01*
X14802770Y-16255176D01*
X14936104Y-16255176D02*
X15059913Y-16255176D01*
X14993247Y-16331367D01*
X15021818Y-16331367D01*
X15040866Y-16340890D01*
X15050389Y-16350414D01*
X15059913Y-16369462D01*
X15059913Y-16417081D01*
X15050389Y-16436128D01*
X15040866Y-16445652D01*
X15021818Y-16455176D01*
X14964675Y-16455176D01*
X14945628Y-16445652D01*
X14936104Y-16436128D01*
X15250389Y-16455176D02*
X15136104Y-16455176D01*
X15193247Y-16455176D02*
X15193247Y-16255176D01*
X15174199Y-16283748D01*
X15155151Y-16302795D01*
X15136104Y-16312319D01*
X15431342Y-16255176D02*
X15336104Y-16255176D01*
X15326580Y-16350414D01*
X15336104Y-16340890D01*
X15355151Y-16331367D01*
X15402770Y-16331367D01*
X15421818Y-16340890D01*
X15431342Y-16350414D01*
X15440866Y-16369462D01*
X15440866Y-16417081D01*
X15431342Y-16436128D01*
X15421818Y-16445652D01*
X15402770Y-16455176D01*
X15355151Y-16455176D01*
X15336104Y-16445652D01*
X15326580Y-16436128D01*
X15517056Y-16255176D02*
X15517056Y-16293271D01*
X15593247Y-16255176D02*
X15593247Y-16293271D01*
X15888485Y-16531367D02*
X15878961Y-16521843D01*
X15859913Y-16493271D01*
X15850389Y-16474224D01*
X15840866Y-16445652D01*
X15831342Y-16398033D01*
X15831342Y-16359938D01*
X15840866Y-16312319D01*
X15850389Y-16283748D01*
X15859913Y-16264700D01*
X15878961Y-16236128D01*
X15888485Y-16226605D01*
X16059913Y-16255176D02*
X15964675Y-16255176D01*
X15955151Y-16350414D01*
X15964675Y-16340890D01*
X15983723Y-16331367D01*
X16031342Y-16331367D01*
X16050389Y-16340890D01*
X16059913Y-16350414D01*
X16069437Y-16369462D01*
X16069437Y-16417081D01*
X16059913Y-16436128D01*
X16050389Y-16445652D01*
X16031342Y-16455176D01*
X15983723Y-16455176D01*
X15964675Y-16445652D01*
X15955151Y-16436128D01*
X16240866Y-16255176D02*
X16202770Y-16255176D01*
X16183723Y-16264700D01*
X16174199Y-16274224D01*
X16155151Y-16302795D01*
X16145628Y-16340890D01*
X16145628Y-16417081D01*
X16155151Y-16436128D01*
X16164675Y-16445652D01*
X16183723Y-16455176D01*
X16221818Y-16455176D01*
X16240866Y-16445652D01*
X16250389Y-16436128D01*
X16259913Y-16417081D01*
X16259913Y-16369462D01*
X16250389Y-16350414D01*
X16240866Y-16340890D01*
X16221818Y-16331367D01*
X16183723Y-16331367D01*
X16164675Y-16340890D01*
X16155151Y-16350414D01*
X16145628Y-16369462D01*
X16498008Y-16455176D02*
X16498008Y-16255176D01*
X16583723Y-16455176D02*
X16583723Y-16350414D01*
X16574199Y-16331367D01*
X16555151Y-16321843D01*
X16526580Y-16321843D01*
X16507532Y-16331367D01*
X16498008Y-16340890D01*
X16707532Y-16455176D02*
X16688485Y-16445652D01*
X16678961Y-16436128D01*
X16669437Y-16417081D01*
X16669437Y-16359938D01*
X16678961Y-16340890D01*
X16688485Y-16331367D01*
X16707532Y-16321843D01*
X16736104Y-16321843D01*
X16755151Y-16331367D01*
X16764675Y-16340890D01*
X16774199Y-16359938D01*
X16774199Y-16417081D01*
X16764675Y-16436128D01*
X16755151Y-16445652D01*
X16736104Y-16455176D01*
X16707532Y-16455176D01*
X16888485Y-16455176D02*
X16869437Y-16445652D01*
X16859913Y-16426605D01*
X16859913Y-16255176D01*
X17040866Y-16445652D02*
X17021818Y-16455176D01*
X16983723Y-16455176D01*
X16964675Y-16445652D01*
X16955151Y-16426605D01*
X16955151Y-16350414D01*
X16964675Y-16331367D01*
X16983723Y-16321843D01*
X17021818Y-16321843D01*
X17040866Y-16331367D01*
X17050390Y-16350414D01*
X17050390Y-16369462D01*
X16955151Y-16388509D01*
X17126580Y-16445652D02*
X17145628Y-16455176D01*
X17183723Y-16455176D01*
X17202770Y-16445652D01*
X17212294Y-16426605D01*
X17212294Y-16417081D01*
X17202770Y-16398033D01*
X17183723Y-16388509D01*
X17155151Y-16388509D01*
X17136104Y-16378986D01*
X17126580Y-16359938D01*
X17126580Y-16350414D01*
X17136104Y-16331367D01*
X17155151Y-16321843D01*
X17183723Y-16321843D01*
X17202770Y-16331367D01*
X17278961Y-16531367D02*
X17288485Y-16521843D01*
X17307532Y-16493271D01*
X17317056Y-16474224D01*
X17326580Y-16445652D01*
X17336104Y-16398033D01*
X17336104Y-16359938D01*
X17326580Y-16312319D01*
X17317056Y-16283748D01*
X17307532Y-16264700D01*
X17288485Y-16236128D01*
X17278961Y-16226605D01*
D15*
X12304863Y-16656988D02*
X12304863Y-16600412D01*
X12248287Y-16600412D01*
X12248287Y-16656988D01*
X12304863Y-16656988D01*
D11*
X12612294Y-16519176D02*
X12631342Y-16519176D01*
X12650389Y-16528700D01*
X12659913Y-16538224D01*
X12669437Y-16557271D01*
X12678961Y-16595367D01*
X12678961Y-16642986D01*
X12669437Y-16681081D01*
X12659913Y-16700128D01*
X12650389Y-16709652D01*
X12631342Y-16719176D01*
X12612294Y-16719176D01*
X12593247Y-16709652D01*
X12583723Y-16700128D01*
X12574199Y-16681081D01*
X12564675Y-16642986D01*
X12564675Y-16595367D01*
X12574199Y-16557271D01*
X12583723Y-16538224D01*
X12593247Y-16528700D01*
X12612294Y-16519176D01*
X12764675Y-16700128D02*
X12774199Y-16709652D01*
X12764675Y-16719176D01*
X12755151Y-16709652D01*
X12764675Y-16700128D01*
X12764675Y-16719176D01*
X12888485Y-16604890D02*
X12869437Y-16595367D01*
X12859913Y-16585843D01*
X12850389Y-16566795D01*
X12850389Y-16557271D01*
X12859913Y-16538224D01*
X12869437Y-16528700D01*
X12888485Y-16519176D01*
X12926580Y-16519176D01*
X12945628Y-16528700D01*
X12955151Y-16538224D01*
X12964675Y-16557271D01*
X12964675Y-16566795D01*
X12955151Y-16585843D01*
X12945628Y-16595367D01*
X12926580Y-16604890D01*
X12888485Y-16604890D01*
X12869437Y-16614414D01*
X12859913Y-16623938D01*
X12850389Y-16642986D01*
X12850389Y-16681081D01*
X12859913Y-16700128D01*
X12869437Y-16709652D01*
X12888485Y-16719176D01*
X12926580Y-16719176D01*
X12945628Y-16709652D01*
X12955151Y-16700128D01*
X12964675Y-16681081D01*
X12964675Y-16642986D01*
X12955151Y-16623938D01*
X12945628Y-16614414D01*
X12926580Y-16604890D01*
X13088485Y-16519176D02*
X13107532Y-16519176D01*
X13126580Y-16528700D01*
X13136104Y-16538224D01*
X13145628Y-16557271D01*
X13155151Y-16595367D01*
X13155151Y-16642986D01*
X13145628Y-16681081D01*
X13136104Y-16700128D01*
X13126580Y-16709652D01*
X13107532Y-16719176D01*
X13088485Y-16719176D01*
X13069437Y-16709652D01*
X13059913Y-16700128D01*
X13050389Y-16681081D01*
X13040866Y-16642986D01*
X13040866Y-16595367D01*
X13050389Y-16557271D01*
X13059913Y-16538224D01*
X13069437Y-16528700D01*
X13088485Y-16519176D01*
X13278961Y-16519176D02*
X13298008Y-16519176D01*
X13317056Y-16528700D01*
X13326580Y-16538224D01*
X13336104Y-16557271D01*
X13345628Y-16595367D01*
X13345628Y-16642986D01*
X13336104Y-16681081D01*
X13326580Y-16700128D01*
X13317056Y-16709652D01*
X13298008Y-16719176D01*
X13278961Y-16719176D01*
X13259913Y-16709652D01*
X13250389Y-16700128D01*
X13240866Y-16681081D01*
X13231342Y-16642986D01*
X13231342Y-16595367D01*
X13240866Y-16557271D01*
X13250389Y-16538224D01*
X13259913Y-16528700D01*
X13278961Y-16519176D01*
X13431342Y-16719176D02*
X13431342Y-16585843D01*
X13431342Y-16604890D02*
X13440866Y-16595367D01*
X13459913Y-16585843D01*
X13488485Y-16585843D01*
X13507532Y-16595367D01*
X13517056Y-16614414D01*
X13517056Y-16719176D01*
X13517056Y-16614414D02*
X13526580Y-16595367D01*
X13545628Y-16585843D01*
X13574199Y-16585843D01*
X13593247Y-16595367D01*
X13602770Y-16614414D01*
X13602770Y-16719176D01*
X13698008Y-16719176D02*
X13698008Y-16585843D01*
X13698008Y-16604890D02*
X13707532Y-16595367D01*
X13726580Y-16585843D01*
X13755151Y-16585843D01*
X13774199Y-16595367D01*
X13783723Y-16614414D01*
X13783723Y-16719176D01*
X13783723Y-16614414D02*
X13793247Y-16595367D01*
X13812294Y-16585843D01*
X13840866Y-16585843D01*
X13859913Y-16595367D01*
X13869437Y-16614414D01*
X13869437Y-16719176D01*
X14259913Y-16509652D02*
X14088485Y-16766795D01*
X14517056Y-16519176D02*
X14536104Y-16519176D01*
X14555151Y-16528700D01*
X14564675Y-16538224D01*
X14574199Y-16557271D01*
X14583723Y-16595367D01*
X14583723Y-16642986D01*
X14574199Y-16681081D01*
X14564675Y-16700128D01*
X14555151Y-16709652D01*
X14536104Y-16719176D01*
X14517056Y-16719176D01*
X14498008Y-16709652D01*
X14488485Y-16700128D01*
X14478961Y-16681081D01*
X14469437Y-16642986D01*
X14469437Y-16595367D01*
X14478961Y-16557271D01*
X14488485Y-16538224D01*
X14498008Y-16528700D01*
X14517056Y-16519176D01*
X14669437Y-16700128D02*
X14678961Y-16709652D01*
X14669437Y-16719176D01*
X14659913Y-16709652D01*
X14669437Y-16700128D01*
X14669437Y-16719176D01*
X14802770Y-16519176D02*
X14821818Y-16519176D01*
X14840866Y-16528700D01*
X14850389Y-16538224D01*
X14859913Y-16557271D01*
X14869437Y-16595367D01*
X14869437Y-16642986D01*
X14859913Y-16681081D01*
X14850389Y-16700128D01*
X14840866Y-16709652D01*
X14821818Y-16719176D01*
X14802770Y-16719176D01*
X14783723Y-16709652D01*
X14774199Y-16700128D01*
X14764675Y-16681081D01*
X14755151Y-16642986D01*
X14755151Y-16595367D01*
X14764675Y-16557271D01*
X14774199Y-16538224D01*
X14783723Y-16528700D01*
X14802770Y-16519176D01*
X14936104Y-16519176D02*
X15059913Y-16519176D01*
X14993247Y-16595367D01*
X15021818Y-16595367D01*
X15040866Y-16604890D01*
X15050389Y-16614414D01*
X15059913Y-16633462D01*
X15059913Y-16681081D01*
X15050389Y-16700128D01*
X15040866Y-16709652D01*
X15021818Y-16719176D01*
X14964675Y-16719176D01*
X14945628Y-16709652D01*
X14936104Y-16700128D01*
X15250389Y-16719176D02*
X15136104Y-16719176D01*
X15193247Y-16719176D02*
X15193247Y-16519176D01*
X15174199Y-16547748D01*
X15155151Y-16566795D01*
X15136104Y-16576319D01*
X15431342Y-16519176D02*
X15336104Y-16519176D01*
X15326580Y-16614414D01*
X15336104Y-16604890D01*
X15355151Y-16595367D01*
X15402770Y-16595367D01*
X15421818Y-16604890D01*
X15431342Y-16614414D01*
X15440866Y-16633462D01*
X15440866Y-16681081D01*
X15431342Y-16700128D01*
X15421818Y-16709652D01*
X15402770Y-16719176D01*
X15355151Y-16719176D01*
X15336104Y-16709652D01*
X15326580Y-16700128D01*
X15517056Y-16519176D02*
X15517056Y-16557271D01*
X15593247Y-16519176D02*
X15593247Y-16557271D01*
X15888485Y-16795367D02*
X15878961Y-16785843D01*
X15859913Y-16757271D01*
X15850389Y-16738224D01*
X15840866Y-16709652D01*
X15831342Y-16662033D01*
X15831342Y-16623938D01*
X15840866Y-16576319D01*
X15850389Y-16547748D01*
X15859913Y-16528700D01*
X15878961Y-16500128D01*
X15888485Y-16490605D01*
X15955151Y-16538224D02*
X15964675Y-16528700D01*
X15983723Y-16519176D01*
X16031342Y-16519176D01*
X16050389Y-16528700D01*
X16059913Y-16538224D01*
X16069437Y-16557271D01*
X16069437Y-16576319D01*
X16059913Y-16604890D01*
X15945628Y-16719176D01*
X16069437Y-16719176D01*
X16183723Y-16604890D02*
X16164675Y-16595367D01*
X16155151Y-16585843D01*
X16145628Y-16566795D01*
X16145628Y-16557271D01*
X16155151Y-16538224D01*
X16164675Y-16528700D01*
X16183723Y-16519176D01*
X16221818Y-16519176D01*
X16240866Y-16528700D01*
X16250389Y-16538224D01*
X16259913Y-16557271D01*
X16259913Y-16566795D01*
X16250389Y-16585843D01*
X16240866Y-16595367D01*
X16221818Y-16604890D01*
X16183723Y-16604890D01*
X16164675Y-16614414D01*
X16155151Y-16623938D01*
X16145628Y-16642986D01*
X16145628Y-16681081D01*
X16155151Y-16700128D01*
X16164675Y-16709652D01*
X16183723Y-16719176D01*
X16221818Y-16719176D01*
X16240866Y-16709652D01*
X16250389Y-16700128D01*
X16259913Y-16681081D01*
X16259913Y-16642986D01*
X16250389Y-16623938D01*
X16240866Y-16614414D01*
X16221818Y-16604890D01*
X16498008Y-16719176D02*
X16498008Y-16519176D01*
X16583723Y-16719176D02*
X16583723Y-16614414D01*
X16574199Y-16595367D01*
X16555151Y-16585843D01*
X16526580Y-16585843D01*
X16507532Y-16595367D01*
X16498008Y-16604890D01*
X16707532Y-16719176D02*
X16688485Y-16709652D01*
X16678961Y-16700128D01*
X16669437Y-16681081D01*
X16669437Y-16623938D01*
X16678961Y-16604890D01*
X16688485Y-16595367D01*
X16707532Y-16585843D01*
X16736104Y-16585843D01*
X16755151Y-16595367D01*
X16764675Y-16604890D01*
X16774199Y-16623938D01*
X16774199Y-16681081D01*
X16764675Y-16700128D01*
X16755151Y-16709652D01*
X16736104Y-16719176D01*
X16707532Y-16719176D01*
X16888485Y-16719176D02*
X16869437Y-16709652D01*
X16859913Y-16690605D01*
X16859913Y-16519176D01*
X17040866Y-16709652D02*
X17021818Y-16719176D01*
X16983723Y-16719176D01*
X16964675Y-16709652D01*
X16955151Y-16690605D01*
X16955151Y-16614414D01*
X16964675Y-16595367D01*
X16983723Y-16585843D01*
X17021818Y-16585843D01*
X17040866Y-16595367D01*
X17050390Y-16614414D01*
X17050390Y-16633462D01*
X16955151Y-16652509D01*
X17126580Y-16709652D02*
X17145628Y-16719176D01*
X17183723Y-16719176D01*
X17202770Y-16709652D01*
X17212294Y-16690605D01*
X17212294Y-16681081D01*
X17202770Y-16662033D01*
X17183723Y-16652509D01*
X17155151Y-16652509D01*
X17136104Y-16642986D01*
X17126580Y-16623938D01*
X17126580Y-16614414D01*
X17136104Y-16595367D01*
X17155151Y-16585843D01*
X17183723Y-16585843D01*
X17202770Y-16595367D01*
X17278961Y-16795367D02*
X17288485Y-16785843D01*
X17307532Y-16757271D01*
X17317056Y-16738224D01*
X17326580Y-16709652D01*
X17336104Y-16662033D01*
X17336104Y-16623938D01*
X17326580Y-16576319D01*
X17317056Y-16547748D01*
X17307532Y-16528700D01*
X17288485Y-16500128D01*
X17278961Y-16490605D01*
D16*
X12266580Y-16942700D02*
X12316580Y-16892700D01*
X12266580Y-16842700D01*
X12216580Y-16892700D01*
X12266580Y-16942700D01*
D11*
X12678961Y-16983176D02*
X12564675Y-16983176D01*
X12621818Y-16983176D02*
X12621818Y-16783176D01*
X12602770Y-16811748D01*
X12583723Y-16830795D01*
X12564675Y-16840319D01*
X12764675Y-16964129D02*
X12774199Y-16973652D01*
X12764675Y-16983176D01*
X12755151Y-16973652D01*
X12764675Y-16964129D01*
X12764675Y-16983176D01*
X12898008Y-16783176D02*
X12917056Y-16783176D01*
X12936104Y-16792700D01*
X12945628Y-16802224D01*
X12955151Y-16821271D01*
X12964675Y-16859367D01*
X12964675Y-16906986D01*
X12955151Y-16945081D01*
X12945628Y-16964129D01*
X12936104Y-16973652D01*
X12917056Y-16983176D01*
X12898008Y-16983176D01*
X12878961Y-16973652D01*
X12869437Y-16964129D01*
X12859913Y-16945081D01*
X12850389Y-16906986D01*
X12850389Y-16859367D01*
X12859913Y-16821271D01*
X12869437Y-16802224D01*
X12878961Y-16792700D01*
X12898008Y-16783176D01*
X13088485Y-16783176D02*
X13107532Y-16783176D01*
X13126580Y-16792700D01*
X13136104Y-16802224D01*
X13145628Y-16821271D01*
X13155151Y-16859367D01*
X13155151Y-16906986D01*
X13145628Y-16945081D01*
X13136104Y-16964129D01*
X13126580Y-16973652D01*
X13107532Y-16983176D01*
X13088485Y-16983176D01*
X13069437Y-16973652D01*
X13059913Y-16964129D01*
X13050389Y-16945081D01*
X13040866Y-16906986D01*
X13040866Y-16859367D01*
X13050389Y-16821271D01*
X13059913Y-16802224D01*
X13069437Y-16792700D01*
X13088485Y-16783176D01*
X13278961Y-16783176D02*
X13298008Y-16783176D01*
X13317056Y-16792700D01*
X13326580Y-16802224D01*
X13336104Y-16821271D01*
X13345628Y-16859367D01*
X13345628Y-16906986D01*
X13336104Y-16945081D01*
X13326580Y-16964129D01*
X13317056Y-16973652D01*
X13298008Y-16983176D01*
X13278961Y-16983176D01*
X13259913Y-16973652D01*
X13250389Y-16964129D01*
X13240866Y-16945081D01*
X13231342Y-16906986D01*
X13231342Y-16859367D01*
X13240866Y-16821271D01*
X13250389Y-16802224D01*
X13259913Y-16792700D01*
X13278961Y-16783176D01*
X13431342Y-16983176D02*
X13431342Y-16849843D01*
X13431342Y-16868890D02*
X13440866Y-16859367D01*
X13459913Y-16849843D01*
X13488485Y-16849843D01*
X13507532Y-16859367D01*
X13517056Y-16878414D01*
X13517056Y-16983176D01*
X13517056Y-16878414D02*
X13526580Y-16859367D01*
X13545628Y-16849843D01*
X13574199Y-16849843D01*
X13593247Y-16859367D01*
X13602770Y-16878414D01*
X13602770Y-16983176D01*
X13698008Y-16983176D02*
X13698008Y-16849843D01*
X13698008Y-16868890D02*
X13707532Y-16859367D01*
X13726580Y-16849843D01*
X13755151Y-16849843D01*
X13774199Y-16859367D01*
X13783723Y-16878414D01*
X13783723Y-16983176D01*
X13783723Y-16878414D02*
X13793247Y-16859367D01*
X13812294Y-16849843D01*
X13840866Y-16849843D01*
X13859913Y-16859367D01*
X13869437Y-16878414D01*
X13869437Y-16983176D01*
X14259913Y-16773652D02*
X14088485Y-17030795D01*
X14517056Y-16783176D02*
X14536104Y-16783176D01*
X14555151Y-16792700D01*
X14564675Y-16802224D01*
X14574199Y-16821271D01*
X14583723Y-16859367D01*
X14583723Y-16906986D01*
X14574199Y-16945081D01*
X14564675Y-16964129D01*
X14555151Y-16973652D01*
X14536104Y-16983176D01*
X14517056Y-16983176D01*
X14498008Y-16973652D01*
X14488485Y-16964129D01*
X14478961Y-16945081D01*
X14469437Y-16906986D01*
X14469437Y-16859367D01*
X14478961Y-16821271D01*
X14488485Y-16802224D01*
X14498008Y-16792700D01*
X14517056Y-16783176D01*
X14669437Y-16964129D02*
X14678961Y-16973652D01*
X14669437Y-16983176D01*
X14659913Y-16973652D01*
X14669437Y-16964129D01*
X14669437Y-16983176D01*
X14802770Y-16783176D02*
X14821818Y-16783176D01*
X14840866Y-16792700D01*
X14850389Y-16802224D01*
X14859913Y-16821271D01*
X14869437Y-16859367D01*
X14869437Y-16906986D01*
X14859913Y-16945081D01*
X14850389Y-16964129D01*
X14840866Y-16973652D01*
X14821818Y-16983176D01*
X14802770Y-16983176D01*
X14783723Y-16973652D01*
X14774199Y-16964129D01*
X14764675Y-16945081D01*
X14755151Y-16906986D01*
X14755151Y-16859367D01*
X14764675Y-16821271D01*
X14774199Y-16802224D01*
X14783723Y-16792700D01*
X14802770Y-16783176D01*
X14936104Y-16783176D02*
X15059913Y-16783176D01*
X14993247Y-16859367D01*
X15021818Y-16859367D01*
X15040866Y-16868890D01*
X15050389Y-16878414D01*
X15059913Y-16897462D01*
X15059913Y-16945081D01*
X15050389Y-16964129D01*
X15040866Y-16973652D01*
X15021818Y-16983176D01*
X14964675Y-16983176D01*
X14945628Y-16973652D01*
X14936104Y-16964129D01*
X15155151Y-16983176D02*
X15193247Y-16983176D01*
X15212294Y-16973652D01*
X15221818Y-16964129D01*
X15240866Y-16935557D01*
X15250389Y-16897462D01*
X15250389Y-16821271D01*
X15240866Y-16802224D01*
X15231342Y-16792700D01*
X15212294Y-16783176D01*
X15174199Y-16783176D01*
X15155151Y-16792700D01*
X15145628Y-16802224D01*
X15136104Y-16821271D01*
X15136104Y-16868890D01*
X15145628Y-16887938D01*
X15155151Y-16897462D01*
X15174199Y-16906986D01*
X15212294Y-16906986D01*
X15231342Y-16897462D01*
X15240866Y-16887938D01*
X15250389Y-16868890D01*
X15421818Y-16849843D02*
X15421818Y-16983176D01*
X15374199Y-16773652D02*
X15326580Y-16916510D01*
X15450389Y-16916510D01*
X15517056Y-16783176D02*
X15517056Y-16821271D01*
X15593247Y-16783176D02*
X15593247Y-16821271D01*
X15888485Y-17059367D02*
X15878961Y-17049843D01*
X15859913Y-17021271D01*
X15850389Y-17002224D01*
X15840866Y-16973652D01*
X15831342Y-16926033D01*
X15831342Y-16887938D01*
X15840866Y-16840319D01*
X15850389Y-16811748D01*
X15859913Y-16792700D01*
X15878961Y-16764128D01*
X15888485Y-16754605D01*
X15955151Y-16802224D02*
X15964675Y-16792700D01*
X15983723Y-16783176D01*
X16031342Y-16783176D01*
X16050389Y-16792700D01*
X16059913Y-16802224D01*
X16069437Y-16821271D01*
X16069437Y-16840319D01*
X16059913Y-16868890D01*
X15945628Y-16983176D01*
X16069437Y-16983176D01*
X16193247Y-16783176D02*
X16212294Y-16783176D01*
X16231342Y-16792700D01*
X16240866Y-16802224D01*
X16250389Y-16821271D01*
X16259913Y-16859367D01*
X16259913Y-16906986D01*
X16250389Y-16945081D01*
X16240866Y-16964129D01*
X16231342Y-16973652D01*
X16212294Y-16983176D01*
X16193247Y-16983176D01*
X16174199Y-16973652D01*
X16164675Y-16964129D01*
X16155151Y-16945081D01*
X16145628Y-16906986D01*
X16145628Y-16859367D01*
X16155151Y-16821271D01*
X16164675Y-16802224D01*
X16174199Y-16792700D01*
X16193247Y-16783176D01*
X16498008Y-16983176D02*
X16498008Y-16783176D01*
X16583723Y-16983176D02*
X16583723Y-16878414D01*
X16574199Y-16859367D01*
X16555151Y-16849843D01*
X16526580Y-16849843D01*
X16507532Y-16859367D01*
X16498008Y-16868890D01*
X16707532Y-16983176D02*
X16688485Y-16973652D01*
X16678961Y-16964129D01*
X16669437Y-16945081D01*
X16669437Y-16887938D01*
X16678961Y-16868890D01*
X16688485Y-16859367D01*
X16707532Y-16849843D01*
X16736104Y-16849843D01*
X16755151Y-16859367D01*
X16764675Y-16868890D01*
X16774199Y-16887938D01*
X16774199Y-16945081D01*
X16764675Y-16964129D01*
X16755151Y-16973652D01*
X16736104Y-16983176D01*
X16707532Y-16983176D01*
X16888485Y-16983176D02*
X16869437Y-16973652D01*
X16859913Y-16954605D01*
X16859913Y-16783176D01*
X17040866Y-16973652D02*
X17021818Y-16983176D01*
X16983723Y-16983176D01*
X16964675Y-16973652D01*
X16955151Y-16954605D01*
X16955151Y-16878414D01*
X16964675Y-16859367D01*
X16983723Y-16849843D01*
X17021818Y-16849843D01*
X17040866Y-16859367D01*
X17050390Y-16878414D01*
X17050390Y-16897462D01*
X16955151Y-16916510D01*
X17126580Y-16973652D02*
X17145628Y-16983176D01*
X17183723Y-16983176D01*
X17202770Y-16973652D01*
X17212294Y-16954605D01*
X17212294Y-16945081D01*
X17202770Y-16926033D01*
X17183723Y-16916510D01*
X17155151Y-16916510D01*
X17136104Y-16906986D01*
X17126580Y-16887938D01*
X17126580Y-16878414D01*
X17136104Y-16859367D01*
X17155151Y-16849843D01*
X17183723Y-16849843D01*
X17202770Y-16859367D01*
X17278961Y-17059367D02*
X17288485Y-17049843D01*
X17307532Y-17021271D01*
X17317056Y-17002224D01*
X17326580Y-16973652D01*
X17336104Y-16926033D01*
X17336104Y-16887938D01*
X17326580Y-16840319D01*
X17317056Y-16811748D01*
X17307532Y-16792700D01*
X17288485Y-16764128D01*
X17278961Y-16754605D01*
D17*
X12202280Y-17099550D02*
X12316580Y-17213850D01*
X12316580Y-17099550D02*
X12202280Y-17213850D01*
X12316580Y-17156700D02*
G75*
G03*
X12316580Y-17156700I-57150J0D01*
G01*
D11*
X12678961Y-17247176D02*
X12564675Y-17247176D01*
X12621818Y-17247176D02*
X12621818Y-17047176D01*
X12602770Y-17075748D01*
X12583723Y-17094795D01*
X12564675Y-17104319D01*
X12764675Y-17228129D02*
X12774199Y-17237652D01*
X12764675Y-17247176D01*
X12755151Y-17237652D01*
X12764675Y-17228129D01*
X12764675Y-17247176D01*
X12964675Y-17247176D02*
X12850389Y-17247176D01*
X12907532Y-17247176D02*
X12907532Y-17047176D01*
X12888485Y-17075748D01*
X12869437Y-17094795D01*
X12850389Y-17104319D01*
X13136104Y-17113843D02*
X13136104Y-17247176D01*
X13088485Y-17037652D02*
X13040866Y-17180510D01*
X13164675Y-17180510D01*
X13221818Y-17047176D02*
X13345628Y-17047176D01*
X13278961Y-17123367D01*
X13307532Y-17123367D01*
X13326580Y-17132890D01*
X13336104Y-17142414D01*
X13345628Y-17161462D01*
X13345628Y-17209081D01*
X13336104Y-17228129D01*
X13326580Y-17237652D01*
X13307532Y-17247176D01*
X13250389Y-17247176D01*
X13231342Y-17237652D01*
X13221818Y-17228129D01*
X13431342Y-17247176D02*
X13431342Y-17113843D01*
X13431342Y-17132890D02*
X13440866Y-17123367D01*
X13459913Y-17113843D01*
X13488485Y-17113843D01*
X13507532Y-17123367D01*
X13517056Y-17142414D01*
X13517056Y-17247176D01*
X13517056Y-17142414D02*
X13526580Y-17123367D01*
X13545628Y-17113843D01*
X13574199Y-17113843D01*
X13593247Y-17123367D01*
X13602770Y-17142414D01*
X13602770Y-17247176D01*
X13698008Y-17247176D02*
X13698008Y-17113843D01*
X13698008Y-17132890D02*
X13707532Y-17123367D01*
X13726580Y-17113843D01*
X13755151Y-17113843D01*
X13774199Y-17123367D01*
X13783723Y-17142414D01*
X13783723Y-17247176D01*
X13783723Y-17142414D02*
X13793247Y-17123367D01*
X13812294Y-17113843D01*
X13840866Y-17113843D01*
X13859913Y-17123367D01*
X13869437Y-17142414D01*
X13869437Y-17247176D01*
X14259913Y-17037652D02*
X14088485Y-17294795D01*
X14517056Y-17047176D02*
X14536104Y-17047176D01*
X14555151Y-17056700D01*
X14564675Y-17066224D01*
X14574199Y-17085271D01*
X14583723Y-17123367D01*
X14583723Y-17170986D01*
X14574199Y-17209081D01*
X14564675Y-17228129D01*
X14555151Y-17237652D01*
X14536104Y-17247176D01*
X14517056Y-17247176D01*
X14498008Y-17237652D01*
X14488485Y-17228129D01*
X14478961Y-17209081D01*
X14469437Y-17170986D01*
X14469437Y-17123367D01*
X14478961Y-17085271D01*
X14488485Y-17066224D01*
X14498008Y-17056700D01*
X14517056Y-17047176D01*
X14669437Y-17228129D02*
X14678961Y-17237652D01*
X14669437Y-17247176D01*
X14659913Y-17237652D01*
X14669437Y-17228129D01*
X14669437Y-17247176D01*
X14802770Y-17047176D02*
X14821818Y-17047176D01*
X14840866Y-17056700D01*
X14850389Y-17066224D01*
X14859913Y-17085271D01*
X14869437Y-17123367D01*
X14869437Y-17170986D01*
X14859913Y-17209081D01*
X14850389Y-17228129D01*
X14840866Y-17237652D01*
X14821818Y-17247176D01*
X14802770Y-17247176D01*
X14783723Y-17237652D01*
X14774199Y-17228129D01*
X14764675Y-17209081D01*
X14755151Y-17170986D01*
X14755151Y-17123367D01*
X14764675Y-17085271D01*
X14774199Y-17066224D01*
X14783723Y-17056700D01*
X14802770Y-17047176D01*
X15040866Y-17113843D02*
X15040866Y-17247176D01*
X14993247Y-17037652D02*
X14945628Y-17180510D01*
X15069437Y-17180510D01*
X15240866Y-17047176D02*
X15145628Y-17047176D01*
X15136104Y-17142414D01*
X15145628Y-17132890D01*
X15164675Y-17123367D01*
X15212294Y-17123367D01*
X15231342Y-17132890D01*
X15240866Y-17142414D01*
X15250389Y-17161462D01*
X15250389Y-17209081D01*
X15240866Y-17228129D01*
X15231342Y-17237652D01*
X15212294Y-17247176D01*
X15164675Y-17247176D01*
X15145628Y-17237652D01*
X15136104Y-17228129D01*
X15374199Y-17047176D02*
X15393247Y-17047176D01*
X15412294Y-17056700D01*
X15421818Y-17066224D01*
X15431342Y-17085271D01*
X15440866Y-17123367D01*
X15440866Y-17170986D01*
X15431342Y-17209081D01*
X15421818Y-17228129D01*
X15412294Y-17237652D01*
X15393247Y-17247176D01*
X15374199Y-17247176D01*
X15355151Y-17237652D01*
X15345628Y-17228129D01*
X15336104Y-17209081D01*
X15326580Y-17170986D01*
X15326580Y-17123367D01*
X15336104Y-17085271D01*
X15345628Y-17066224D01*
X15355151Y-17056700D01*
X15374199Y-17047176D01*
X15517056Y-17047176D02*
X15517056Y-17085271D01*
X15593247Y-17047176D02*
X15593247Y-17085271D01*
X15888485Y-17323367D02*
X15878961Y-17313843D01*
X15859913Y-17285271D01*
X15850389Y-17266224D01*
X15840866Y-17237652D01*
X15831342Y-17190033D01*
X15831342Y-17151938D01*
X15840866Y-17104319D01*
X15850389Y-17075748D01*
X15859913Y-17056700D01*
X15878961Y-17028129D01*
X15888485Y-17018605D01*
X15945628Y-17047176D02*
X16069437Y-17047176D01*
X16002770Y-17123367D01*
X16031342Y-17123367D01*
X16050389Y-17132890D01*
X16059913Y-17142414D01*
X16069437Y-17161462D01*
X16069437Y-17209081D01*
X16059913Y-17228129D01*
X16050389Y-17237652D01*
X16031342Y-17247176D01*
X15974199Y-17247176D01*
X15955151Y-17237652D01*
X15945628Y-17228129D01*
X16307532Y-17247176D02*
X16307532Y-17047176D01*
X16393247Y-17247176D02*
X16393247Y-17142414D01*
X16383723Y-17123367D01*
X16364675Y-17113843D01*
X16336104Y-17113843D01*
X16317056Y-17123367D01*
X16307532Y-17132890D01*
X16517056Y-17247176D02*
X16498008Y-17237652D01*
X16488485Y-17228129D01*
X16478961Y-17209081D01*
X16478961Y-17151938D01*
X16488485Y-17132890D01*
X16498008Y-17123367D01*
X16517056Y-17113843D01*
X16545628Y-17113843D01*
X16564675Y-17123367D01*
X16574199Y-17132890D01*
X16583723Y-17151938D01*
X16583723Y-17209081D01*
X16574199Y-17228129D01*
X16564675Y-17237652D01*
X16545628Y-17247176D01*
X16517056Y-17247176D01*
X16698008Y-17247176D02*
X16678961Y-17237652D01*
X16669437Y-17218605D01*
X16669437Y-17047176D01*
X16850390Y-17237652D02*
X16831342Y-17247176D01*
X16793247Y-17247176D01*
X16774199Y-17237652D01*
X16764675Y-17218605D01*
X16764675Y-17142414D01*
X16774199Y-17123367D01*
X16793247Y-17113843D01*
X16831342Y-17113843D01*
X16850390Y-17123367D01*
X16859913Y-17142414D01*
X16859913Y-17161462D01*
X16764675Y-17180510D01*
X16936104Y-17237652D02*
X16955151Y-17247176D01*
X16993247Y-17247176D01*
X17012294Y-17237652D01*
X17021818Y-17218605D01*
X17021818Y-17209081D01*
X17012294Y-17190033D01*
X16993247Y-17180510D01*
X16964675Y-17180510D01*
X16945628Y-17170986D01*
X16936104Y-17151938D01*
X16936104Y-17142414D01*
X16945628Y-17123367D01*
X16964675Y-17113843D01*
X16993247Y-17113843D01*
X17012294Y-17123367D01*
X17088485Y-17323367D02*
X17098009Y-17313843D01*
X17117056Y-17285271D01*
X17126580Y-17266224D01*
X17136104Y-17237652D01*
X17145628Y-17190033D01*
X17145628Y-17151938D01*
X17136104Y-17104319D01*
X17126580Y-17075748D01*
X17117056Y-17056700D01*
X17098009Y-17028129D01*
X17088485Y-17018605D01*
D18*
X12186580Y-17355700D02*
X12316580Y-17485700D01*
X12316580Y-17355700D02*
X12186580Y-17485700D01*
X12251580Y-17355700D02*
X12251580Y-17485700D01*
X12186580Y-17420700D02*
X12316580Y-17420700D01*
D11*
X12678961Y-17511176D02*
X12564675Y-17511176D01*
X12621818Y-17511176D02*
X12621818Y-17311176D01*
X12602770Y-17339748D01*
X12583723Y-17358795D01*
X12564675Y-17368319D01*
X12764675Y-17492129D02*
X12774199Y-17501652D01*
X12764675Y-17511176D01*
X12755151Y-17501652D01*
X12764675Y-17492129D01*
X12764675Y-17511176D01*
X12840866Y-17311176D02*
X12964675Y-17311176D01*
X12898008Y-17387367D01*
X12926580Y-17387367D01*
X12945628Y-17396890D01*
X12955151Y-17406414D01*
X12964675Y-17425462D01*
X12964675Y-17473081D01*
X12955151Y-17492129D01*
X12945628Y-17501652D01*
X12926580Y-17511176D01*
X12869437Y-17511176D01*
X12850389Y-17501652D01*
X12840866Y-17492129D01*
X13088485Y-17311176D02*
X13107532Y-17311176D01*
X13126580Y-17320700D01*
X13136104Y-17330224D01*
X13145628Y-17349271D01*
X13155151Y-17387367D01*
X13155151Y-17434986D01*
X13145628Y-17473081D01*
X13136104Y-17492129D01*
X13126580Y-17501652D01*
X13107532Y-17511176D01*
X13088485Y-17511176D01*
X13069437Y-17501652D01*
X13059913Y-17492129D01*
X13050389Y-17473081D01*
X13040866Y-17434986D01*
X13040866Y-17387367D01*
X13050389Y-17349271D01*
X13059913Y-17330224D01*
X13069437Y-17320700D01*
X13088485Y-17311176D01*
X13278961Y-17311176D02*
X13298008Y-17311176D01*
X13317056Y-17320700D01*
X13326580Y-17330224D01*
X13336104Y-17349271D01*
X13345628Y-17387367D01*
X13345628Y-17434986D01*
X13336104Y-17473081D01*
X13326580Y-17492129D01*
X13317056Y-17501652D01*
X13298008Y-17511176D01*
X13278961Y-17511176D01*
X13259913Y-17501652D01*
X13250389Y-17492129D01*
X13240866Y-17473081D01*
X13231342Y-17434986D01*
X13231342Y-17387367D01*
X13240866Y-17349271D01*
X13250389Y-17330224D01*
X13259913Y-17320700D01*
X13278961Y-17311176D01*
X13431342Y-17511176D02*
X13431342Y-17377843D01*
X13431342Y-17396890D02*
X13440866Y-17387367D01*
X13459913Y-17377843D01*
X13488485Y-17377843D01*
X13507532Y-17387367D01*
X13517056Y-17406414D01*
X13517056Y-17511176D01*
X13517056Y-17406414D02*
X13526580Y-17387367D01*
X13545628Y-17377843D01*
X13574199Y-17377843D01*
X13593247Y-17387367D01*
X13602770Y-17406414D01*
X13602770Y-17511176D01*
X13698008Y-17511176D02*
X13698008Y-17377843D01*
X13698008Y-17396890D02*
X13707532Y-17387367D01*
X13726580Y-17377843D01*
X13755151Y-17377843D01*
X13774199Y-17387367D01*
X13783723Y-17406414D01*
X13783723Y-17511176D01*
X13783723Y-17406414D02*
X13793247Y-17387367D01*
X13812294Y-17377843D01*
X13840866Y-17377843D01*
X13859913Y-17387367D01*
X13869437Y-17406414D01*
X13869437Y-17511176D01*
X14259913Y-17301652D02*
X14088485Y-17558795D01*
X14517056Y-17311176D02*
X14536104Y-17311176D01*
X14555151Y-17320700D01*
X14564675Y-17330224D01*
X14574199Y-17349271D01*
X14583723Y-17387367D01*
X14583723Y-17434986D01*
X14574199Y-17473081D01*
X14564675Y-17492129D01*
X14555151Y-17501652D01*
X14536104Y-17511176D01*
X14517056Y-17511176D01*
X14498008Y-17501652D01*
X14488485Y-17492129D01*
X14478961Y-17473081D01*
X14469437Y-17434986D01*
X14469437Y-17387367D01*
X14478961Y-17349271D01*
X14488485Y-17330224D01*
X14498008Y-17320700D01*
X14517056Y-17311176D01*
X14669437Y-17492129D02*
X14678961Y-17501652D01*
X14669437Y-17511176D01*
X14659913Y-17501652D01*
X14669437Y-17492129D01*
X14669437Y-17511176D01*
X14802770Y-17311176D02*
X14821818Y-17311176D01*
X14840866Y-17320700D01*
X14850389Y-17330224D01*
X14859913Y-17349271D01*
X14869437Y-17387367D01*
X14869437Y-17434986D01*
X14859913Y-17473081D01*
X14850389Y-17492129D01*
X14840866Y-17501652D01*
X14821818Y-17511176D01*
X14802770Y-17511176D01*
X14783723Y-17501652D01*
X14774199Y-17492129D01*
X14764675Y-17473081D01*
X14755151Y-17434986D01*
X14755151Y-17387367D01*
X14764675Y-17349271D01*
X14774199Y-17330224D01*
X14783723Y-17320700D01*
X14802770Y-17311176D01*
X15050389Y-17311176D02*
X14955151Y-17311176D01*
X14945628Y-17406414D01*
X14955151Y-17396890D01*
X14974199Y-17387367D01*
X15021818Y-17387367D01*
X15040866Y-17396890D01*
X15050389Y-17406414D01*
X15059913Y-17425462D01*
X15059913Y-17473081D01*
X15050389Y-17492129D01*
X15040866Y-17501652D01*
X15021818Y-17511176D01*
X14974199Y-17511176D01*
X14955151Y-17501652D01*
X14945628Y-17492129D01*
X15250389Y-17511176D02*
X15136104Y-17511176D01*
X15193247Y-17511176D02*
X15193247Y-17311176D01*
X15174199Y-17339748D01*
X15155151Y-17358795D01*
X15136104Y-17368319D01*
X15326580Y-17330224D02*
X15336104Y-17320700D01*
X15355151Y-17311176D01*
X15402770Y-17311176D01*
X15421818Y-17320700D01*
X15431342Y-17330224D01*
X15440866Y-17349271D01*
X15440866Y-17368319D01*
X15431342Y-17396890D01*
X15317056Y-17511176D01*
X15440866Y-17511176D01*
X15517056Y-17311176D02*
X15517056Y-17349271D01*
X15593247Y-17311176D02*
X15593247Y-17349271D01*
X15888485Y-17587367D02*
X15878961Y-17577843D01*
X15859913Y-17549271D01*
X15850389Y-17530224D01*
X15840866Y-17501652D01*
X15831342Y-17454033D01*
X15831342Y-17415938D01*
X15840866Y-17368319D01*
X15850389Y-17339748D01*
X15859913Y-17320700D01*
X15878961Y-17292129D01*
X15888485Y-17282605D01*
X16069437Y-17511176D02*
X15955151Y-17511176D01*
X16012294Y-17511176D02*
X16012294Y-17311176D01*
X15993247Y-17339748D01*
X15974199Y-17358795D01*
X15955151Y-17368319D01*
X16183723Y-17396890D02*
X16164675Y-17387367D01*
X16155151Y-17377843D01*
X16145628Y-17358795D01*
X16145628Y-17349271D01*
X16155151Y-17330224D01*
X16164675Y-17320700D01*
X16183723Y-17311176D01*
X16221818Y-17311176D01*
X16240866Y-17320700D01*
X16250389Y-17330224D01*
X16259913Y-17349271D01*
X16259913Y-17358795D01*
X16250389Y-17377843D01*
X16240866Y-17387367D01*
X16221818Y-17396890D01*
X16183723Y-17396890D01*
X16164675Y-17406414D01*
X16155151Y-17415938D01*
X16145628Y-17434986D01*
X16145628Y-17473081D01*
X16155151Y-17492129D01*
X16164675Y-17501652D01*
X16183723Y-17511176D01*
X16221818Y-17511176D01*
X16240866Y-17501652D01*
X16250389Y-17492129D01*
X16259913Y-17473081D01*
X16259913Y-17434986D01*
X16250389Y-17415938D01*
X16240866Y-17406414D01*
X16221818Y-17396890D01*
X16498008Y-17511176D02*
X16498008Y-17311176D01*
X16583723Y-17511176D02*
X16583723Y-17406414D01*
X16574199Y-17387367D01*
X16555151Y-17377843D01*
X16526580Y-17377843D01*
X16507532Y-17387367D01*
X16498008Y-17396890D01*
X16707532Y-17511176D02*
X16688485Y-17501652D01*
X16678961Y-17492129D01*
X16669437Y-17473081D01*
X16669437Y-17415938D01*
X16678961Y-17396890D01*
X16688485Y-17387367D01*
X16707532Y-17377843D01*
X16736104Y-17377843D01*
X16755151Y-17387367D01*
X16764675Y-17396890D01*
X16774199Y-17415938D01*
X16774199Y-17473081D01*
X16764675Y-17492129D01*
X16755151Y-17501652D01*
X16736104Y-17511176D01*
X16707532Y-17511176D01*
X16888485Y-17511176D02*
X16869437Y-17501652D01*
X16859913Y-17482605D01*
X16859913Y-17311176D01*
X17040866Y-17501652D02*
X17021818Y-17511176D01*
X16983723Y-17511176D01*
X16964675Y-17501652D01*
X16955151Y-17482605D01*
X16955151Y-17406414D01*
X16964675Y-17387367D01*
X16983723Y-17377843D01*
X17021818Y-17377843D01*
X17040866Y-17387367D01*
X17050390Y-17406414D01*
X17050390Y-17425462D01*
X16955151Y-17444510D01*
X17126580Y-17501652D02*
X17145628Y-17511176D01*
X17183723Y-17511176D01*
X17202770Y-17501652D01*
X17212294Y-17482605D01*
X17212294Y-17473081D01*
X17202770Y-17454033D01*
X17183723Y-17444510D01*
X17155151Y-17444510D01*
X17136104Y-17434986D01*
X17126580Y-17415938D01*
X17126580Y-17406414D01*
X17136104Y-17387367D01*
X17155151Y-17377843D01*
X17183723Y-17377843D01*
X17202770Y-17387367D01*
X17278961Y-17587367D02*
X17288485Y-17577843D01*
X17307532Y-17549271D01*
X17317056Y-17530224D01*
X17326580Y-17501652D01*
X17336104Y-17454033D01*
X17336104Y-17415938D01*
X17326580Y-17368319D01*
X17317056Y-17339748D01*
X17307532Y-17320700D01*
X17288485Y-17292129D01*
X17278961Y-17282605D01*
X12116580Y-17584700D02*
X12316580Y-17784700D01*
X12316580Y-17584700D02*
X12116580Y-17784700D01*
X12287291Y-17755411D02*
X12287291Y-17613989D01*
X12145869Y-17613989D01*
X12145869Y-17755411D01*
X12287291Y-17755411D01*
X12555151Y-17575176D02*
X12678961Y-17575176D01*
X12612294Y-17651367D01*
X12640866Y-17651367D01*
X12659913Y-17660890D01*
X12669437Y-17670414D01*
X12678961Y-17689462D01*
X12678961Y-17737081D01*
X12669437Y-17756129D01*
X12659913Y-17765652D01*
X12640866Y-17775176D01*
X12583723Y-17775176D01*
X12564675Y-17765652D01*
X12555151Y-17756129D01*
X12764675Y-17756129D02*
X12774199Y-17765652D01*
X12764675Y-17775176D01*
X12755151Y-17765652D01*
X12764675Y-17756129D01*
X12764675Y-17775176D01*
X12850389Y-17594224D02*
X12859913Y-17584700D01*
X12878961Y-17575176D01*
X12926580Y-17575176D01*
X12945628Y-17584700D01*
X12955151Y-17594224D01*
X12964675Y-17613271D01*
X12964675Y-17632319D01*
X12955151Y-17660890D01*
X12840866Y-17775176D01*
X12964675Y-17775176D01*
X13088485Y-17575176D02*
X13107532Y-17575176D01*
X13126580Y-17584700D01*
X13136104Y-17594224D01*
X13145628Y-17613271D01*
X13155151Y-17651367D01*
X13155151Y-17698986D01*
X13145628Y-17737081D01*
X13136104Y-17756129D01*
X13126580Y-17765652D01*
X13107532Y-17775176D01*
X13088485Y-17775176D01*
X13069437Y-17765652D01*
X13059913Y-17756129D01*
X13050389Y-17737081D01*
X13040866Y-17698986D01*
X13040866Y-17651367D01*
X13050389Y-17613271D01*
X13059913Y-17594224D01*
X13069437Y-17584700D01*
X13088485Y-17575176D01*
X13278961Y-17575176D02*
X13298008Y-17575176D01*
X13317056Y-17584700D01*
X13326580Y-17594224D01*
X13336104Y-17613271D01*
X13345628Y-17651367D01*
X13345628Y-17698986D01*
X13336104Y-17737081D01*
X13326580Y-17756129D01*
X13317056Y-17765652D01*
X13298008Y-17775176D01*
X13278961Y-17775176D01*
X13259913Y-17765652D01*
X13250389Y-17756129D01*
X13240866Y-17737081D01*
X13231342Y-17698986D01*
X13231342Y-17651367D01*
X13240866Y-17613271D01*
X13250389Y-17594224D01*
X13259913Y-17584700D01*
X13278961Y-17575176D01*
X13431342Y-17775176D02*
X13431342Y-17641843D01*
X13431342Y-17660890D02*
X13440866Y-17651367D01*
X13459913Y-17641843D01*
X13488485Y-17641843D01*
X13507532Y-17651367D01*
X13517056Y-17670414D01*
X13517056Y-17775176D01*
X13517056Y-17670414D02*
X13526580Y-17651367D01*
X13545628Y-17641843D01*
X13574199Y-17641843D01*
X13593247Y-17651367D01*
X13602770Y-17670414D01*
X13602770Y-17775176D01*
X13698008Y-17775176D02*
X13698008Y-17641843D01*
X13698008Y-17660890D02*
X13707532Y-17651367D01*
X13726580Y-17641843D01*
X13755151Y-17641843D01*
X13774199Y-17651367D01*
X13783723Y-17670414D01*
X13783723Y-17775176D01*
X13783723Y-17670414D02*
X13793247Y-17651367D01*
X13812294Y-17641843D01*
X13840866Y-17641843D01*
X13859913Y-17651367D01*
X13869437Y-17670414D01*
X13869437Y-17775176D01*
X14259913Y-17565652D02*
X14088485Y-17822795D01*
X14517056Y-17575176D02*
X14536104Y-17575176D01*
X14555151Y-17584700D01*
X14564675Y-17594224D01*
X14574199Y-17613271D01*
X14583723Y-17651367D01*
X14583723Y-17698986D01*
X14574199Y-17737081D01*
X14564675Y-17756129D01*
X14555151Y-17765652D01*
X14536104Y-17775176D01*
X14517056Y-17775176D01*
X14498008Y-17765652D01*
X14488485Y-17756129D01*
X14478961Y-17737081D01*
X14469437Y-17698986D01*
X14469437Y-17651367D01*
X14478961Y-17613271D01*
X14488485Y-17594224D01*
X14498008Y-17584700D01*
X14517056Y-17575176D01*
X14669437Y-17756129D02*
X14678961Y-17765652D01*
X14669437Y-17775176D01*
X14659913Y-17765652D01*
X14669437Y-17756129D01*
X14669437Y-17775176D01*
X14869437Y-17775176D02*
X14755151Y-17775176D01*
X14812294Y-17775176D02*
X14812294Y-17575176D01*
X14793247Y-17603748D01*
X14774199Y-17622795D01*
X14755151Y-17632319D01*
X14945628Y-17594224D02*
X14955151Y-17584700D01*
X14974199Y-17575176D01*
X15021818Y-17575176D01*
X15040866Y-17584700D01*
X15050389Y-17594224D01*
X15059913Y-17613271D01*
X15059913Y-17632319D01*
X15050389Y-17660890D01*
X14936104Y-17775176D01*
X15059913Y-17775176D01*
X15231342Y-17575176D02*
X15193247Y-17575176D01*
X15174199Y-17584700D01*
X15164675Y-17594224D01*
X15145628Y-17622795D01*
X15136104Y-17660890D01*
X15136104Y-17737081D01*
X15145628Y-17756129D01*
X15155151Y-17765652D01*
X15174199Y-17775176D01*
X15212294Y-17775176D01*
X15231342Y-17765652D01*
X15240866Y-17756129D01*
X15250389Y-17737081D01*
X15250389Y-17689462D01*
X15240866Y-17670414D01*
X15231342Y-17660890D01*
X15212294Y-17651367D01*
X15174199Y-17651367D01*
X15155151Y-17660890D01*
X15145628Y-17670414D01*
X15136104Y-17689462D01*
X15374199Y-17575176D02*
X15393247Y-17575176D01*
X15412294Y-17584700D01*
X15421818Y-17594224D01*
X15431342Y-17613271D01*
X15440866Y-17651367D01*
X15440866Y-17698986D01*
X15431342Y-17737081D01*
X15421818Y-17756129D01*
X15412294Y-17765652D01*
X15393247Y-17775176D01*
X15374199Y-17775176D01*
X15355151Y-17765652D01*
X15345628Y-17756129D01*
X15336104Y-17737081D01*
X15326580Y-17698986D01*
X15326580Y-17651367D01*
X15336104Y-17613271D01*
X15345628Y-17594224D01*
X15355151Y-17584700D01*
X15374199Y-17575176D01*
X15517056Y-17575176D02*
X15517056Y-17613271D01*
X15593247Y-17575176D02*
X15593247Y-17613271D01*
X15888485Y-17851367D02*
X15878961Y-17841843D01*
X15859913Y-17813271D01*
X15850389Y-17794224D01*
X15840866Y-17765652D01*
X15831342Y-17718033D01*
X15831342Y-17679938D01*
X15840866Y-17632319D01*
X15850389Y-17603748D01*
X15859913Y-17584700D01*
X15878961Y-17556129D01*
X15888485Y-17546605D01*
X16050389Y-17575176D02*
X16012294Y-17575176D01*
X15993247Y-17584700D01*
X15983723Y-17594224D01*
X15964675Y-17622795D01*
X15955151Y-17660890D01*
X15955151Y-17737081D01*
X15964675Y-17756129D01*
X15974199Y-17765652D01*
X15993247Y-17775176D01*
X16031342Y-17775176D01*
X16050389Y-17765652D01*
X16059913Y-17756129D01*
X16069437Y-17737081D01*
X16069437Y-17689462D01*
X16059913Y-17670414D01*
X16050389Y-17660890D01*
X16031342Y-17651367D01*
X15993247Y-17651367D01*
X15974199Y-17660890D01*
X15964675Y-17670414D01*
X15955151Y-17689462D01*
X16307532Y-17775176D02*
X16307532Y-17575176D01*
X16393247Y-17775176D02*
X16393247Y-17670414D01*
X16383723Y-17651367D01*
X16364675Y-17641843D01*
X16336104Y-17641843D01*
X16317056Y-17651367D01*
X16307532Y-17660890D01*
X16517056Y-17775176D02*
X16498008Y-17765652D01*
X16488485Y-17756129D01*
X16478961Y-17737081D01*
X16478961Y-17679938D01*
X16488485Y-17660890D01*
X16498008Y-17651367D01*
X16517056Y-17641843D01*
X16545628Y-17641843D01*
X16564675Y-17651367D01*
X16574199Y-17660890D01*
X16583723Y-17679938D01*
X16583723Y-17737081D01*
X16574199Y-17756129D01*
X16564675Y-17765652D01*
X16545628Y-17775176D01*
X16517056Y-17775176D01*
X16698008Y-17775176D02*
X16678961Y-17765652D01*
X16669437Y-17746605D01*
X16669437Y-17575176D01*
X16850390Y-17765652D02*
X16831342Y-17775176D01*
X16793247Y-17775176D01*
X16774199Y-17765652D01*
X16764675Y-17746605D01*
X16764675Y-17670414D01*
X16774199Y-17651367D01*
X16793247Y-17641843D01*
X16831342Y-17641843D01*
X16850390Y-17651367D01*
X16859913Y-17670414D01*
X16859913Y-17689462D01*
X16764675Y-17708510D01*
X16936104Y-17765652D02*
X16955151Y-17775176D01*
X16993247Y-17775176D01*
X17012294Y-17765652D01*
X17021818Y-17746605D01*
X17021818Y-17737081D01*
X17012294Y-17718033D01*
X16993247Y-17708510D01*
X16964675Y-17708510D01*
X16945628Y-17698986D01*
X16936104Y-17679938D01*
X16936104Y-17670414D01*
X16945628Y-17651367D01*
X16964675Y-17641843D01*
X16993247Y-17641843D01*
X17012294Y-17651367D01*
X17088485Y-17851367D02*
X17098009Y-17841843D01*
X17117056Y-17813271D01*
X17126580Y-17794224D01*
X17136104Y-17765652D01*
X17145628Y-17718033D01*
X17145628Y-17679938D01*
X17136104Y-17632319D01*
X17126580Y-17603748D01*
X17117056Y-17584700D01*
X17098009Y-17556129D01*
X17088485Y-17546605D01*
M02*
