%TF.GenerationSoftware,KiCad,Pcbnew,6.0.2+dfsg-1*%
%TF.CreationDate,2023-03-10T19:28:33+01:00*%
%TF.ProjectId,BtMusgo,42744d75-7367-46f2-9e6b-696361645f70,rev?*%
%TF.SameCoordinates,Original*%
%TF.FileFunction,Legend,Top*%
%TF.FilePolarity,Positive*%
%FSLAX46Y46*%
G04 Gerber Fmt 4.6, Leading zero omitted, Abs format (unit mm)*
G04 Created by KiCad (PCBNEW 6.0.2+dfsg-1) date 2023-03-10 19:28:33*
%MOMM*%
%LPD*%
G01*
G04 APERTURE LIST*
%TA.AperFunction,Profile*%
%ADD10C,0.150000*%
%TD*%
%ADD11C,0.500000*%
%ADD12C,1.000000*%
%ADD13C,0.250000*%
%ADD14C,0.300000*%
%ADD15C,0.150000*%
%ADD16C,0.160000*%
%ADD17C,0.120000*%
%ADD18O,1.501140X2.199640*%
%ADD19C,6.400000*%
%ADD20C,0.800000*%
%ADD21R,1.700000X1.700000*%
%ADD22O,1.700000X1.700000*%
%ADD23R,2.500000X2.500000*%
%ADD24C,2.500000*%
%ADD25C,1.520000*%
%ADD26R,1.520000X1.520000*%
%ADD27C,1.600000*%
%ADD28O,1.600000X1.600000*%
%ADD29R,2.400000X1.600000*%
%ADD30O,2.400000X1.600000*%
%ADD31O,2.032000X2.540000*%
%ADD32R,2.000000X2.000000*%
%ADD33C,2.000000*%
G04 APERTURE END LIST*
D10*
X236067600Y-74930000D02*
X235153200Y-74066400D01*
X246227600Y-74930000D02*
X236067600Y-74930000D01*
X234950000Y-139496979D02*
X234238800Y-140208179D01*
X246227600Y-139496979D02*
X234950000Y-139496979D01*
D11*
X232910000Y-90407857D02*
X232910000Y-88979285D01*
X233767142Y-90693571D02*
X230767142Y-89693571D01*
X233767142Y-88693571D01*
X230767142Y-87979285D02*
X230767142Y-85979285D01*
X233767142Y-87265000D01*
D12*
X153676303Y-135659857D02*
X154360827Y-135897952D01*
X154569160Y-136136047D01*
X154747732Y-136612238D01*
X154658446Y-137326523D01*
X154360827Y-137802714D01*
X154092970Y-138040809D01*
X153587017Y-138278904D01*
X151682255Y-138278904D01*
X152307255Y-133278904D01*
X153973922Y-133278904D01*
X154420351Y-133517000D01*
X154628684Y-133755095D01*
X154807255Y-134231285D01*
X154747732Y-134707476D01*
X154450113Y-135183666D01*
X154182255Y-135421761D01*
X153676303Y-135659857D01*
X152009636Y-135659857D01*
X156384636Y-134945571D02*
X158289398Y-134945571D01*
X157307255Y-133278904D02*
X156771541Y-137564619D01*
X156950113Y-138040809D01*
X157396541Y-138278904D01*
X157872732Y-138278904D01*
X159539398Y-138278904D02*
X160164398Y-133278904D01*
X161384636Y-136850333D01*
X163497732Y-133278904D01*
X162872732Y-138278904D01*
X171682255Y-138278904D02*
X168825113Y-138278904D01*
X170253684Y-138278904D02*
X170878684Y-133278904D01*
X170313208Y-133993190D01*
X169777494Y-134469380D01*
X169271541Y-134707476D01*
X173884636Y-137802714D02*
X174092970Y-138040809D01*
X173825113Y-138278904D01*
X173616779Y-138040809D01*
X173884636Y-137802714D01*
X173825113Y-138278904D01*
X178825113Y-138278904D02*
X175967970Y-138278904D01*
X177396541Y-138278904D02*
X178021541Y-133278904D01*
X177456065Y-133993190D01*
X176920351Y-134469380D01*
X176414398Y-134707476D01*
D11*
X206730742Y-140879485D02*
X209016457Y-140879485D01*
X207873600Y-142022342D02*
X207873600Y-139736628D01*
X218160742Y-140879485D02*
X220446457Y-140879485D01*
X219303600Y-142022342D02*
X219303600Y-139736628D01*
X230301942Y-140727085D02*
X232587657Y-140727085D01*
X231444800Y-141869942D02*
X231444800Y-139584228D01*
X243459142Y-137882285D02*
X245744857Y-137882285D01*
X244602000Y-139025142D02*
X244602000Y-136739428D01*
X242900342Y-76769885D02*
X245186057Y-76769885D01*
X244043200Y-77912742D02*
X244043200Y-75627028D01*
X232092642Y-73239285D02*
X234378357Y-73239285D01*
X233235500Y-74382142D02*
X233235500Y-72096428D01*
X219456142Y-73302785D02*
X221741857Y-73302785D01*
X220599000Y-74445642D02*
X220599000Y-72159928D01*
X206375142Y-73493285D02*
X208660857Y-73493285D01*
X207518000Y-74636142D02*
X207518000Y-72350428D01*
X160706357Y-145916333D02*
X161658738Y-145916333D01*
X160515880Y-146487761D02*
X161182547Y-144487761D01*
X161849214Y-146487761D01*
X162515880Y-146297285D02*
X162611119Y-146392523D01*
X162515880Y-146487761D01*
X162420642Y-146392523D01*
X162515880Y-146297285D01*
X162515880Y-146487761D01*
X165944452Y-146487761D02*
X164992071Y-146487761D01*
X164992071Y-144487761D01*
X167468261Y-146487761D02*
X167468261Y-145440142D01*
X167373023Y-145249666D01*
X167182547Y-145154428D01*
X166801595Y-145154428D01*
X166611119Y-145249666D01*
X167468261Y-146392523D02*
X167277785Y-146487761D01*
X166801595Y-146487761D01*
X166611119Y-146392523D01*
X166515880Y-146202047D01*
X166515880Y-146011571D01*
X166611119Y-145821095D01*
X166801595Y-145725857D01*
X167277785Y-145725857D01*
X167468261Y-145630619D01*
X168420642Y-146487761D02*
X168420642Y-145154428D01*
X168420642Y-145535380D02*
X168515880Y-145344904D01*
X168611119Y-145249666D01*
X168801595Y-145154428D01*
X168992071Y-145154428D01*
X170420642Y-146392523D02*
X170230166Y-146487761D01*
X169849214Y-146487761D01*
X169658738Y-146392523D01*
X169563500Y-146202047D01*
X169563500Y-145440142D01*
X169658738Y-145249666D01*
X169849214Y-145154428D01*
X170230166Y-145154428D01*
X170420642Y-145249666D01*
X170515880Y-145440142D01*
X170515880Y-145630619D01*
X169563500Y-145821095D01*
X171658738Y-146487761D02*
X171468261Y-146392523D01*
X171373023Y-146297285D01*
X171277785Y-146106809D01*
X171277785Y-145535380D01*
X171373023Y-145344904D01*
X171468261Y-145249666D01*
X171658738Y-145154428D01*
X171944452Y-145154428D01*
X172134928Y-145249666D01*
X172230166Y-145344904D01*
X172325404Y-145535380D01*
X172325404Y-146106809D01*
X172230166Y-146297285D01*
X172134928Y-146392523D01*
X171944452Y-146487761D01*
X171658738Y-146487761D01*
X176325404Y-146487761D02*
X176230166Y-146487761D01*
X176039690Y-146392523D01*
X175753976Y-146106809D01*
X175277785Y-145535380D01*
X175087309Y-145249666D01*
X174992071Y-144963952D01*
X174992071Y-144773476D01*
X175087309Y-144583000D01*
X175277785Y-144487761D01*
X175373023Y-144487761D01*
X175563500Y-144583000D01*
X175658738Y-144773476D01*
X175658738Y-144868714D01*
X175563500Y-145059190D01*
X175468261Y-145154428D01*
X174896833Y-145535380D01*
X174801595Y-145630619D01*
X174706357Y-145821095D01*
X174706357Y-146106809D01*
X174801595Y-146297285D01*
X174896833Y-146392523D01*
X175087309Y-146487761D01*
X175373023Y-146487761D01*
X175563500Y-146392523D01*
X175658738Y-146297285D01*
X175944452Y-145916333D01*
X176039690Y-145630619D01*
X176039690Y-145440142D01*
X178706357Y-146487761D02*
X178706357Y-144487761D01*
X179373023Y-145916333D01*
X180039690Y-144487761D01*
X180039690Y-146487761D01*
X180992071Y-146297285D02*
X181087309Y-146392523D01*
X180992071Y-146487761D01*
X180896833Y-146392523D01*
X180992071Y-146297285D01*
X180992071Y-146487761D01*
X184420642Y-146487761D02*
X183468261Y-146487761D01*
X183468261Y-144487761D01*
X185849214Y-146392523D02*
X185658738Y-146487761D01*
X185277785Y-146487761D01*
X185087309Y-146392523D01*
X184992071Y-146202047D01*
X184992071Y-145440142D01*
X185087309Y-145249666D01*
X185277785Y-145154428D01*
X185658738Y-145154428D01*
X185849214Y-145249666D01*
X185944452Y-145440142D01*
X185944452Y-145630619D01*
X184992071Y-145821095D01*
X187087309Y-146487761D02*
X186896833Y-146392523D01*
X186801595Y-146297285D01*
X186706357Y-146106809D01*
X186706357Y-145535380D01*
X186801595Y-145344904D01*
X186896833Y-145249666D01*
X187087309Y-145154428D01*
X187373023Y-145154428D01*
X187563500Y-145249666D01*
X187658738Y-145344904D01*
X187753976Y-145535380D01*
X187753976Y-146106809D01*
X187658738Y-146297285D01*
X187563500Y-146392523D01*
X187373023Y-146487761D01*
X187087309Y-146487761D01*
X191753976Y-146487761D02*
X191658738Y-146487761D01*
X191468261Y-146392523D01*
X191182547Y-146106809D01*
X190706357Y-145535380D01*
X190515880Y-145249666D01*
X190420642Y-144963952D01*
X190420642Y-144773476D01*
X190515880Y-144583000D01*
X190706357Y-144487761D01*
X190801595Y-144487761D01*
X190992071Y-144583000D01*
X191087309Y-144773476D01*
X191087309Y-144868714D01*
X190992071Y-145059190D01*
X190896833Y-145154428D01*
X190325404Y-145535380D01*
X190230166Y-145630619D01*
X190134928Y-145821095D01*
X190134928Y-146106809D01*
X190230166Y-146297285D01*
X190325404Y-146392523D01*
X190515880Y-146487761D01*
X190801595Y-146487761D01*
X190992071Y-146392523D01*
X191087309Y-146297285D01*
X191373023Y-145916333D01*
X191468261Y-145630619D01*
X191468261Y-145440142D01*
X195277785Y-146297285D02*
X195182547Y-146392523D01*
X194896833Y-146487761D01*
X194706357Y-146487761D01*
X194420642Y-146392523D01*
X194230166Y-146202047D01*
X194134928Y-146011571D01*
X194039690Y-145630619D01*
X194039690Y-145344904D01*
X194134928Y-144963952D01*
X194230166Y-144773476D01*
X194420642Y-144583000D01*
X194706357Y-144487761D01*
X194896833Y-144487761D01*
X195182547Y-144583000D01*
X195277785Y-144678238D01*
X196134928Y-146297285D02*
X196230166Y-146392523D01*
X196134928Y-146487761D01*
X196039690Y-146392523D01*
X196134928Y-146297285D01*
X196134928Y-146487761D01*
X199658738Y-144583000D02*
X199468261Y-144487761D01*
X199182547Y-144487761D01*
X198896833Y-144583000D01*
X198706357Y-144773476D01*
X198611119Y-144963952D01*
X198515880Y-145344904D01*
X198515880Y-145630619D01*
X198611119Y-146011571D01*
X198706357Y-146202047D01*
X198896833Y-146392523D01*
X199182547Y-146487761D01*
X199373023Y-146487761D01*
X199658738Y-146392523D01*
X199753976Y-146297285D01*
X199753976Y-145630619D01*
X199373023Y-145630619D01*
X201468261Y-146487761D02*
X201468261Y-145440142D01*
X201373023Y-145249666D01*
X201182547Y-145154428D01*
X200801595Y-145154428D01*
X200611119Y-145249666D01*
X201468261Y-146392523D02*
X201277785Y-146487761D01*
X200801595Y-146487761D01*
X200611119Y-146392523D01*
X200515880Y-146202047D01*
X200515880Y-146011571D01*
X200611119Y-145821095D01*
X200801595Y-145725857D01*
X201277785Y-145725857D01*
X201468261Y-145630619D01*
X202420642Y-146487761D02*
X202420642Y-145154428D01*
X202420642Y-145535380D02*
X202515880Y-145344904D01*
X202611119Y-145249666D01*
X202801595Y-145154428D01*
X202992071Y-145154428D01*
X204515880Y-146392523D02*
X204325404Y-146487761D01*
X203944452Y-146487761D01*
X203753976Y-146392523D01*
X203658738Y-146297285D01*
X203563499Y-146106809D01*
X203563499Y-145535380D01*
X203658738Y-145344904D01*
X203753976Y-145249666D01*
X203944452Y-145154428D01*
X204325404Y-145154428D01*
X204515880Y-145249666D01*
X205373023Y-146487761D02*
X205373023Y-145154428D01*
X205373023Y-144487761D02*
X205277785Y-144583000D01*
X205373023Y-144678238D01*
X205468261Y-144583000D01*
X205373023Y-144487761D01*
X205373023Y-144678238D01*
X207182547Y-146487761D02*
X207182547Y-145440142D01*
X207087309Y-145249666D01*
X206896833Y-145154428D01*
X206515880Y-145154428D01*
X206325404Y-145249666D01*
X207182547Y-146392523D02*
X206992071Y-146487761D01*
X206515880Y-146487761D01*
X206325404Y-146392523D01*
X206230166Y-146202047D01*
X206230166Y-146011571D01*
X206325404Y-145821095D01*
X206515880Y-145725857D01*
X206992071Y-145725857D01*
X207182547Y-145630619D01*
X209658738Y-145725857D02*
X211182547Y-145725857D01*
X213563499Y-144678238D02*
X213658738Y-144583000D01*
X213849214Y-144487761D01*
X214325404Y-144487761D01*
X214515880Y-144583000D01*
X214611119Y-144678238D01*
X214706357Y-144868714D01*
X214706357Y-145059190D01*
X214611119Y-145344904D01*
X213468261Y-146487761D01*
X214706357Y-146487761D01*
X215944452Y-144487761D02*
X216134928Y-144487761D01*
X216325404Y-144583000D01*
X216420642Y-144678238D01*
X216515880Y-144868714D01*
X216611119Y-145249666D01*
X216611119Y-145725857D01*
X216515880Y-146106809D01*
X216420642Y-146297285D01*
X216325404Y-146392523D01*
X216134928Y-146487761D01*
X215944452Y-146487761D01*
X215753976Y-146392523D01*
X215658738Y-146297285D01*
X215563499Y-146106809D01*
X215468261Y-145725857D01*
X215468261Y-145249666D01*
X215563499Y-144868714D01*
X215658738Y-144678238D01*
X215753976Y-144583000D01*
X215944452Y-144487761D01*
X218515880Y-146487761D02*
X217373023Y-146487761D01*
X217944452Y-146487761D02*
X217944452Y-144487761D01*
X217753976Y-144773476D01*
X217563499Y-144963952D01*
X217373023Y-145059190D01*
X219658738Y-145344904D02*
X219468261Y-145249666D01*
X219373023Y-145154428D01*
X219277785Y-144963952D01*
X219277785Y-144868714D01*
X219373023Y-144678238D01*
X219468261Y-144583000D01*
X219658738Y-144487761D01*
X220039690Y-144487761D01*
X220230166Y-144583000D01*
X220325404Y-144678238D01*
X220420642Y-144868714D01*
X220420642Y-144963952D01*
X220325404Y-145154428D01*
X220230166Y-145249666D01*
X220039690Y-145344904D01*
X219658738Y-145344904D01*
X219468261Y-145440142D01*
X219373023Y-145535380D01*
X219277785Y-145725857D01*
X219277785Y-146106809D01*
X219373023Y-146297285D01*
X219468261Y-146392523D01*
X219658738Y-146487761D01*
X220039690Y-146487761D01*
X220230166Y-146392523D01*
X220325404Y-146297285D01*
X220420642Y-146106809D01*
X220420642Y-145725857D01*
X220325404Y-145535380D01*
X220230166Y-145440142D01*
X220039690Y-145344904D01*
X156563500Y-149707761D02*
X156563500Y-147707761D01*
X157420642Y-149707761D02*
X157420642Y-148660142D01*
X157325404Y-148469666D01*
X157134928Y-148374428D01*
X156849214Y-148374428D01*
X156658738Y-148469666D01*
X156563500Y-148564904D01*
X158087309Y-148374428D02*
X158849214Y-148374428D01*
X158373023Y-147707761D02*
X158373023Y-149422047D01*
X158468261Y-149612523D01*
X158658738Y-149707761D01*
X158849214Y-149707761D01*
X159230166Y-148374428D02*
X159992071Y-148374428D01*
X159515880Y-147707761D02*
X159515880Y-149422047D01*
X159611119Y-149612523D01*
X159801595Y-149707761D01*
X159992071Y-149707761D01*
X160658738Y-148374428D02*
X160658738Y-150374428D01*
X160658738Y-148469666D02*
X160849214Y-148374428D01*
X161230166Y-148374428D01*
X161420642Y-148469666D01*
X161515880Y-148564904D01*
X161611119Y-148755380D01*
X161611119Y-149326809D01*
X161515880Y-149517285D01*
X161420642Y-149612523D01*
X161230166Y-149707761D01*
X160849214Y-149707761D01*
X160658738Y-149612523D01*
X162468261Y-149517285D02*
X162563500Y-149612523D01*
X162468261Y-149707761D01*
X162373023Y-149612523D01*
X162468261Y-149517285D01*
X162468261Y-149707761D01*
X162468261Y-148469666D02*
X162563500Y-148564904D01*
X162468261Y-148660142D01*
X162373023Y-148564904D01*
X162468261Y-148469666D01*
X162468261Y-148660142D01*
X164849214Y-147612523D02*
X163134928Y-150183952D01*
X166944452Y-147612523D02*
X165230166Y-150183952D01*
X168468261Y-148374428D02*
X168468261Y-149993476D01*
X168373023Y-150183952D01*
X168277785Y-150279190D01*
X168087309Y-150374428D01*
X167801595Y-150374428D01*
X167611119Y-150279190D01*
X168468261Y-149612523D02*
X168277785Y-149707761D01*
X167896833Y-149707761D01*
X167706357Y-149612523D01*
X167611119Y-149517285D01*
X167515880Y-149326809D01*
X167515880Y-148755380D01*
X167611119Y-148564904D01*
X167706357Y-148469666D01*
X167896833Y-148374428D01*
X168277785Y-148374428D01*
X168468261Y-148469666D01*
X169420642Y-149707761D02*
X169420642Y-148374428D01*
X169420642Y-147707761D02*
X169325404Y-147803000D01*
X169420642Y-147898238D01*
X169515880Y-147803000D01*
X169420642Y-147707761D01*
X169420642Y-147898238D01*
X170087309Y-148374428D02*
X170849214Y-148374428D01*
X170373023Y-147707761D02*
X170373023Y-149422047D01*
X170468261Y-149612523D01*
X170658738Y-149707761D01*
X170849214Y-149707761D01*
X171515880Y-149707761D02*
X171515880Y-147707761D01*
X172373023Y-149707761D02*
X172373023Y-148660142D01*
X172277785Y-148469666D01*
X172087309Y-148374428D01*
X171801595Y-148374428D01*
X171611119Y-148469666D01*
X171515880Y-148564904D01*
X174182547Y-148374428D02*
X174182547Y-149707761D01*
X173325404Y-148374428D02*
X173325404Y-149422047D01*
X173420642Y-149612523D01*
X173611119Y-149707761D01*
X173896833Y-149707761D01*
X174087309Y-149612523D01*
X174182547Y-149517285D01*
X175134928Y-149707761D02*
X175134928Y-147707761D01*
X175134928Y-148469666D02*
X175325404Y-148374428D01*
X175706357Y-148374428D01*
X175896833Y-148469666D01*
X175992071Y-148564904D01*
X176087309Y-148755380D01*
X176087309Y-149326809D01*
X175992071Y-149517285D01*
X175896833Y-149612523D01*
X175706357Y-149707761D01*
X175325404Y-149707761D01*
X175134928Y-149612523D01*
X176944452Y-149517285D02*
X177039690Y-149612523D01*
X176944452Y-149707761D01*
X176849214Y-149612523D01*
X176944452Y-149517285D01*
X176944452Y-149707761D01*
X178753976Y-149612523D02*
X178563500Y-149707761D01*
X178182547Y-149707761D01*
X177992071Y-149612523D01*
X177896833Y-149517285D01*
X177801595Y-149326809D01*
X177801595Y-148755380D01*
X177896833Y-148564904D01*
X177992071Y-148469666D01*
X178182547Y-148374428D01*
X178563500Y-148374428D01*
X178753976Y-148469666D01*
X179896833Y-149707761D02*
X179706357Y-149612523D01*
X179611119Y-149517285D01*
X179515880Y-149326809D01*
X179515880Y-148755380D01*
X179611119Y-148564904D01*
X179706357Y-148469666D01*
X179896833Y-148374428D01*
X180182547Y-148374428D01*
X180373023Y-148469666D01*
X180468261Y-148564904D01*
X180563500Y-148755380D01*
X180563500Y-149326809D01*
X180468261Y-149517285D01*
X180373023Y-149612523D01*
X180182547Y-149707761D01*
X179896833Y-149707761D01*
X181420642Y-149707761D02*
X181420642Y-148374428D01*
X181420642Y-148564904D02*
X181515880Y-148469666D01*
X181706357Y-148374428D01*
X181992071Y-148374428D01*
X182182547Y-148469666D01*
X182277785Y-148660142D01*
X182277785Y-149707761D01*
X182277785Y-148660142D02*
X182373023Y-148469666D01*
X182563500Y-148374428D01*
X182849214Y-148374428D01*
X183039690Y-148469666D01*
X183134928Y-148660142D01*
X183134928Y-149707761D01*
X185515880Y-147612523D02*
X183801595Y-150183952D01*
X187039690Y-148374428D02*
X187039690Y-149707761D01*
X186182547Y-148374428D02*
X186182547Y-149422047D01*
X186277785Y-149612523D01*
X186468261Y-149707761D01*
X186753976Y-149707761D01*
X186944452Y-149612523D01*
X187039690Y-149517285D01*
X187992071Y-148374428D02*
X187992071Y-149707761D01*
X187992071Y-148564904D02*
X188087309Y-148469666D01*
X188277785Y-148374428D01*
X188563500Y-148374428D01*
X188753976Y-148469666D01*
X188849214Y-148660142D01*
X188849214Y-149707761D01*
X189801595Y-149707761D02*
X189801595Y-148374428D01*
X189801595Y-147707761D02*
X189706357Y-147803000D01*
X189801595Y-147898238D01*
X189896833Y-147803000D01*
X189801595Y-147707761D01*
X189801595Y-147898238D01*
X190468261Y-148374428D02*
X191230166Y-148374428D01*
X190753976Y-147707761D02*
X190753976Y-149422047D01*
X190849214Y-149612523D01*
X191039690Y-149707761D01*
X191230166Y-149707761D01*
X192658738Y-149612523D02*
X192468261Y-149707761D01*
X192087309Y-149707761D01*
X191896833Y-149612523D01*
X191801595Y-149422047D01*
X191801595Y-148660142D01*
X191896833Y-148469666D01*
X192087309Y-148374428D01*
X192468261Y-148374428D01*
X192658738Y-148469666D01*
X192753976Y-148660142D01*
X192753976Y-148850619D01*
X191801595Y-149041095D01*
X194468261Y-149707761D02*
X194468261Y-147707761D01*
X194468261Y-149612523D02*
X194277785Y-149707761D01*
X193896833Y-149707761D01*
X193706357Y-149612523D01*
X193611119Y-149517285D01*
X193515880Y-149326809D01*
X193515880Y-148755380D01*
X193611119Y-148564904D01*
X193706357Y-148469666D01*
X193896833Y-148374428D01*
X194277785Y-148374428D01*
X194468261Y-148469666D01*
X195420642Y-148945857D02*
X196944452Y-148945857D01*
X198658738Y-149612523D02*
X198468261Y-149707761D01*
X198087309Y-149707761D01*
X197896833Y-149612523D01*
X197801595Y-149422047D01*
X197801595Y-148660142D01*
X197896833Y-148469666D01*
X198087309Y-148374428D01*
X198468261Y-148374428D01*
X198658738Y-148469666D01*
X198753976Y-148660142D01*
X198753976Y-148850619D01*
X197801595Y-149041095D01*
X200468261Y-149612523D02*
X200277785Y-149707761D01*
X199896833Y-149707761D01*
X199706357Y-149612523D01*
X199611119Y-149517285D01*
X199515880Y-149326809D01*
X199515880Y-148755380D01*
X199611119Y-148564904D01*
X199706357Y-148469666D01*
X199896833Y-148374428D01*
X200277785Y-148374428D01*
X200468261Y-148469666D01*
X201611119Y-149707761D02*
X201420642Y-149612523D01*
X201325404Y-149517285D01*
X201230166Y-149326809D01*
X201230166Y-148755380D01*
X201325404Y-148564904D01*
X201420642Y-148469666D01*
X201611119Y-148374428D01*
X201896833Y-148374428D01*
X202087309Y-148469666D01*
X202182547Y-148564904D01*
X202277785Y-148755380D01*
X202277785Y-149326809D01*
X202182547Y-149517285D01*
X202087309Y-149612523D01*
X201896833Y-149707761D01*
X201611119Y-149707761D01*
X203420642Y-149707761D02*
X203230166Y-149612523D01*
X203134928Y-149422047D01*
X203134928Y-147707761D01*
X204468261Y-149707761D02*
X204277785Y-149612523D01*
X204182547Y-149517285D01*
X204087309Y-149326809D01*
X204087309Y-148755380D01*
X204182547Y-148564904D01*
X204277785Y-148469666D01*
X204468261Y-148374428D01*
X204753976Y-148374428D01*
X204944452Y-148469666D01*
X205039690Y-148564904D01*
X205134928Y-148755380D01*
X205134928Y-149326809D01*
X205039690Y-149517285D01*
X204944452Y-149612523D01*
X204753976Y-149707761D01*
X204468261Y-149707761D01*
X206849214Y-148374428D02*
X206849214Y-149993476D01*
X206753976Y-150183952D01*
X206658738Y-150279190D01*
X206468261Y-150374428D01*
X206182547Y-150374428D01*
X205992071Y-150279190D01*
X206849214Y-149612523D02*
X206658738Y-149707761D01*
X206277785Y-149707761D01*
X206087309Y-149612523D01*
X205992071Y-149517285D01*
X205896833Y-149326809D01*
X205896833Y-148755380D01*
X205992071Y-148564904D01*
X206087309Y-148469666D01*
X206277785Y-148374428D01*
X206658738Y-148374428D01*
X206849214Y-148469666D01*
X207611119Y-148374428D02*
X208087309Y-149707761D01*
X208563500Y-148374428D02*
X208087309Y-149707761D01*
X207896833Y-150183952D01*
X207801595Y-150279190D01*
X207611119Y-150374428D01*
X210753976Y-147612523D02*
X209039690Y-150183952D01*
X211420642Y-149707761D02*
X211420642Y-147707761D01*
X211420642Y-148469666D02*
X211611119Y-148374428D01*
X211992071Y-148374428D01*
X212182547Y-148469666D01*
X212277785Y-148564904D01*
X212373023Y-148755380D01*
X212373023Y-149326809D01*
X212277785Y-149517285D01*
X212182547Y-149612523D01*
X211992071Y-149707761D01*
X211611119Y-149707761D01*
X211420642Y-149612523D01*
X212944452Y-148374428D02*
X213706357Y-148374428D01*
X213230166Y-147707761D02*
X213230166Y-149422047D01*
X213325404Y-149612523D01*
X213515880Y-149707761D01*
X213706357Y-149707761D01*
X214373023Y-149707761D02*
X214373023Y-148374428D01*
X214373023Y-148564904D02*
X214468261Y-148469666D01*
X214658738Y-148374428D01*
X214944452Y-148374428D01*
X215134928Y-148469666D01*
X215230166Y-148660142D01*
X215230166Y-149707761D01*
X215230166Y-148660142D02*
X215325404Y-148469666D01*
X215515880Y-148374428D01*
X215801595Y-148374428D01*
X215992071Y-148469666D01*
X216087309Y-148660142D01*
X216087309Y-149707761D01*
X217039690Y-149707761D02*
X217039690Y-147707761D01*
X217039690Y-148469666D02*
X217230166Y-148374428D01*
X217611119Y-148374428D01*
X217801595Y-148469666D01*
X217896833Y-148564904D01*
X217992071Y-148755380D01*
X217992071Y-149326809D01*
X217896833Y-149517285D01*
X217801595Y-149612523D01*
X217611119Y-149707761D01*
X217230166Y-149707761D01*
X217039690Y-149612523D01*
X219134928Y-149707761D02*
X218944452Y-149612523D01*
X218849214Y-149517285D01*
X218753976Y-149326809D01*
X218753976Y-148755380D01*
X218849214Y-148564904D01*
X218944452Y-148469666D01*
X219134928Y-148374428D01*
X219420642Y-148374428D01*
X219611119Y-148469666D01*
X219706357Y-148564904D01*
X219801595Y-148755380D01*
X219801595Y-149326809D01*
X219706357Y-149517285D01*
X219611119Y-149612523D01*
X219420642Y-149707761D01*
X219134928Y-149707761D01*
X221515880Y-149707761D02*
X221515880Y-148660142D01*
X221420642Y-148469666D01*
X221230166Y-148374428D01*
X220849214Y-148374428D01*
X220658738Y-148469666D01*
X221515880Y-149612523D02*
X221325404Y-149707761D01*
X220849214Y-149707761D01*
X220658738Y-149612523D01*
X220563499Y-149422047D01*
X220563499Y-149231571D01*
X220658738Y-149041095D01*
X220849214Y-148945857D01*
X221325404Y-148945857D01*
X221515880Y-148850619D01*
X222468261Y-149707761D02*
X222468261Y-148374428D01*
X222468261Y-148755380D02*
X222563499Y-148564904D01*
X222658738Y-148469666D01*
X222849214Y-148374428D01*
X223039690Y-148374428D01*
X224563499Y-149707761D02*
X224563499Y-147707761D01*
X224563499Y-149612523D02*
X224373023Y-149707761D01*
X223992071Y-149707761D01*
X223801595Y-149612523D01*
X223706357Y-149517285D01*
X223611119Y-149326809D01*
X223611119Y-148755380D01*
X223706357Y-148564904D01*
X223801595Y-148469666D01*
X223992071Y-148374428D01*
X224373023Y-148374428D01*
X224563499Y-148469666D01*
D12*
X154401738Y-126547904D02*
X154401738Y-130595523D01*
X154639833Y-131071714D01*
X154877928Y-131309809D01*
X155354119Y-131547904D01*
X156306500Y-131547904D01*
X156782690Y-131309809D01*
X157020785Y-131071714D01*
X157258880Y-130595523D01*
X157258880Y-126547904D01*
X159639833Y-131547904D02*
X159639833Y-126547904D01*
X162496976Y-131547904D01*
X162496976Y-126547904D01*
X164877928Y-131547904D02*
X164877928Y-126547904D01*
X166544595Y-126547904D02*
X169401738Y-126547904D01*
X167973166Y-131547904D02*
X167973166Y-126547904D01*
X171068404Y-128928857D02*
X172735071Y-128928857D01*
X173449357Y-131547904D02*
X171068404Y-131547904D01*
X171068404Y-126547904D01*
X173449357Y-126547904D01*
X175592214Y-131547904D02*
X175592214Y-126547904D01*
X176782690Y-126547904D01*
X177496976Y-126786000D01*
X177973166Y-127262190D01*
X178211261Y-127738380D01*
X178449357Y-128690761D01*
X178449357Y-129405047D01*
X178211261Y-130357428D01*
X177973166Y-130833619D01*
X177496976Y-131309809D01*
X176782690Y-131547904D01*
X175592214Y-131547904D01*
D13*
X168362285Y-75699928D02*
X168028952Y-75699928D01*
X167886095Y-75176119D02*
X168362285Y-75176119D01*
X168362285Y-76176119D01*
X167886095Y-76176119D01*
X168013071Y-73096428D02*
X167870214Y-73048809D01*
X167822595Y-73001190D01*
X167774976Y-72905952D01*
X167774976Y-72763095D01*
X167822595Y-72667857D01*
X167870214Y-72620238D01*
X167965452Y-72572619D01*
X168346404Y-72572619D01*
X168346404Y-73572619D01*
X168013071Y-73572619D01*
X167917833Y-73525000D01*
X167870214Y-73477380D01*
X167822595Y-73382142D01*
X167822595Y-73286904D01*
X167870214Y-73191666D01*
X167917833Y-73144047D01*
X168013071Y-73096428D01*
X168346404Y-73096428D01*
X167774976Y-70381857D02*
X167822595Y-70334238D01*
X167965452Y-70286619D01*
X168060690Y-70286619D01*
X168203547Y-70334238D01*
X168298785Y-70429476D01*
X168346404Y-70524714D01*
X168394023Y-70715190D01*
X168394023Y-70858047D01*
X168346404Y-71048523D01*
X168298785Y-71143761D01*
X168203547Y-71239000D01*
X168060690Y-71286619D01*
X167965452Y-71286619D01*
X167822595Y-71239000D01*
X167774976Y-71191380D01*
X156696114Y-70515219D02*
X156743733Y-70467600D01*
X156838971Y-70419980D01*
X157077066Y-70419980D01*
X157172304Y-70467600D01*
X157219923Y-70515219D01*
X157267542Y-70610457D01*
X157267542Y-70705695D01*
X157219923Y-70848552D01*
X156648495Y-71419980D01*
X157267542Y-71419980D01*
X157696114Y-71419980D02*
X157696114Y-70419980D01*
X158267542Y-71419980D01*
X158267542Y-70419980D01*
X158648495Y-70419980D02*
X159267542Y-70419980D01*
X158934209Y-70800933D01*
X159077066Y-70800933D01*
X159172304Y-70848552D01*
X159219923Y-70896171D01*
X159267542Y-70991409D01*
X159267542Y-71229504D01*
X159219923Y-71324742D01*
X159172304Y-71372361D01*
X159077066Y-71419980D01*
X158791352Y-71419980D01*
X158696114Y-71372361D01*
X158648495Y-71324742D01*
X159743733Y-71419980D02*
X159934209Y-71419980D01*
X160029447Y-71372361D01*
X160077066Y-71324742D01*
X160172304Y-71181885D01*
X160219923Y-70991409D01*
X160219923Y-70610457D01*
X160172304Y-70515219D01*
X160124685Y-70467600D01*
X160029447Y-70419980D01*
X159838971Y-70419980D01*
X159743733Y-70467600D01*
X159696114Y-70515219D01*
X159648495Y-70610457D01*
X159648495Y-70848552D01*
X159696114Y-70943790D01*
X159743733Y-70991409D01*
X159838971Y-71039028D01*
X160029447Y-71039028D01*
X160124685Y-70991409D01*
X160172304Y-70943790D01*
X160219923Y-70848552D01*
X160838971Y-70419980D02*
X160934209Y-70419980D01*
X161029447Y-70467600D01*
X161077066Y-70515219D01*
X161124685Y-70610457D01*
X161172304Y-70800933D01*
X161172304Y-71039028D01*
X161124685Y-71229504D01*
X161077066Y-71324742D01*
X161029447Y-71372361D01*
X160934209Y-71419980D01*
X160838971Y-71419980D01*
X160743733Y-71372361D01*
X160696114Y-71324742D01*
X160648495Y-71229504D01*
X160600876Y-71039028D01*
X160600876Y-70800933D01*
X160648495Y-70610457D01*
X160696114Y-70515219D01*
X160743733Y-70467600D01*
X160838971Y-70419980D01*
X162029447Y-70753314D02*
X162029447Y-71419980D01*
X161791352Y-70372361D02*
X161553257Y-71086647D01*
X162172304Y-71086647D01*
X145875714Y-124960119D02*
X145923333Y-124912500D01*
X146018571Y-124864880D01*
X146256666Y-124864880D01*
X146351904Y-124912500D01*
X146399523Y-124960119D01*
X146447142Y-125055357D01*
X146447142Y-125150595D01*
X146399523Y-125293452D01*
X145828095Y-125864880D01*
X146447142Y-125864880D01*
X146875714Y-125864880D02*
X146875714Y-124864880D01*
X147447142Y-125864880D01*
X147447142Y-124864880D01*
X147828095Y-124864880D02*
X148447142Y-124864880D01*
X148113809Y-125245833D01*
X148256666Y-125245833D01*
X148351904Y-125293452D01*
X148399523Y-125341071D01*
X148447142Y-125436309D01*
X148447142Y-125674404D01*
X148399523Y-125769642D01*
X148351904Y-125817261D01*
X148256666Y-125864880D01*
X147970952Y-125864880D01*
X147875714Y-125817261D01*
X147828095Y-125769642D01*
X148923333Y-125864880D02*
X149113809Y-125864880D01*
X149209047Y-125817261D01*
X149256666Y-125769642D01*
X149351904Y-125626785D01*
X149399523Y-125436309D01*
X149399523Y-125055357D01*
X149351904Y-124960119D01*
X149304285Y-124912500D01*
X149209047Y-124864880D01*
X149018571Y-124864880D01*
X148923333Y-124912500D01*
X148875714Y-124960119D01*
X148828095Y-125055357D01*
X148828095Y-125293452D01*
X148875714Y-125388690D01*
X148923333Y-125436309D01*
X149018571Y-125483928D01*
X149209047Y-125483928D01*
X149304285Y-125436309D01*
X149351904Y-125388690D01*
X149399523Y-125293452D01*
X150018571Y-124864880D02*
X150113809Y-124864880D01*
X150209047Y-124912500D01*
X150256666Y-124960119D01*
X150304285Y-125055357D01*
X150351904Y-125245833D01*
X150351904Y-125483928D01*
X150304285Y-125674404D01*
X150256666Y-125769642D01*
X150209047Y-125817261D01*
X150113809Y-125864880D01*
X150018571Y-125864880D01*
X149923333Y-125817261D01*
X149875714Y-125769642D01*
X149828095Y-125674404D01*
X149780476Y-125483928D01*
X149780476Y-125245833D01*
X149828095Y-125055357D01*
X149875714Y-124960119D01*
X149923333Y-124912500D01*
X150018571Y-124864880D01*
X151209047Y-125198214D02*
X151209047Y-125864880D01*
X150970952Y-124817261D02*
X150732857Y-125531547D01*
X151351904Y-125531547D01*
X145153023Y-123674142D02*
X145105404Y-123721761D01*
X144962547Y-123769380D01*
X144867309Y-123769380D01*
X144724452Y-123721761D01*
X144629214Y-123626523D01*
X144581595Y-123531285D01*
X144533976Y-123340809D01*
X144533976Y-123197952D01*
X144581595Y-123007476D01*
X144629214Y-122912238D01*
X144724452Y-122817000D01*
X144867309Y-122769380D01*
X144962547Y-122769380D01*
X145105404Y-122817000D01*
X145153023Y-122864619D01*
X144914928Y-120959571D02*
X145057785Y-121007190D01*
X145105404Y-121054809D01*
X145153023Y-121150047D01*
X145153023Y-121292904D01*
X145105404Y-121388142D01*
X145057785Y-121435761D01*
X144962547Y-121483380D01*
X144581595Y-121483380D01*
X144581595Y-120483380D01*
X144914928Y-120483380D01*
X145010166Y-120531000D01*
X145057785Y-120578619D01*
X145105404Y-120673857D01*
X145105404Y-120769095D01*
X145057785Y-120864333D01*
X145010166Y-120911952D01*
X144914928Y-120959571D01*
X144581595Y-120959571D01*
X144565714Y-118356071D02*
X144899047Y-118356071D01*
X145041904Y-118879880D02*
X144565714Y-118879880D01*
X144565714Y-117879880D01*
X145041904Y-117879880D01*
D14*
X185809428Y-127448571D02*
X186666571Y-127448571D01*
X186238000Y-128948571D02*
X186238000Y-127448571D01*
X187880857Y-128948571D02*
X187166571Y-128948571D01*
X187166571Y-127448571D01*
X189238000Y-128805714D02*
X189166571Y-128877142D01*
X188952285Y-128948571D01*
X188809428Y-128948571D01*
X188595142Y-128877142D01*
X188452285Y-128734285D01*
X188380857Y-128591428D01*
X188309428Y-128305714D01*
X188309428Y-128091428D01*
X188380857Y-127805714D01*
X188452285Y-127662857D01*
X188595142Y-127520000D01*
X188809428Y-127448571D01*
X188952285Y-127448571D01*
X189166571Y-127520000D01*
X189238000Y-127591428D01*
X189809428Y-127591428D02*
X189880857Y-127520000D01*
X190023714Y-127448571D01*
X190380857Y-127448571D01*
X190523714Y-127520000D01*
X190595142Y-127591428D01*
X190666571Y-127734285D01*
X190666571Y-127877142D01*
X190595142Y-128091428D01*
X189738000Y-128948571D01*
X190666571Y-128948571D01*
X191166571Y-127448571D02*
X192166571Y-127448571D01*
X191523714Y-128948571D01*
X193380857Y-127948571D02*
X193380857Y-128948571D01*
X193023714Y-127377142D02*
X192666571Y-128448571D01*
X193595142Y-128448571D01*
X185428428Y-105223571D02*
X186285571Y-105223571D01*
X185857000Y-106723571D02*
X185857000Y-105223571D01*
X187499857Y-106723571D02*
X186785571Y-106723571D01*
X186785571Y-105223571D01*
X188857000Y-106580714D02*
X188785571Y-106652142D01*
X188571285Y-106723571D01*
X188428428Y-106723571D01*
X188214142Y-106652142D01*
X188071285Y-106509285D01*
X187999857Y-106366428D01*
X187928428Y-106080714D01*
X187928428Y-105866428D01*
X187999857Y-105580714D01*
X188071285Y-105437857D01*
X188214142Y-105295000D01*
X188428428Y-105223571D01*
X188571285Y-105223571D01*
X188785571Y-105295000D01*
X188857000Y-105366428D01*
X189428428Y-105366428D02*
X189499857Y-105295000D01*
X189642714Y-105223571D01*
X189999857Y-105223571D01*
X190142714Y-105295000D01*
X190214142Y-105366428D01*
X190285571Y-105509285D01*
X190285571Y-105652142D01*
X190214142Y-105866428D01*
X189357000Y-106723571D01*
X190285571Y-106723571D01*
X190785571Y-105223571D02*
X191785571Y-105223571D01*
X191142714Y-106723571D01*
X192999857Y-105723571D02*
X192999857Y-106723571D01*
X192642714Y-105152142D02*
X192285571Y-106223571D01*
X193214142Y-106223571D01*
D11*
X188753857Y-108085142D02*
X188753857Y-110513714D01*
X188896714Y-110799428D01*
X189039571Y-110942285D01*
X189325285Y-111085142D01*
X189896714Y-111085142D01*
X190182428Y-110942285D01*
X190325285Y-110799428D01*
X190468142Y-110513714D01*
X190468142Y-108085142D01*
X188372857Y-85669642D02*
X188372857Y-88098214D01*
X188515714Y-88383928D01*
X188658571Y-88526785D01*
X188944285Y-88669642D01*
X189515714Y-88669642D01*
X189801428Y-88526785D01*
X189944285Y-88383928D01*
X190087142Y-88098214D01*
X190087142Y-85669642D01*
X124993542Y-71994685D02*
X127279257Y-71994685D01*
X123723542Y-85202685D02*
X126009257Y-85202685D01*
X124866400Y-86345542D02*
X124866400Y-84059828D01*
D13*
X126579261Y-110426404D02*
X126626880Y-110283547D01*
X126626880Y-110045452D01*
X126579261Y-109950214D01*
X126531642Y-109902595D01*
X126436404Y-109854976D01*
X126341166Y-109854976D01*
X126245928Y-109902595D01*
X126198309Y-109950214D01*
X126150690Y-110045452D01*
X126103071Y-110235928D01*
X126055452Y-110331166D01*
X126007833Y-110378785D01*
X125912595Y-110426404D01*
X125817357Y-110426404D01*
X125722119Y-110378785D01*
X125674500Y-110331166D01*
X125626880Y-110235928D01*
X125626880Y-109997833D01*
X125674500Y-109854976D01*
X126579261Y-109474023D02*
X126626880Y-109331166D01*
X126626880Y-109093071D01*
X126579261Y-108997833D01*
X126531642Y-108950214D01*
X126436404Y-108902595D01*
X126341166Y-108902595D01*
X126245928Y-108950214D01*
X126198309Y-108997833D01*
X126150690Y-109093071D01*
X126103071Y-109283547D01*
X126055452Y-109378785D01*
X126007833Y-109426404D01*
X125912595Y-109474023D01*
X125817357Y-109474023D01*
X125722119Y-109426404D01*
X125674500Y-109378785D01*
X125626880Y-109283547D01*
X125626880Y-109045452D01*
X125674500Y-108902595D01*
X129293880Y-111235928D02*
X128293880Y-111235928D01*
X129008166Y-110902595D01*
X128293880Y-110569261D01*
X129293880Y-110569261D01*
X128293880Y-109902595D02*
X128293880Y-109712119D01*
X128341500Y-109616880D01*
X128436738Y-109521642D01*
X128627214Y-109474023D01*
X128960547Y-109474023D01*
X129151023Y-109521642D01*
X129246261Y-109616880D01*
X129293880Y-109712119D01*
X129293880Y-109902595D01*
X129246261Y-109997833D01*
X129151023Y-110093071D01*
X128960547Y-110140690D01*
X128627214Y-110140690D01*
X128436738Y-110093071D01*
X128341500Y-109997833D01*
X128293880Y-109902595D01*
X129246261Y-109093071D02*
X129293880Y-108950214D01*
X129293880Y-108712119D01*
X129246261Y-108616880D01*
X129198642Y-108569261D01*
X129103404Y-108521642D01*
X129008166Y-108521642D01*
X128912928Y-108569261D01*
X128865309Y-108616880D01*
X128817690Y-108712119D01*
X128770071Y-108902595D01*
X128722452Y-108997833D01*
X128674833Y-109045452D01*
X128579595Y-109093071D01*
X128484357Y-109093071D01*
X128389119Y-109045452D01*
X128341500Y-108997833D01*
X128293880Y-108902595D01*
X128293880Y-108664500D01*
X128341500Y-108521642D01*
X129293880Y-108093071D02*
X128293880Y-108093071D01*
X131706880Y-111235928D02*
X130706880Y-111235928D01*
X131421166Y-110902595D01*
X130706880Y-110569261D01*
X131706880Y-110569261D01*
X131706880Y-110093071D02*
X130706880Y-110093071D01*
X131659261Y-109664500D02*
X131706880Y-109521642D01*
X131706880Y-109283547D01*
X131659261Y-109188309D01*
X131611642Y-109140690D01*
X131516404Y-109093071D01*
X131421166Y-109093071D01*
X131325928Y-109140690D01*
X131278309Y-109188309D01*
X131230690Y-109283547D01*
X131183071Y-109474023D01*
X131135452Y-109569261D01*
X131087833Y-109616880D01*
X130992595Y-109664500D01*
X130897357Y-109664500D01*
X130802119Y-109616880D01*
X130754500Y-109569261D01*
X130706880Y-109474023D01*
X130706880Y-109235928D01*
X130754500Y-109093071D01*
X130706880Y-108474023D02*
X130706880Y-108283547D01*
X130754500Y-108188309D01*
X130849738Y-108093071D01*
X131040214Y-108045452D01*
X131373547Y-108045452D01*
X131564023Y-108093071D01*
X131659261Y-108188309D01*
X131706880Y-108283547D01*
X131706880Y-108474023D01*
X131659261Y-108569261D01*
X131564023Y-108664500D01*
X131373547Y-108712119D01*
X131040214Y-108712119D01*
X130849738Y-108664500D01*
X130754500Y-108569261D01*
X130706880Y-108474023D01*
X134215142Y-110132738D02*
X134262761Y-110180357D01*
X134310380Y-110323214D01*
X134310380Y-110418452D01*
X134262761Y-110561309D01*
X134167523Y-110656547D01*
X134072285Y-110704166D01*
X133881809Y-110751785D01*
X133738952Y-110751785D01*
X133548476Y-110704166D01*
X133453238Y-110656547D01*
X133358000Y-110561309D01*
X133310380Y-110418452D01*
X133310380Y-110323214D01*
X133358000Y-110180357D01*
X133405619Y-110132738D01*
X134310380Y-109227976D02*
X134310380Y-109704166D01*
X133310380Y-109704166D01*
X134310380Y-108894642D02*
X133310380Y-108894642D01*
X134310380Y-108323214D02*
X133738952Y-108751785D01*
X133310380Y-108323214D02*
X133881809Y-108894642D01*
X136929761Y-110918452D02*
X136977380Y-110775595D01*
X136977380Y-110537500D01*
X136929761Y-110442261D01*
X136882142Y-110394642D01*
X136786904Y-110347023D01*
X136691666Y-110347023D01*
X136596428Y-110394642D01*
X136548809Y-110442261D01*
X136501190Y-110537500D01*
X136453571Y-110727976D01*
X136405952Y-110823214D01*
X136358333Y-110870833D01*
X136263095Y-110918452D01*
X136167857Y-110918452D01*
X136072619Y-110870833D01*
X136025000Y-110823214D01*
X135977380Y-110727976D01*
X135977380Y-110489880D01*
X136025000Y-110347023D01*
X137072619Y-109251785D02*
X137025000Y-109347023D01*
X136929761Y-109442261D01*
X136786904Y-109585119D01*
X136739285Y-109680357D01*
X136739285Y-109775595D01*
X136977380Y-109727976D02*
X136929761Y-109823214D01*
X136834523Y-109918452D01*
X136644047Y-109966071D01*
X136310714Y-109966071D01*
X136120238Y-109918452D01*
X136025000Y-109823214D01*
X135977380Y-109727976D01*
X135977380Y-109537500D01*
X136025000Y-109442261D01*
X136120238Y-109347023D01*
X136310714Y-109299404D01*
X136644047Y-109299404D01*
X136834523Y-109347023D01*
X136929761Y-109442261D01*
X136977380Y-109537500D01*
X136977380Y-109727976D01*
X135977380Y-108966071D02*
X136977380Y-108727976D01*
X136263095Y-108537500D01*
X136977380Y-108347023D01*
X135977380Y-108108928D01*
X138390380Y-110870833D02*
X139390380Y-110537500D01*
X138390380Y-110204166D01*
X139295142Y-109299404D02*
X139342761Y-109347023D01*
X139390380Y-109489880D01*
X139390380Y-109585119D01*
X139342761Y-109727976D01*
X139247523Y-109823214D01*
X139152285Y-109870833D01*
X138961809Y-109918452D01*
X138818952Y-109918452D01*
X138628476Y-109870833D01*
X138533238Y-109823214D01*
X138438000Y-109727976D01*
X138390380Y-109585119D01*
X138390380Y-109489880D01*
X138438000Y-109347023D01*
X138485619Y-109299404D01*
X139295142Y-108299404D02*
X139342761Y-108347023D01*
X139390380Y-108489880D01*
X139390380Y-108585119D01*
X139342761Y-108727976D01*
X139247523Y-108823214D01*
X139152285Y-108870833D01*
X138961809Y-108918452D01*
X138818952Y-108918452D01*
X138628476Y-108870833D01*
X138533238Y-108823214D01*
X138438000Y-108727976D01*
X138390380Y-108585119D01*
X138390380Y-108489880D01*
X138438000Y-108347023D01*
X138485619Y-108299404D01*
X141041500Y-110299404D02*
X140993880Y-110394642D01*
X140993880Y-110537500D01*
X141041500Y-110680357D01*
X141136738Y-110775595D01*
X141231976Y-110823214D01*
X141422452Y-110870833D01*
X141565309Y-110870833D01*
X141755785Y-110823214D01*
X141851023Y-110775595D01*
X141946261Y-110680357D01*
X141993880Y-110537500D01*
X141993880Y-110442261D01*
X141946261Y-110299404D01*
X141898642Y-110251785D01*
X141565309Y-110251785D01*
X141565309Y-110442261D01*
X141993880Y-109823214D02*
X140993880Y-109823214D01*
X141993880Y-109251785D01*
X140993880Y-109251785D01*
X141993880Y-108775595D02*
X140993880Y-108775595D01*
X140993880Y-108537500D01*
X141041500Y-108394642D01*
X141136738Y-108299404D01*
X141231976Y-108251785D01*
X141422452Y-108204166D01*
X141565309Y-108204166D01*
X141755785Y-108251785D01*
X141851023Y-108299404D01*
X141946261Y-108394642D01*
X141993880Y-108537500D01*
X141993880Y-108775595D01*
X142343142Y-134024666D02*
X142390761Y-134072285D01*
X142438380Y-134215142D01*
X142438380Y-134310380D01*
X142390761Y-134453238D01*
X142295523Y-134548476D01*
X142200285Y-134596095D01*
X142009809Y-134643714D01*
X141866952Y-134643714D01*
X141676476Y-134596095D01*
X141581238Y-134548476D01*
X141486000Y-134453238D01*
X141438380Y-134310380D01*
X141438380Y-134215142D01*
X141486000Y-134072285D01*
X141533619Y-134024666D01*
X142390761Y-133643714D02*
X142438380Y-133500857D01*
X142438380Y-133262761D01*
X142390761Y-133167523D01*
X142343142Y-133119904D01*
X142247904Y-133072285D01*
X142152666Y-133072285D01*
X142057428Y-133119904D01*
X142009809Y-133167523D01*
X141962190Y-133262761D01*
X141914571Y-133453238D01*
X141866952Y-133548476D01*
X141819333Y-133596095D01*
X141724095Y-133643714D01*
X141628857Y-133643714D01*
X141533619Y-133596095D01*
X141486000Y-133548476D01*
X141438380Y-133453238D01*
X141438380Y-133215142D01*
X141486000Y-133072285D01*
X134707261Y-135143714D02*
X134754880Y-135000857D01*
X134754880Y-134762761D01*
X134707261Y-134667523D01*
X134659642Y-134619904D01*
X134564404Y-134572285D01*
X134469166Y-134572285D01*
X134373928Y-134619904D01*
X134326309Y-134667523D01*
X134278690Y-134762761D01*
X134231071Y-134953238D01*
X134183452Y-135048476D01*
X134135833Y-135096095D01*
X134040595Y-135143714D01*
X133945357Y-135143714D01*
X133850119Y-135096095D01*
X133802500Y-135048476D01*
X133754880Y-134953238D01*
X133754880Y-134715142D01*
X133802500Y-134572285D01*
X134659642Y-133572285D02*
X134707261Y-133619904D01*
X134754880Y-133762761D01*
X134754880Y-133858000D01*
X134707261Y-134000857D01*
X134612023Y-134096095D01*
X134516785Y-134143714D01*
X134326309Y-134191333D01*
X134183452Y-134191333D01*
X133992976Y-134143714D01*
X133897738Y-134096095D01*
X133802500Y-134000857D01*
X133754880Y-133858000D01*
X133754880Y-133762761D01*
X133802500Y-133619904D01*
X133850119Y-133572285D01*
X134754880Y-133143714D02*
X133754880Y-133143714D01*
X134754880Y-132572285D02*
X134183452Y-133000857D01*
X133754880Y-132572285D02*
X134326309Y-133143714D01*
X136421880Y-135191333D02*
X137421880Y-134858000D01*
X136421880Y-134524666D01*
X137326642Y-133619904D02*
X137374261Y-133667523D01*
X137421880Y-133810380D01*
X137421880Y-133905619D01*
X137374261Y-134048476D01*
X137279023Y-134143714D01*
X137183785Y-134191333D01*
X136993309Y-134238952D01*
X136850452Y-134238952D01*
X136659976Y-134191333D01*
X136564738Y-134143714D01*
X136469500Y-134048476D01*
X136421880Y-133905619D01*
X136421880Y-133810380D01*
X136469500Y-133667523D01*
X136517119Y-133619904D01*
X137326642Y-132619904D02*
X137374261Y-132667523D01*
X137421880Y-132810380D01*
X137421880Y-132905619D01*
X137374261Y-133048476D01*
X137279023Y-133143714D01*
X137183785Y-133191333D01*
X136993309Y-133238952D01*
X136850452Y-133238952D01*
X136659976Y-133191333D01*
X136564738Y-133143714D01*
X136469500Y-133048476D01*
X136421880Y-132905619D01*
X136421880Y-132810380D01*
X136469500Y-132667523D01*
X136517119Y-132619904D01*
X139834880Y-134358000D02*
X138834880Y-134358000D01*
X138834880Y-134119904D01*
X138882500Y-133977047D01*
X138977738Y-133881809D01*
X139072976Y-133834190D01*
X139263452Y-133786571D01*
X139406309Y-133786571D01*
X139596785Y-133834190D01*
X139692023Y-133881809D01*
X139787261Y-133977047D01*
X139834880Y-134119904D01*
X139834880Y-134358000D01*
X139834880Y-133358000D02*
X138834880Y-133358000D01*
X131199000Y-134746904D02*
X131151380Y-134842142D01*
X131151380Y-134985000D01*
X131199000Y-135127857D01*
X131294238Y-135223095D01*
X131389476Y-135270714D01*
X131579952Y-135318333D01*
X131722809Y-135318333D01*
X131913285Y-135270714D01*
X132008523Y-135223095D01*
X132103761Y-135127857D01*
X132151380Y-134985000D01*
X132151380Y-134889761D01*
X132103761Y-134746904D01*
X132056142Y-134699285D01*
X131722809Y-134699285D01*
X131722809Y-134889761D01*
X132151380Y-134270714D02*
X131151380Y-134270714D01*
X132151380Y-133699285D01*
X131151380Y-133699285D01*
X132151380Y-133223095D02*
X131151380Y-133223095D01*
X131151380Y-132985000D01*
X131199000Y-132842142D01*
X131294238Y-132746904D01*
X131389476Y-132699285D01*
X131579952Y-132651666D01*
X131722809Y-132651666D01*
X131913285Y-132699285D01*
X132008523Y-132746904D01*
X132103761Y-132842142D01*
X132151380Y-132985000D01*
X132151380Y-133223095D01*
X129738380Y-134770714D02*
X128738380Y-134770714D01*
X128738380Y-134532619D01*
X128786000Y-134389761D01*
X128881238Y-134294523D01*
X128976476Y-134246904D01*
X129166952Y-134199285D01*
X129309809Y-134199285D01*
X129500285Y-134246904D01*
X129595523Y-134294523D01*
X129690761Y-134389761D01*
X129738380Y-134532619D01*
X129738380Y-134770714D01*
X128738380Y-133580238D02*
X128738380Y-133389761D01*
X128786000Y-133294523D01*
X128881238Y-133199285D01*
X129071714Y-133151666D01*
X129405047Y-133151666D01*
X129595523Y-133199285D01*
X129690761Y-133294523D01*
X129738380Y-133389761D01*
X129738380Y-133580238D01*
X129690761Y-133675476D01*
X129595523Y-133770714D01*
X129405047Y-133818333D01*
X129071714Y-133818333D01*
X128881238Y-133770714D01*
X128786000Y-133675476D01*
X128738380Y-133580238D01*
X126976142Y-134175476D02*
X127023761Y-134223095D01*
X127071380Y-134365952D01*
X127071380Y-134461190D01*
X127023761Y-134604047D01*
X126928523Y-134699285D01*
X126833285Y-134746904D01*
X126642809Y-134794523D01*
X126499952Y-134794523D01*
X126309476Y-134746904D01*
X126214238Y-134699285D01*
X126119000Y-134604047D01*
X126071380Y-134461190D01*
X126071380Y-134365952D01*
X126119000Y-134223095D01*
X126166619Y-134175476D01*
X127071380Y-133746904D02*
X126071380Y-133746904D01*
X126071380Y-133508809D01*
X126119000Y-133365952D01*
X126214238Y-133270714D01*
X126309476Y-133223095D01*
X126499952Y-133175476D01*
X126642809Y-133175476D01*
X126833285Y-133223095D01*
X126928523Y-133270714D01*
X127023761Y-133365952D01*
X127071380Y-133508809D01*
X127071380Y-133746904D01*
D11*
X126215214Y-127658642D02*
X126215214Y-124658642D01*
X127215214Y-126801500D01*
X128215214Y-124658642D01*
X128215214Y-127658642D01*
X129643785Y-127658642D02*
X129643785Y-125658642D01*
X129643785Y-124658642D02*
X129500928Y-124801500D01*
X129643785Y-124944357D01*
X129786642Y-124801500D01*
X129643785Y-124658642D01*
X129643785Y-124944357D01*
X132358071Y-127515785D02*
X132072357Y-127658642D01*
X131500928Y-127658642D01*
X131215214Y-127515785D01*
X131072357Y-127372928D01*
X130929500Y-127087214D01*
X130929500Y-126230071D01*
X131072357Y-125944357D01*
X131215214Y-125801500D01*
X131500928Y-125658642D01*
X132072357Y-125658642D01*
X132358071Y-125801500D01*
X133643785Y-127658642D02*
X133643785Y-125658642D01*
X133643785Y-126230071D02*
X133786642Y-125944357D01*
X133929500Y-125801500D01*
X134215214Y-125658642D01*
X134500928Y-125658642D01*
X135929500Y-127658642D02*
X135643785Y-127515785D01*
X135500928Y-127372928D01*
X135358071Y-127087214D01*
X135358071Y-126230071D01*
X135500928Y-125944357D01*
X135643785Y-125801500D01*
X135929500Y-125658642D01*
X136358071Y-125658642D01*
X136643785Y-125801500D01*
X136786642Y-125944357D01*
X136929500Y-126230071D01*
X136929500Y-127087214D01*
X136786642Y-127372928D01*
X136643785Y-127515785D01*
X136358071Y-127658642D01*
X135929500Y-127658642D01*
X138072357Y-127515785D02*
X138500928Y-127658642D01*
X139215214Y-127658642D01*
X139500928Y-127515785D01*
X139643785Y-127372928D01*
X139786642Y-127087214D01*
X139786642Y-126801500D01*
X139643785Y-126515785D01*
X139500928Y-126372928D01*
X139215214Y-126230071D01*
X138643785Y-126087214D01*
X138358071Y-125944357D01*
X138215214Y-125801500D01*
X138072357Y-125515785D01*
X138072357Y-125230071D01*
X138215214Y-124944357D01*
X138358071Y-124801500D01*
X138643785Y-124658642D01*
X139358071Y-124658642D01*
X139786642Y-124801500D01*
X141072357Y-127658642D02*
X141072357Y-124658642D01*
X141786642Y-124658642D01*
X142215214Y-124801500D01*
X142500928Y-125087214D01*
X142643785Y-125372928D01*
X142786642Y-125944357D01*
X142786642Y-126372928D01*
X142643785Y-126944357D01*
X142500928Y-127230071D01*
X142215214Y-127515785D01*
X141786642Y-127658642D01*
X141072357Y-127658642D01*
X131889714Y-103528642D02*
X130889714Y-102100071D01*
X130175428Y-103528642D02*
X130175428Y-100528642D01*
X131318285Y-100528642D01*
X131604000Y-100671500D01*
X131746857Y-100814357D01*
X131889714Y-101100071D01*
X131889714Y-101528642D01*
X131746857Y-101814357D01*
X131604000Y-101957214D01*
X131318285Y-102100071D01*
X130175428Y-102100071D01*
X132746857Y-100528642D02*
X134461142Y-100528642D01*
X133604000Y-103528642D02*
X133604000Y-100528642D01*
X137175428Y-103242928D02*
X137032571Y-103385785D01*
X136604000Y-103528642D01*
X136318285Y-103528642D01*
X135889714Y-103385785D01*
X135604000Y-103100071D01*
X135461142Y-102814357D01*
X135318285Y-102242928D01*
X135318285Y-101814357D01*
X135461142Y-101242928D01*
X135604000Y-100957214D01*
X135889714Y-100671500D01*
X136318285Y-100528642D01*
X136604000Y-100528642D01*
X137032571Y-100671500D01*
X137175428Y-100814357D01*
D13*
X152841485Y-103376361D02*
X152984342Y-103423980D01*
X153222438Y-103423980D01*
X153317676Y-103376361D01*
X153365295Y-103328742D01*
X153412914Y-103233504D01*
X153412914Y-103138266D01*
X153365295Y-103043028D01*
X153317676Y-102995409D01*
X153222438Y-102947790D01*
X153031961Y-102900171D01*
X152936723Y-102852552D01*
X152889104Y-102804933D01*
X152841485Y-102709695D01*
X152841485Y-102614457D01*
X152889104Y-102519219D01*
X152936723Y-102471600D01*
X153031961Y-102423980D01*
X153270057Y-102423980D01*
X153412914Y-102471600D01*
X154412914Y-103328742D02*
X154365295Y-103376361D01*
X154222438Y-103423980D01*
X154127200Y-103423980D01*
X153984342Y-103376361D01*
X153889104Y-103281123D01*
X153841485Y-103185885D01*
X153793866Y-102995409D01*
X153793866Y-102852552D01*
X153841485Y-102662076D01*
X153889104Y-102566838D01*
X153984342Y-102471600D01*
X154127200Y-102423980D01*
X154222438Y-102423980D01*
X154365295Y-102471600D01*
X154412914Y-102519219D01*
X154841485Y-103423980D02*
X154841485Y-102423980D01*
X155412914Y-103423980D02*
X154984342Y-102852552D01*
X155412914Y-102423980D02*
X154841485Y-102995409D01*
X153081219Y-110840780D02*
X153081219Y-109840780D01*
X153319314Y-109840780D01*
X153462171Y-109888400D01*
X153557409Y-109983638D01*
X153605028Y-110078876D01*
X153652647Y-110269352D01*
X153652647Y-110412209D01*
X153605028Y-110602685D01*
X153557409Y-110697923D01*
X153462171Y-110793161D01*
X153319314Y-110840780D01*
X153081219Y-110840780D01*
X154509790Y-110840780D02*
X154509790Y-110316971D01*
X154462171Y-110221733D01*
X154366933Y-110174114D01*
X154176457Y-110174114D01*
X154081219Y-110221733D01*
X154509790Y-110793161D02*
X154414552Y-110840780D01*
X154176457Y-110840780D01*
X154081219Y-110793161D01*
X154033600Y-110697923D01*
X154033600Y-110602685D01*
X154081219Y-110507447D01*
X154176457Y-110459828D01*
X154414552Y-110459828D01*
X154509790Y-110412209D01*
X154843123Y-110174114D02*
X155224076Y-110174114D01*
X154985980Y-109840780D02*
X154985980Y-110697923D01*
X155033600Y-110793161D01*
X155128838Y-110840780D01*
X155224076Y-110840780D01*
X155985980Y-110840780D02*
X155985980Y-110316971D01*
X155938361Y-110221733D01*
X155843123Y-110174114D01*
X155652647Y-110174114D01*
X155557409Y-110221733D01*
X155985980Y-110793161D02*
X155890742Y-110840780D01*
X155652647Y-110840780D01*
X155557409Y-110793161D01*
X155509790Y-110697923D01*
X155509790Y-110602685D01*
X155557409Y-110507447D01*
X155652647Y-110459828D01*
X155890742Y-110459828D01*
X155985980Y-110412209D01*
X152908166Y-104862380D02*
X153241500Y-105862380D01*
X153574833Y-104862380D01*
X154479595Y-105767142D02*
X154431976Y-105814761D01*
X154289119Y-105862380D01*
X154193880Y-105862380D01*
X154051023Y-105814761D01*
X153955785Y-105719523D01*
X153908166Y-105624285D01*
X153860547Y-105433809D01*
X153860547Y-105290952D01*
X153908166Y-105100476D01*
X153955785Y-105005238D01*
X154051023Y-104910000D01*
X154193880Y-104862380D01*
X154289119Y-104862380D01*
X154431976Y-104910000D01*
X154479595Y-104957619D01*
X155479595Y-105767142D02*
X155431976Y-105814761D01*
X155289119Y-105862380D01*
X155193880Y-105862380D01*
X155051023Y-105814761D01*
X154955785Y-105719523D01*
X154908166Y-105624285D01*
X154860547Y-105433809D01*
X154860547Y-105290952D01*
X154908166Y-105100476D01*
X154955785Y-105005238D01*
X155051023Y-104910000D01*
X155193880Y-104862380D01*
X155289119Y-104862380D01*
X155431976Y-104910000D01*
X155479595Y-104957619D01*
X153568495Y-107348400D02*
X153473257Y-107300780D01*
X153330400Y-107300780D01*
X153187542Y-107348400D01*
X153092304Y-107443638D01*
X153044685Y-107538876D01*
X152997066Y-107729352D01*
X152997066Y-107872209D01*
X153044685Y-108062685D01*
X153092304Y-108157923D01*
X153187542Y-108253161D01*
X153330400Y-108300780D01*
X153425638Y-108300780D01*
X153568495Y-108253161D01*
X153616114Y-108205542D01*
X153616114Y-107872209D01*
X153425638Y-107872209D01*
X154044685Y-108300780D02*
X154044685Y-107300780D01*
X154616114Y-108300780D01*
X154616114Y-107300780D01*
X155092304Y-108300780D02*
X155092304Y-107300780D01*
X155330400Y-107300780D01*
X155473257Y-107348400D01*
X155568495Y-107443638D01*
X155616114Y-107538876D01*
X155663733Y-107729352D01*
X155663733Y-107872209D01*
X155616114Y-108062685D01*
X155568495Y-108157923D01*
X155473257Y-108253161D01*
X155330400Y-108300780D01*
X155092304Y-108300780D01*
D11*
X148280285Y-112600571D02*
X148423142Y-112172000D01*
X148423142Y-111457714D01*
X148280285Y-111172000D01*
X148137428Y-111029142D01*
X147851714Y-110886285D01*
X147566000Y-110886285D01*
X147280285Y-111029142D01*
X147137428Y-111172000D01*
X146994571Y-111457714D01*
X146851714Y-112029142D01*
X146708857Y-112314857D01*
X146566000Y-112457714D01*
X146280285Y-112600571D01*
X145994571Y-112600571D01*
X145708857Y-112457714D01*
X145566000Y-112314857D01*
X145423142Y-112029142D01*
X145423142Y-111314857D01*
X145566000Y-110886285D01*
X148423142Y-109600571D02*
X145423142Y-109600571D01*
X146851714Y-109600571D02*
X146851714Y-107886285D01*
X148423142Y-107886285D02*
X145423142Y-107886285D01*
X145423142Y-106886285D02*
X145423142Y-105172000D01*
X148423142Y-106029142D02*
X145423142Y-106029142D01*
X145423142Y-104457714D02*
X145423142Y-102457714D01*
X148423142Y-103743428D01*
X148423142Y-99743428D02*
X148423142Y-101457714D01*
X148423142Y-100600571D02*
X145423142Y-100600571D01*
X145851714Y-100886285D01*
X146137428Y-101172000D01*
X146280285Y-101457714D01*
X243933600Y-127263257D02*
X243933600Y-125834685D01*
X244790742Y-127548971D02*
X241790742Y-126548971D01*
X244790742Y-125548971D01*
X242790742Y-123263257D02*
X244790742Y-123263257D01*
X241647885Y-123977542D02*
X243790742Y-124691828D01*
X243790742Y-122834685D01*
X233316400Y-127161657D02*
X233316400Y-125733085D01*
X234173542Y-127447371D02*
X231173542Y-126447371D01*
X234173542Y-125447371D01*
X231173542Y-124733085D02*
X231173542Y-122875942D01*
X232316400Y-123875942D01*
X232316400Y-123447371D01*
X232459257Y-123161657D01*
X232602114Y-123018800D01*
X232887828Y-122875942D01*
X233602114Y-122875942D01*
X233887828Y-123018800D01*
X234030685Y-123161657D01*
X234173542Y-123447371D01*
X234173542Y-124304514D01*
X234030685Y-124590228D01*
X233887828Y-124733085D01*
X220616400Y-127161657D02*
X220616400Y-125733085D01*
X221473542Y-127447371D02*
X218473542Y-126447371D01*
X221473542Y-125447371D01*
X218759257Y-124590228D02*
X218616400Y-124447371D01*
X218473542Y-124161657D01*
X218473542Y-123447371D01*
X218616400Y-123161657D01*
X218759257Y-123018800D01*
X219044971Y-122875942D01*
X219330685Y-122875942D01*
X219759257Y-123018800D01*
X221473542Y-124733085D01*
X221473542Y-122875942D01*
X209034000Y-127110857D02*
X209034000Y-125682285D01*
X209891142Y-127396571D02*
X206891142Y-126396571D01*
X209891142Y-125396571D01*
X209891142Y-122825142D02*
X209891142Y-124539428D01*
X209891142Y-123682285D02*
X206891142Y-123682285D01*
X207319714Y-123968000D01*
X207605428Y-124253714D01*
X207748285Y-124539428D01*
X244784500Y-90407857D02*
X244784500Y-88979285D01*
X245641642Y-90693571D02*
X242641642Y-89693571D01*
X245641642Y-88693571D01*
X242641642Y-87122142D02*
X242641642Y-86836428D01*
X242784500Y-86550714D01*
X242927357Y-86407857D01*
X243213071Y-86265000D01*
X243784500Y-86122142D01*
X244498785Y-86122142D01*
X245070214Y-86265000D01*
X245355928Y-86407857D01*
X245498785Y-86550714D01*
X245641642Y-86836428D01*
X245641642Y-87122142D01*
X245498785Y-87407857D01*
X245355928Y-87550714D01*
X245070214Y-87693571D01*
X244498785Y-87836428D01*
X243784500Y-87836428D01*
X243213071Y-87693571D01*
X242927357Y-87550714D01*
X242784500Y-87407857D01*
X242641642Y-87122142D01*
X221035500Y-90471357D02*
X221035500Y-89042785D01*
X221892642Y-90757071D02*
X218892642Y-89757071D01*
X221892642Y-88757071D01*
X218892642Y-86471357D02*
X218892642Y-87042785D01*
X219035500Y-87328500D01*
X219178357Y-87471357D01*
X219606928Y-87757071D01*
X220178357Y-87899928D01*
X221321214Y-87899928D01*
X221606928Y-87757071D01*
X221749785Y-87614214D01*
X221892642Y-87328500D01*
X221892642Y-86757071D01*
X221749785Y-86471357D01*
X221606928Y-86328500D01*
X221321214Y-86185642D01*
X220606928Y-86185642D01*
X220321214Y-86328500D01*
X220178357Y-86471357D01*
X220035500Y-86757071D01*
X220035500Y-87328500D01*
X220178357Y-87614214D01*
X220321214Y-87757071D01*
X220606928Y-87899928D01*
X209097500Y-90407857D02*
X209097500Y-88979285D01*
X209954642Y-90693571D02*
X206954642Y-89693571D01*
X209954642Y-88693571D01*
X206954642Y-86265000D02*
X206954642Y-87693571D01*
X208383214Y-87836428D01*
X208240357Y-87693571D01*
X208097500Y-87407857D01*
X208097500Y-86693571D01*
X208240357Y-86407857D01*
X208383214Y-86265000D01*
X208668928Y-86122142D01*
X209383214Y-86122142D01*
X209668928Y-86265000D01*
X209811785Y-86407857D01*
X209954642Y-86693571D01*
X209954642Y-87407857D01*
X209811785Y-87693571D01*
X209668928Y-87836428D01*
D10*
X125882384Y-69240400D02*
X235153955Y-69240400D01*
X125882400Y-69240400D02*
X123240800Y-71932800D01*
X123240800Y-150114000D02*
X123240800Y-71932800D01*
X125018800Y-151892000D02*
X123240800Y-150114000D01*
X234238906Y-151892000D02*
X125018800Y-151892000D01*
X234238800Y-140206234D02*
X234238800Y-151892000D01*
X246227600Y-74930000D02*
X246227600Y-139496979D01*
X235153200Y-69240400D02*
X235153200Y-74066400D01*
D15*
%TO.C,*%
%TO.C,J4*%
X150288666Y-99865380D02*
X150288666Y-100579666D01*
X150241047Y-100722523D01*
X150145809Y-100817761D01*
X150002952Y-100865380D01*
X149907714Y-100865380D01*
X151193428Y-100198714D02*
X151193428Y-100865380D01*
X150955333Y-99817761D02*
X150717238Y-100532047D01*
X151336285Y-100532047D01*
D16*
%TO.C,IC1*%
X170796047Y-77704904D02*
X170796047Y-76904904D01*
X171634142Y-77628714D02*
X171596047Y-77666809D01*
X171481761Y-77704904D01*
X171405571Y-77704904D01*
X171291285Y-77666809D01*
X171215095Y-77590619D01*
X171177000Y-77514428D01*
X171138904Y-77362047D01*
X171138904Y-77247761D01*
X171177000Y-77095380D01*
X171215095Y-77019190D01*
X171291285Y-76943000D01*
X171405571Y-76904904D01*
X171481761Y-76904904D01*
X171596047Y-76943000D01*
X171634142Y-76981095D01*
X172396047Y-77704904D02*
X171938904Y-77704904D01*
X172167476Y-77704904D02*
X172167476Y-76904904D01*
X172091285Y-77019190D01*
X172015095Y-77095380D01*
X171938904Y-77133476D01*
D15*
%TO.C,*%
%TO.C,J1*%
X128433580Y-72215333D02*
X129147866Y-72215333D01*
X129290723Y-72262952D01*
X129385961Y-72358190D01*
X129433580Y-72501047D01*
X129433580Y-72596285D01*
X129433580Y-71215333D02*
X129433580Y-71786761D01*
X129433580Y-71501047D02*
X128433580Y-71501047D01*
X128576438Y-71596285D01*
X128671676Y-71691523D01*
X128719295Y-71786761D01*
%TO.C,J2*%
X123868380Y-130889333D02*
X124582666Y-130889333D01*
X124725523Y-130936952D01*
X124820761Y-131032190D01*
X124868380Y-131175047D01*
X124868380Y-131270285D01*
X123963619Y-130460761D02*
X123916000Y-130413142D01*
X123868380Y-130317904D01*
X123868380Y-130079809D01*
X123916000Y-129984571D01*
X123963619Y-129936952D01*
X124058857Y-129889333D01*
X124154095Y-129889333D01*
X124296952Y-129936952D01*
X124868380Y-130508380D01*
X124868380Y-129889333D01*
%TO.C,J3*%
X124166380Y-103914533D02*
X124880666Y-103914533D01*
X125023523Y-103962152D01*
X125118761Y-104057390D01*
X125166380Y-104200247D01*
X125166380Y-104295485D01*
X124166380Y-103533580D02*
X124166380Y-102914533D01*
X124547333Y-103247866D01*
X124547333Y-103105009D01*
X124594952Y-103009771D01*
X124642571Y-102962152D01*
X124737809Y-102914533D01*
X124975904Y-102914533D01*
X125071142Y-102962152D01*
X125118761Y-103009771D01*
X125166380Y-103105009D01*
X125166380Y-103390723D01*
X125118761Y-103485961D01*
X125071142Y-103533580D01*
%TO.C,Q1*%
X152316619Y-120872238D02*
X152269000Y-120967476D01*
X152173761Y-121062714D01*
X152030904Y-121205571D01*
X151983285Y-121300809D01*
X151983285Y-121396047D01*
X152221380Y-121348428D02*
X152173761Y-121443666D01*
X152078523Y-121538904D01*
X151888047Y-121586523D01*
X151554714Y-121586523D01*
X151364238Y-121538904D01*
X151269000Y-121443666D01*
X151221380Y-121348428D01*
X151221380Y-121157952D01*
X151269000Y-121062714D01*
X151364238Y-120967476D01*
X151554714Y-120919857D01*
X151888047Y-120919857D01*
X152078523Y-120967476D01*
X152173761Y-121062714D01*
X152221380Y-121157952D01*
X152221380Y-121348428D01*
X152221380Y-119967476D02*
X152221380Y-120538904D01*
X152221380Y-120253190D02*
X151221380Y-120253190D01*
X151364238Y-120348428D01*
X151459476Y-120443666D01*
X151507095Y-120538904D01*
%TO.C,Q2*%
X161452619Y-73247238D02*
X161405000Y-73342476D01*
X161309761Y-73437714D01*
X161166904Y-73580571D01*
X161119285Y-73675809D01*
X161119285Y-73771047D01*
X161357380Y-73723428D02*
X161309761Y-73818666D01*
X161214523Y-73913904D01*
X161024047Y-73961523D01*
X160690714Y-73961523D01*
X160500238Y-73913904D01*
X160405000Y-73818666D01*
X160357380Y-73723428D01*
X160357380Y-73532952D01*
X160405000Y-73437714D01*
X160500238Y-73342476D01*
X160690714Y-73294857D01*
X161024047Y-73294857D01*
X161214523Y-73342476D01*
X161309761Y-73437714D01*
X161357380Y-73532952D01*
X161357380Y-73723428D01*
X160452619Y-72913904D02*
X160405000Y-72866285D01*
X160357380Y-72771047D01*
X160357380Y-72532952D01*
X160405000Y-72437714D01*
X160452619Y-72390095D01*
X160547857Y-72342476D01*
X160643095Y-72342476D01*
X160785952Y-72390095D01*
X161357380Y-72961523D01*
X161357380Y-72342476D01*
%TO.C,R1*%
X160488333Y-123539380D02*
X160155000Y-123063190D01*
X159916904Y-123539380D02*
X159916904Y-122539380D01*
X160297857Y-122539380D01*
X160393095Y-122587000D01*
X160440714Y-122634619D01*
X160488333Y-122729857D01*
X160488333Y-122872714D01*
X160440714Y-122967952D01*
X160393095Y-123015571D01*
X160297857Y-123063190D01*
X159916904Y-123063190D01*
X161440714Y-123539380D02*
X160869285Y-123539380D01*
X161155000Y-123539380D02*
X161155000Y-122539380D01*
X161059761Y-122682238D01*
X160964523Y-122777476D01*
X160869285Y-122825095D01*
%TO.C,R2*%
X153503333Y-76676380D02*
X153170000Y-76200190D01*
X152931904Y-76676380D02*
X152931904Y-75676380D01*
X153312857Y-75676380D01*
X153408095Y-75724000D01*
X153455714Y-75771619D01*
X153503333Y-75866857D01*
X153503333Y-76009714D01*
X153455714Y-76104952D01*
X153408095Y-76152571D01*
X153312857Y-76200190D01*
X152931904Y-76200190D01*
X153884285Y-75771619D02*
X153931904Y-75724000D01*
X154027142Y-75676380D01*
X154265238Y-75676380D01*
X154360476Y-75724000D01*
X154408095Y-75771619D01*
X154455714Y-75866857D01*
X154455714Y-75962095D01*
X154408095Y-76104952D01*
X153836666Y-76676380D01*
X154455714Y-76676380D01*
%TO.C,R3*%
X228600333Y-140845380D02*
X228267000Y-140369190D01*
X228028904Y-140845380D02*
X228028904Y-139845380D01*
X228409857Y-139845380D01*
X228505095Y-139893000D01*
X228552714Y-139940619D01*
X228600333Y-140035857D01*
X228600333Y-140178714D01*
X228552714Y-140273952D01*
X228505095Y-140321571D01*
X228409857Y-140369190D01*
X228028904Y-140369190D01*
X228933666Y-139845380D02*
X229552714Y-139845380D01*
X229219380Y-140226333D01*
X229362238Y-140226333D01*
X229457476Y-140273952D01*
X229505095Y-140321571D01*
X229552714Y-140416809D01*
X229552714Y-140654904D01*
X229505095Y-140750142D01*
X229457476Y-140797761D01*
X229362238Y-140845380D01*
X229076523Y-140845380D01*
X228981285Y-140797761D01*
X228933666Y-140750142D01*
%TO.C,R4*%
X240726933Y-138425180D02*
X240393600Y-137948990D01*
X240155504Y-138425180D02*
X240155504Y-137425180D01*
X240536457Y-137425180D01*
X240631695Y-137472800D01*
X240679314Y-137520419D01*
X240726933Y-137615657D01*
X240726933Y-137758514D01*
X240679314Y-137853752D01*
X240631695Y-137901371D01*
X240536457Y-137948990D01*
X240155504Y-137948990D01*
X241584076Y-137758514D02*
X241584076Y-138425180D01*
X241345980Y-137377561D02*
X241107885Y-138091847D01*
X241726933Y-138091847D01*
%TO.C,R5*%
X204724333Y-140845380D02*
X204391000Y-140369190D01*
X204152904Y-140845380D02*
X204152904Y-139845380D01*
X204533857Y-139845380D01*
X204629095Y-139893000D01*
X204676714Y-139940619D01*
X204724333Y-140035857D01*
X204724333Y-140178714D01*
X204676714Y-140273952D01*
X204629095Y-140321571D01*
X204533857Y-140369190D01*
X204152904Y-140369190D01*
X205629095Y-139845380D02*
X205152904Y-139845380D01*
X205105285Y-140321571D01*
X205152904Y-140273952D01*
X205248142Y-140226333D01*
X205486238Y-140226333D01*
X205581476Y-140273952D01*
X205629095Y-140321571D01*
X205676714Y-140416809D01*
X205676714Y-140654904D01*
X205629095Y-140750142D01*
X205581476Y-140797761D01*
X205486238Y-140845380D01*
X205248142Y-140845380D01*
X205152904Y-140797761D01*
X205105285Y-140750142D01*
%TO.C,R6*%
X216535333Y-141035880D02*
X216202000Y-140559690D01*
X215963904Y-141035880D02*
X215963904Y-140035880D01*
X216344857Y-140035880D01*
X216440095Y-140083500D01*
X216487714Y-140131119D01*
X216535333Y-140226357D01*
X216535333Y-140369214D01*
X216487714Y-140464452D01*
X216440095Y-140512071D01*
X216344857Y-140559690D01*
X215963904Y-140559690D01*
X217392476Y-140035880D02*
X217202000Y-140035880D01*
X217106761Y-140083500D01*
X217059142Y-140131119D01*
X216963904Y-140273976D01*
X216916285Y-140464452D01*
X216916285Y-140845404D01*
X216963904Y-140940642D01*
X217011523Y-140988261D01*
X217106761Y-141035880D01*
X217297238Y-141035880D01*
X217392476Y-140988261D01*
X217440095Y-140940642D01*
X217487714Y-140845404D01*
X217487714Y-140607309D01*
X217440095Y-140512071D01*
X217392476Y-140464452D01*
X217297238Y-140416833D01*
X217106761Y-140416833D01*
X217011523Y-140464452D01*
X216963904Y-140512071D01*
X216916285Y-140607309D01*
%TO.C,R7*%
X223249880Y-120435666D02*
X222773690Y-120769000D01*
X223249880Y-121007095D02*
X222249880Y-121007095D01*
X222249880Y-120626142D01*
X222297500Y-120530904D01*
X222345119Y-120483285D01*
X222440357Y-120435666D01*
X222583214Y-120435666D01*
X222678452Y-120483285D01*
X222726071Y-120530904D01*
X222773690Y-120626142D01*
X222773690Y-121007095D01*
X222249880Y-120102333D02*
X222249880Y-119435666D01*
X223249880Y-119864238D01*
%TO.C,R8*%
X199437380Y-120562666D02*
X198961190Y-120896000D01*
X199437380Y-121134095D02*
X198437380Y-121134095D01*
X198437380Y-120753142D01*
X198485000Y-120657904D01*
X198532619Y-120610285D01*
X198627857Y-120562666D01*
X198770714Y-120562666D01*
X198865952Y-120610285D01*
X198913571Y-120657904D01*
X198961190Y-120753142D01*
X198961190Y-121134095D01*
X198865952Y-119991238D02*
X198818333Y-120086476D01*
X198770714Y-120134095D01*
X198675476Y-120181714D01*
X198627857Y-120181714D01*
X198532619Y-120134095D01*
X198485000Y-120086476D01*
X198437380Y-119991238D01*
X198437380Y-119800761D01*
X198485000Y-119705523D01*
X198532619Y-119657904D01*
X198627857Y-119610285D01*
X198675476Y-119610285D01*
X198770714Y-119657904D01*
X198818333Y-119705523D01*
X198865952Y-119800761D01*
X198865952Y-119991238D01*
X198913571Y-120086476D01*
X198961190Y-120134095D01*
X199056428Y-120181714D01*
X199246904Y-120181714D01*
X199342142Y-120134095D01*
X199389761Y-120086476D01*
X199437380Y-119991238D01*
X199437380Y-119800761D01*
X199389761Y-119705523D01*
X199342142Y-119657904D01*
X199246904Y-119610285D01*
X199056428Y-119610285D01*
X198961190Y-119657904D01*
X198913571Y-119705523D01*
X198865952Y-119800761D01*
%TO.C,R9*%
X211311880Y-120499166D02*
X210835690Y-120832500D01*
X211311880Y-121070595D02*
X210311880Y-121070595D01*
X210311880Y-120689642D01*
X210359500Y-120594404D01*
X210407119Y-120546785D01*
X210502357Y-120499166D01*
X210645214Y-120499166D01*
X210740452Y-120546785D01*
X210788071Y-120594404D01*
X210835690Y-120689642D01*
X210835690Y-121070595D01*
X211311880Y-120022976D02*
X211311880Y-119832500D01*
X211264261Y-119737261D01*
X211216642Y-119689642D01*
X211073785Y-119594404D01*
X210883309Y-119546785D01*
X210502357Y-119546785D01*
X210407119Y-119594404D01*
X210359500Y-119642023D01*
X210311880Y-119737261D01*
X210311880Y-119927738D01*
X210359500Y-120022976D01*
X210407119Y-120070595D01*
X210502357Y-120118214D01*
X210740452Y-120118214D01*
X210835690Y-120070595D01*
X210883309Y-120022976D01*
X210930928Y-119927738D01*
X210930928Y-119737261D01*
X210883309Y-119642023D01*
X210835690Y-119594404D01*
X210740452Y-119546785D01*
%TO.C,R10*%
X235378380Y-120975357D02*
X234902190Y-121308690D01*
X235378380Y-121546785D02*
X234378380Y-121546785D01*
X234378380Y-121165833D01*
X234426000Y-121070595D01*
X234473619Y-121022976D01*
X234568857Y-120975357D01*
X234711714Y-120975357D01*
X234806952Y-121022976D01*
X234854571Y-121070595D01*
X234902190Y-121165833D01*
X234902190Y-121546785D01*
X235378380Y-120022976D02*
X235378380Y-120594404D01*
X235378380Y-120308690D02*
X234378380Y-120308690D01*
X234521238Y-120403928D01*
X234616476Y-120499166D01*
X234664095Y-120594404D01*
X234378380Y-119403928D02*
X234378380Y-119308690D01*
X234426000Y-119213452D01*
X234473619Y-119165833D01*
X234568857Y-119118214D01*
X234759333Y-119070595D01*
X234997428Y-119070595D01*
X235187904Y-119118214D01*
X235283142Y-119165833D01*
X235330761Y-119213452D01*
X235378380Y-119308690D01*
X235378380Y-119403928D01*
X235330761Y-119499166D01*
X235283142Y-119546785D01*
X235187904Y-119594404D01*
X234997428Y-119642023D01*
X234759333Y-119642023D01*
X234568857Y-119594404D01*
X234473619Y-119546785D01*
X234426000Y-119499166D01*
X234378380Y-119403928D01*
%TO.C,R11*%
X228124142Y-86870380D02*
X227790809Y-86394190D01*
X227552714Y-86870380D02*
X227552714Y-85870380D01*
X227933666Y-85870380D01*
X228028904Y-85918000D01*
X228076523Y-85965619D01*
X228124142Y-86060857D01*
X228124142Y-86203714D01*
X228076523Y-86298952D01*
X228028904Y-86346571D01*
X227933666Y-86394190D01*
X227552714Y-86394190D01*
X229076523Y-86870380D02*
X228505095Y-86870380D01*
X228790809Y-86870380D02*
X228790809Y-85870380D01*
X228695571Y-86013238D01*
X228600333Y-86108476D01*
X228505095Y-86156095D01*
X230028904Y-86870380D02*
X229457476Y-86870380D01*
X229743190Y-86870380D02*
X229743190Y-85870380D01*
X229647952Y-86013238D01*
X229552714Y-86108476D01*
X229457476Y-86156095D01*
%TO.C,R12*%
X204121142Y-86997380D02*
X203787809Y-86521190D01*
X203549714Y-86997380D02*
X203549714Y-85997380D01*
X203930666Y-85997380D01*
X204025904Y-86045000D01*
X204073523Y-86092619D01*
X204121142Y-86187857D01*
X204121142Y-86330714D01*
X204073523Y-86425952D01*
X204025904Y-86473571D01*
X203930666Y-86521190D01*
X203549714Y-86521190D01*
X205073523Y-86997380D02*
X204502095Y-86997380D01*
X204787809Y-86997380D02*
X204787809Y-85997380D01*
X204692571Y-86140238D01*
X204597333Y-86235476D01*
X204502095Y-86283095D01*
X205454476Y-86092619D02*
X205502095Y-86045000D01*
X205597333Y-85997380D01*
X205835428Y-85997380D01*
X205930666Y-86045000D01*
X205978285Y-86092619D01*
X206025904Y-86187857D01*
X206025904Y-86283095D01*
X205978285Y-86425952D01*
X205406857Y-86997380D01*
X206025904Y-86997380D01*
%TO.C,R13*%
X216186142Y-86933880D02*
X215852809Y-86457690D01*
X215614714Y-86933880D02*
X215614714Y-85933880D01*
X215995666Y-85933880D01*
X216090904Y-85981500D01*
X216138523Y-86029119D01*
X216186142Y-86124357D01*
X216186142Y-86267214D01*
X216138523Y-86362452D01*
X216090904Y-86410071D01*
X215995666Y-86457690D01*
X215614714Y-86457690D01*
X217138523Y-86933880D02*
X216567095Y-86933880D01*
X216852809Y-86933880D02*
X216852809Y-85933880D01*
X216757571Y-86076738D01*
X216662333Y-86171976D01*
X216567095Y-86219595D01*
X217471857Y-85933880D02*
X218090904Y-85933880D01*
X217757571Y-86314833D01*
X217900428Y-86314833D01*
X217995666Y-86362452D01*
X218043285Y-86410071D01*
X218090904Y-86505309D01*
X218090904Y-86743404D01*
X218043285Y-86838642D01*
X217995666Y-86886261D01*
X217900428Y-86933880D01*
X217614714Y-86933880D01*
X217519476Y-86886261D01*
X217471857Y-86838642D01*
%TO.C,R14*%
X240172642Y-86933880D02*
X239839309Y-86457690D01*
X239601214Y-86933880D02*
X239601214Y-85933880D01*
X239982166Y-85933880D01*
X240077404Y-85981500D01*
X240125023Y-86029119D01*
X240172642Y-86124357D01*
X240172642Y-86267214D01*
X240125023Y-86362452D01*
X240077404Y-86410071D01*
X239982166Y-86457690D01*
X239601214Y-86457690D01*
X241125023Y-86933880D02*
X240553595Y-86933880D01*
X240839309Y-86933880D02*
X240839309Y-85933880D01*
X240744071Y-86076738D01*
X240648833Y-86171976D01*
X240553595Y-86219595D01*
X241982166Y-86267214D02*
X241982166Y-86933880D01*
X241744071Y-85886261D02*
X241505976Y-86600547D01*
X242125023Y-86600547D01*
%TO.C,R15*%
X227996880Y-95067357D02*
X227520690Y-95400690D01*
X227996880Y-95638785D02*
X226996880Y-95638785D01*
X226996880Y-95257833D01*
X227044500Y-95162595D01*
X227092119Y-95114976D01*
X227187357Y-95067357D01*
X227330214Y-95067357D01*
X227425452Y-95114976D01*
X227473071Y-95162595D01*
X227520690Y-95257833D01*
X227520690Y-95638785D01*
X227996880Y-94114976D02*
X227996880Y-94686404D01*
X227996880Y-94400690D02*
X226996880Y-94400690D01*
X227139738Y-94495928D01*
X227234976Y-94591166D01*
X227282595Y-94686404D01*
X226996880Y-93210214D02*
X226996880Y-93686404D01*
X227473071Y-93734023D01*
X227425452Y-93686404D01*
X227377833Y-93591166D01*
X227377833Y-93353071D01*
X227425452Y-93257833D01*
X227473071Y-93210214D01*
X227568309Y-93162595D01*
X227806404Y-93162595D01*
X227901642Y-93210214D01*
X227949261Y-93257833D01*
X227996880Y-93353071D01*
X227996880Y-93591166D01*
X227949261Y-93686404D01*
X227901642Y-93734023D01*
%TO.C,R16*%
X204120880Y-95194357D02*
X203644690Y-95527690D01*
X204120880Y-95765785D02*
X203120880Y-95765785D01*
X203120880Y-95384833D01*
X203168500Y-95289595D01*
X203216119Y-95241976D01*
X203311357Y-95194357D01*
X203454214Y-95194357D01*
X203549452Y-95241976D01*
X203597071Y-95289595D01*
X203644690Y-95384833D01*
X203644690Y-95765785D01*
X204120880Y-94241976D02*
X204120880Y-94813404D01*
X204120880Y-94527690D02*
X203120880Y-94527690D01*
X203263738Y-94622928D01*
X203358976Y-94718166D01*
X203406595Y-94813404D01*
X203120880Y-93384833D02*
X203120880Y-93575309D01*
X203168500Y-93670547D01*
X203216119Y-93718166D01*
X203358976Y-93813404D01*
X203549452Y-93861023D01*
X203930404Y-93861023D01*
X204025642Y-93813404D01*
X204073261Y-93765785D01*
X204120880Y-93670547D01*
X204120880Y-93480071D01*
X204073261Y-93384833D01*
X204025642Y-93337214D01*
X203930404Y-93289595D01*
X203692309Y-93289595D01*
X203597071Y-93337214D01*
X203549452Y-93384833D01*
X203501833Y-93480071D01*
X203501833Y-93670547D01*
X203549452Y-93765785D01*
X203597071Y-93813404D01*
X203692309Y-93861023D01*
%TO.C,R17*%
X215995380Y-95130857D02*
X215519190Y-95464190D01*
X215995380Y-95702285D02*
X214995380Y-95702285D01*
X214995380Y-95321333D01*
X215043000Y-95226095D01*
X215090619Y-95178476D01*
X215185857Y-95130857D01*
X215328714Y-95130857D01*
X215423952Y-95178476D01*
X215471571Y-95226095D01*
X215519190Y-95321333D01*
X215519190Y-95702285D01*
X215995380Y-94178476D02*
X215995380Y-94749904D01*
X215995380Y-94464190D02*
X214995380Y-94464190D01*
X215138238Y-94559428D01*
X215233476Y-94654666D01*
X215281095Y-94749904D01*
X214995380Y-93845142D02*
X214995380Y-93178476D01*
X215995380Y-93607047D01*
%TO.C,R18*%
X239998380Y-95067357D02*
X239522190Y-95400690D01*
X239998380Y-95638785D02*
X238998380Y-95638785D01*
X238998380Y-95257833D01*
X239046000Y-95162595D01*
X239093619Y-95114976D01*
X239188857Y-95067357D01*
X239331714Y-95067357D01*
X239426952Y-95114976D01*
X239474571Y-95162595D01*
X239522190Y-95257833D01*
X239522190Y-95638785D01*
X239998380Y-94114976D02*
X239998380Y-94686404D01*
X239998380Y-94400690D02*
X238998380Y-94400690D01*
X239141238Y-94495928D01*
X239236476Y-94591166D01*
X239284095Y-94686404D01*
X239426952Y-93543547D02*
X239379333Y-93638785D01*
X239331714Y-93686404D01*
X239236476Y-93734023D01*
X239188857Y-93734023D01*
X239093619Y-93686404D01*
X239046000Y-93638785D01*
X238998380Y-93543547D01*
X238998380Y-93353071D01*
X239046000Y-93257833D01*
X239093619Y-93210214D01*
X239188857Y-93162595D01*
X239236476Y-93162595D01*
X239331714Y-93210214D01*
X239379333Y-93257833D01*
X239426952Y-93353071D01*
X239426952Y-93543547D01*
X239474571Y-93638785D01*
X239522190Y-93686404D01*
X239617428Y-93734023D01*
X239807904Y-93734023D01*
X239903142Y-93686404D01*
X239950761Y-93638785D01*
X239998380Y-93543547D01*
X239998380Y-93353071D01*
X239950761Y-93257833D01*
X239903142Y-93210214D01*
X239807904Y-93162595D01*
X239617428Y-93162595D01*
X239522190Y-93210214D01*
X239474571Y-93257833D01*
X239426952Y-93353071D01*
%TO.C,U1*%
X191643095Y-107211880D02*
X191643095Y-108021404D01*
X191690714Y-108116642D01*
X191738333Y-108164261D01*
X191833571Y-108211880D01*
X192024047Y-108211880D01*
X192119285Y-108164261D01*
X192166904Y-108116642D01*
X192214523Y-108021404D01*
X192214523Y-107211880D01*
X193214523Y-108211880D02*
X192643095Y-108211880D01*
X192928809Y-108211880D02*
X192928809Y-107211880D01*
X192833571Y-107354738D01*
X192738333Y-107449976D01*
X192643095Y-107497595D01*
%TO.C,U2*%
X192151095Y-85177380D02*
X192151095Y-85986904D01*
X192198714Y-86082142D01*
X192246333Y-86129761D01*
X192341571Y-86177380D01*
X192532047Y-86177380D01*
X192627285Y-86129761D01*
X192674904Y-86082142D01*
X192722523Y-85986904D01*
X192722523Y-85177380D01*
X193151095Y-85272619D02*
X193198714Y-85225000D01*
X193293952Y-85177380D01*
X193532047Y-85177380D01*
X193627285Y-85225000D01*
X193674904Y-85272619D01*
X193722523Y-85367857D01*
X193722523Y-85463095D01*
X193674904Y-85605952D01*
X193103476Y-86177380D01*
X193722523Y-86177380D01*
%TO.C,U3*%
X130937095Y-91400380D02*
X130937095Y-92209904D01*
X130984714Y-92305142D01*
X131032333Y-92352761D01*
X131127571Y-92400380D01*
X131318047Y-92400380D01*
X131413285Y-92352761D01*
X131460904Y-92305142D01*
X131508523Y-92209904D01*
X131508523Y-91400380D01*
X131889476Y-91400380D02*
X132508523Y-91400380D01*
X132175190Y-91781333D01*
X132318047Y-91781333D01*
X132413285Y-91828952D01*
X132460904Y-91876571D01*
X132508523Y-91971809D01*
X132508523Y-92209904D01*
X132460904Y-92305142D01*
X132413285Y-92352761D01*
X132318047Y-92400380D01*
X132032333Y-92400380D01*
X131937095Y-92352761D01*
X131889476Y-92305142D01*
%TO.C,C1*%
X188977542Y-82157866D02*
X189025161Y-82205485D01*
X189072780Y-82348342D01*
X189072780Y-82443580D01*
X189025161Y-82586438D01*
X188929923Y-82681676D01*
X188834685Y-82729295D01*
X188644209Y-82776914D01*
X188501352Y-82776914D01*
X188310876Y-82729295D01*
X188215638Y-82681676D01*
X188120400Y-82586438D01*
X188072780Y-82443580D01*
X188072780Y-82348342D01*
X188120400Y-82205485D01*
X188168019Y-82157866D01*
X189072780Y-81205485D02*
X189072780Y-81776914D01*
X189072780Y-81491200D02*
X188072780Y-81491200D01*
X188215638Y-81586438D01*
X188310876Y-81681676D01*
X188358495Y-81776914D01*
%TO.C,R19*%
X163391980Y-109862857D02*
X162915790Y-110196190D01*
X163391980Y-110434285D02*
X162391980Y-110434285D01*
X162391980Y-110053333D01*
X162439600Y-109958095D01*
X162487219Y-109910476D01*
X162582457Y-109862857D01*
X162725314Y-109862857D01*
X162820552Y-109910476D01*
X162868171Y-109958095D01*
X162915790Y-110053333D01*
X162915790Y-110434285D01*
X163391980Y-108910476D02*
X163391980Y-109481904D01*
X163391980Y-109196190D02*
X162391980Y-109196190D01*
X162534838Y-109291428D01*
X162630076Y-109386666D01*
X162677695Y-109481904D01*
X163391980Y-108434285D02*
X163391980Y-108243809D01*
X163344361Y-108148571D01*
X163296742Y-108100952D01*
X163153885Y-108005714D01*
X162963409Y-107958095D01*
X162582457Y-107958095D01*
X162487219Y-108005714D01*
X162439600Y-108053333D01*
X162391980Y-108148571D01*
X162391980Y-108339047D01*
X162439600Y-108434285D01*
X162487219Y-108481904D01*
X162582457Y-108529523D01*
X162820552Y-108529523D01*
X162915790Y-108481904D01*
X162963409Y-108434285D01*
X163011028Y-108339047D01*
X163011028Y-108148571D01*
X162963409Y-108053333D01*
X162915790Y-108005714D01*
X162820552Y-107958095D01*
D17*
%TO.C,J4*%
X149292000Y-104013000D02*
X149292000Y-111693000D01*
X149292000Y-111693000D02*
X151952000Y-111693000D01*
X151952000Y-111693000D02*
X151952000Y-104013000D01*
X151952000Y-104013000D02*
X149292000Y-104013000D01*
X149292000Y-102743000D02*
X149292000Y-101413000D01*
X149292000Y-101413000D02*
X150622000Y-101413000D01*
D15*
%TO.C,IC1*%
X142367000Y-78359000D02*
X142367000Y-96393000D01*
X175133000Y-96393000D02*
X175133000Y-78359000D01*
X142367000Y-78359000D02*
X175133000Y-78359000D01*
X175133000Y-96393000D02*
X142367000Y-96393000D01*
%TO.C,J1*%
X124932000Y-78145000D02*
X124432000Y-78145000D01*
X126432000Y-73145000D02*
X126432000Y-83145000D01*
X131332000Y-73145000D02*
X131332000Y-83145000D01*
X124932000Y-73145000D02*
X124932000Y-83145000D01*
X124432000Y-73145000D02*
X124432000Y-83145000D01*
X124432000Y-83145000D02*
X134232000Y-83145000D01*
X134232000Y-83145000D02*
X134232000Y-73145000D01*
X134232000Y-73145000D02*
X124432000Y-73145000D01*
X130932000Y-80645000D02*
G75*
G03*
X130932000Y-80645000I-2000000J0D01*
G01*
X130932000Y-75645000D02*
G75*
G03*
X130932000Y-75645000I-2000000J0D01*
G01*
D17*
%TO.C,J2*%
X128016000Y-131886000D02*
X143316000Y-131886000D01*
X143316000Y-131886000D02*
X143316000Y-129226000D01*
X143316000Y-129226000D02*
X128016000Y-129226000D01*
X128016000Y-129226000D02*
X128016000Y-131886000D01*
X126746000Y-131886000D02*
X125416000Y-131886000D01*
X125416000Y-131886000D02*
X125416000Y-130556000D01*
%TO.C,J3*%
X127381000Y-107629000D02*
X142681000Y-107629000D01*
X142681000Y-107629000D02*
X142681000Y-104969000D01*
X142681000Y-104969000D02*
X127381000Y-104969000D01*
X127381000Y-104969000D02*
X127381000Y-107629000D01*
X126111000Y-107629000D02*
X124781000Y-107629000D01*
X124781000Y-107629000D02*
X124781000Y-106299000D01*
%TO.C,Q1*%
X146359000Y-118977000D02*
X146359000Y-122577000D01*
X147086205Y-118452816D02*
G75*
G03*
X146359000Y-118977000I1122795J-2324184D01*
G01*
X150809000Y-120777000D02*
G75*
G03*
X149307807Y-118420600I-2600000J0D01*
G01*
X149307807Y-123133400D02*
G75*
G03*
X150809000Y-120777000I-1098807J2356400D01*
G01*
X146359000Y-122577000D02*
G75*
G03*
X147086205Y-123101184I1850000J1800000D01*
G01*
%TO.C,Q2*%
X166315000Y-74952000D02*
X166315000Y-71352000D01*
X165587795Y-75476184D02*
G75*
G03*
X166315000Y-74952000I-1122795J2324184D01*
G01*
X161865000Y-73152000D02*
G75*
G03*
X163366193Y-75508400I2600000J0D01*
G01*
X163366193Y-70795600D02*
G75*
G03*
X161865000Y-73152000I1098807J-2356400D01*
G01*
X166315000Y-71352000D02*
G75*
G03*
X165587795Y-70827816I-1850000J-1800000D01*
G01*
%TO.C,R1*%
X163865000Y-122087000D02*
X163865000Y-119467000D01*
X163865000Y-119467000D02*
X157445000Y-119467000D01*
X157445000Y-119467000D02*
X157445000Y-122087000D01*
X157445000Y-122087000D02*
X163865000Y-122087000D01*
X164755000Y-120777000D02*
X163865000Y-120777000D01*
X156555000Y-120777000D02*
X157445000Y-120777000D01*
%TO.C,R2*%
X156880000Y-75224000D02*
X156880000Y-72604000D01*
X156880000Y-72604000D02*
X150460000Y-72604000D01*
X150460000Y-72604000D02*
X150460000Y-75224000D01*
X150460000Y-75224000D02*
X156880000Y-75224000D01*
X157770000Y-73914000D02*
X156880000Y-73914000D01*
X149570000Y-73914000D02*
X150460000Y-73914000D01*
D15*
%TO.C,R3*%
X228767000Y-138593000D02*
X228767000Y-139093000D01*
X223767000Y-137093000D02*
X233767000Y-137093000D01*
X223767000Y-132193000D02*
X233767000Y-132193000D01*
X223767000Y-138593000D02*
X233767000Y-138593000D01*
X223767000Y-139093000D02*
X233767000Y-139093000D01*
X233767000Y-139093000D02*
X233767000Y-129293000D01*
X233767000Y-129293000D02*
X223767000Y-129293000D01*
X223767000Y-129293000D02*
X223767000Y-139093000D01*
X233267000Y-134593000D02*
G75*
G03*
X233267000Y-134593000I-2000000J0D01*
G01*
X228267000Y-134593000D02*
G75*
G03*
X228267000Y-134593000I-2000000J0D01*
G01*
%TO.C,R4*%
X241022500Y-138529500D02*
X241022500Y-139029500D01*
X236022500Y-137029500D02*
X246022500Y-137029500D01*
X236022500Y-132129500D02*
X246022500Y-132129500D01*
X236022500Y-138529500D02*
X246022500Y-138529500D01*
X236022500Y-139029500D02*
X246022500Y-139029500D01*
X246022500Y-139029500D02*
X246022500Y-129229500D01*
X246022500Y-129229500D02*
X236022500Y-129229500D01*
X236022500Y-129229500D02*
X236022500Y-139029500D01*
X245522500Y-134529500D02*
G75*
G03*
X245522500Y-134529500I-2000000J0D01*
G01*
X240522500Y-134529500D02*
G75*
G03*
X240522500Y-134529500I-2000000J0D01*
G01*
%TO.C,R5*%
X204891000Y-138593000D02*
X204891000Y-139093000D01*
X199891000Y-137093000D02*
X209891000Y-137093000D01*
X199891000Y-132193000D02*
X209891000Y-132193000D01*
X199891000Y-138593000D02*
X209891000Y-138593000D01*
X199891000Y-139093000D02*
X209891000Y-139093000D01*
X209891000Y-139093000D02*
X209891000Y-129293000D01*
X209891000Y-129293000D02*
X199891000Y-129293000D01*
X199891000Y-129293000D02*
X199891000Y-139093000D01*
X209391000Y-134593000D02*
G75*
G03*
X209391000Y-134593000I-2000000J0D01*
G01*
X204391000Y-134593000D02*
G75*
G03*
X204391000Y-134593000I-2000000J0D01*
G01*
%TO.C,R6*%
X216702000Y-138783500D02*
X216702000Y-139283500D01*
X211702000Y-137283500D02*
X221702000Y-137283500D01*
X211702000Y-132383500D02*
X221702000Y-132383500D01*
X211702000Y-138783500D02*
X221702000Y-138783500D01*
X211702000Y-139283500D02*
X221702000Y-139283500D01*
X221702000Y-139283500D02*
X221702000Y-129483500D01*
X221702000Y-129483500D02*
X211702000Y-129483500D01*
X211702000Y-129483500D02*
X211702000Y-139283500D01*
X221202000Y-134783500D02*
G75*
G03*
X221202000Y-134783500I-2000000J0D01*
G01*
X216202000Y-134783500D02*
G75*
G03*
X216202000Y-134783500I-2000000J0D01*
G01*
D17*
%TO.C,R7*%
X223797500Y-123479000D02*
X226417500Y-123479000D01*
X226417500Y-123479000D02*
X226417500Y-117059000D01*
X226417500Y-117059000D02*
X223797500Y-117059000D01*
X223797500Y-117059000D02*
X223797500Y-123479000D01*
X225107500Y-124369000D02*
X225107500Y-123479000D01*
X225107500Y-116169000D02*
X225107500Y-117059000D01*
%TO.C,R8*%
X199985000Y-123606000D02*
X202605000Y-123606000D01*
X202605000Y-123606000D02*
X202605000Y-117186000D01*
X202605000Y-117186000D02*
X199985000Y-117186000D01*
X199985000Y-117186000D02*
X199985000Y-123606000D01*
X201295000Y-124496000D02*
X201295000Y-123606000D01*
X201295000Y-116296000D02*
X201295000Y-117186000D01*
%TO.C,R9*%
X211859500Y-123542500D02*
X214479500Y-123542500D01*
X214479500Y-123542500D02*
X214479500Y-117122500D01*
X214479500Y-117122500D02*
X211859500Y-117122500D01*
X211859500Y-117122500D02*
X211859500Y-123542500D01*
X213169500Y-124432500D02*
X213169500Y-123542500D01*
X213169500Y-116232500D02*
X213169500Y-117122500D01*
%TO.C,R10*%
X235926000Y-123542500D02*
X238546000Y-123542500D01*
X238546000Y-123542500D02*
X238546000Y-117122500D01*
X238546000Y-117122500D02*
X235926000Y-117122500D01*
X235926000Y-117122500D02*
X235926000Y-123542500D01*
X237236000Y-124432500D02*
X237236000Y-123542500D01*
X237236000Y-116232500D02*
X237236000Y-117122500D01*
D15*
%TO.C,R11*%
X228767000Y-84618000D02*
X228767000Y-85118000D01*
X223767000Y-83118000D02*
X233767000Y-83118000D01*
X223767000Y-78218000D02*
X233767000Y-78218000D01*
X223767000Y-84618000D02*
X233767000Y-84618000D01*
X223767000Y-85118000D02*
X233767000Y-85118000D01*
X233767000Y-85118000D02*
X233767000Y-75318000D01*
X233767000Y-75318000D02*
X223767000Y-75318000D01*
X223767000Y-75318000D02*
X223767000Y-85118000D01*
X233267000Y-80618000D02*
G75*
G03*
X233267000Y-80618000I-2000000J0D01*
G01*
X228267000Y-80618000D02*
G75*
G03*
X228267000Y-80618000I-2000000J0D01*
G01*
%TO.C,R12*%
X204764000Y-84745000D02*
X204764000Y-85245000D01*
X199764000Y-83245000D02*
X209764000Y-83245000D01*
X199764000Y-78345000D02*
X209764000Y-78345000D01*
X199764000Y-84745000D02*
X209764000Y-84745000D01*
X199764000Y-85245000D02*
X209764000Y-85245000D01*
X209764000Y-85245000D02*
X209764000Y-75445000D01*
X209764000Y-75445000D02*
X199764000Y-75445000D01*
X199764000Y-75445000D02*
X199764000Y-85245000D01*
X209264000Y-80745000D02*
G75*
G03*
X209264000Y-80745000I-2000000J0D01*
G01*
X204264000Y-80745000D02*
G75*
G03*
X204264000Y-80745000I-2000000J0D01*
G01*
%TO.C,R13*%
X216829000Y-84681500D02*
X216829000Y-85181500D01*
X211829000Y-83181500D02*
X221829000Y-83181500D01*
X211829000Y-78281500D02*
X221829000Y-78281500D01*
X211829000Y-84681500D02*
X221829000Y-84681500D01*
X211829000Y-85181500D02*
X221829000Y-85181500D01*
X221829000Y-85181500D02*
X221829000Y-75381500D01*
X221829000Y-75381500D02*
X211829000Y-75381500D01*
X211829000Y-75381500D02*
X211829000Y-85181500D01*
X221329000Y-80681500D02*
G75*
G03*
X221329000Y-80681500I-2000000J0D01*
G01*
X216329000Y-80681500D02*
G75*
G03*
X216329000Y-80681500I-2000000J0D01*
G01*
%TO.C,R14*%
X240815500Y-84681500D02*
X240815500Y-85181500D01*
X235815500Y-83181500D02*
X245815500Y-83181500D01*
X235815500Y-78281500D02*
X245815500Y-78281500D01*
X235815500Y-84681500D02*
X245815500Y-84681500D01*
X235815500Y-85181500D02*
X245815500Y-85181500D01*
X245815500Y-85181500D02*
X245815500Y-75381500D01*
X245815500Y-75381500D02*
X235815500Y-75381500D01*
X235815500Y-75381500D02*
X235815500Y-85181500D01*
X245315500Y-80681500D02*
G75*
G03*
X245315500Y-80681500I-2000000J0D01*
G01*
X240315500Y-80681500D02*
G75*
G03*
X240315500Y-80681500I-2000000J0D01*
G01*
D17*
%TO.C,R15*%
X226544500Y-91214500D02*
X223924500Y-91214500D01*
X223924500Y-91214500D02*
X223924500Y-97634500D01*
X223924500Y-97634500D02*
X226544500Y-97634500D01*
X226544500Y-97634500D02*
X226544500Y-91214500D01*
X225234500Y-90324500D02*
X225234500Y-91214500D01*
X225234500Y-98524500D02*
X225234500Y-97634500D01*
%TO.C,R16*%
X202668500Y-91341500D02*
X200048500Y-91341500D01*
X200048500Y-91341500D02*
X200048500Y-97761500D01*
X200048500Y-97761500D02*
X202668500Y-97761500D01*
X202668500Y-97761500D02*
X202668500Y-91341500D01*
X201358500Y-90451500D02*
X201358500Y-91341500D01*
X201358500Y-98651500D02*
X201358500Y-97761500D01*
%TO.C,R17*%
X214543000Y-91278000D02*
X211923000Y-91278000D01*
X211923000Y-91278000D02*
X211923000Y-97698000D01*
X211923000Y-97698000D02*
X214543000Y-97698000D01*
X214543000Y-97698000D02*
X214543000Y-91278000D01*
X213233000Y-90388000D02*
X213233000Y-91278000D01*
X213233000Y-98588000D02*
X213233000Y-97698000D01*
%TO.C,R18*%
X238546000Y-91214500D02*
X235926000Y-91214500D01*
X235926000Y-91214500D02*
X235926000Y-97634500D01*
X235926000Y-97634500D02*
X238546000Y-97634500D01*
X238546000Y-97634500D02*
X238546000Y-91214500D01*
X237236000Y-90324500D02*
X237236000Y-91214500D01*
X237236000Y-98524500D02*
X237236000Y-97634500D01*
%TO.C,U1*%
X188484000Y-108906000D02*
G75*
G03*
X190484000Y-108906000I1000000J0D01*
G01*
X188484000Y-108906000D02*
X187234000Y-108906000D01*
X187234000Y-108906000D02*
X187234000Y-126806000D01*
X187234000Y-126806000D02*
X191734000Y-126806000D01*
X191734000Y-126806000D02*
X191734000Y-108906000D01*
X191734000Y-108906000D02*
X190484000Y-108906000D01*
%TO.C,U2*%
X188230000Y-86681000D02*
G75*
G03*
X190230000Y-86681000I1000000J0D01*
G01*
X188230000Y-86681000D02*
X186980000Y-86681000D01*
X186980000Y-86681000D02*
X186980000Y-104581000D01*
X186980000Y-104581000D02*
X191480000Y-104581000D01*
X191480000Y-104581000D02*
X191480000Y-86681000D01*
X191480000Y-86681000D02*
X190230000Y-86681000D01*
D15*
%TO.C,U3*%
X126873000Y-89281000D02*
X126873000Y-85852000D01*
X136525000Y-89281000D02*
X136525000Y-85852000D01*
X126365000Y-90424000D02*
X137033000Y-90424000D01*
X129921000Y-89408000D02*
X129921000Y-90678000D01*
X133477000Y-89408000D02*
X133477000Y-90678000D01*
X137033000Y-89281000D02*
X126365000Y-89281000D01*
X126365000Y-85852000D02*
X137033000Y-85852000D01*
X137033000Y-90678000D02*
X137033000Y-85852000D01*
X126365000Y-90678000D02*
X126365000Y-85852000D01*
X126365000Y-90678000D02*
X137033000Y-90678000D01*
D17*
%TO.C,C1*%
X180861736Y-74881063D02*
G75*
G03*
X180865000Y-84678857I1383264J-4898437D01*
G01*
X183625000Y-84678857D02*
G75*
G03*
X183628264Y-74881063I-1380000J4899357D01*
G01*
X183628264Y-74881063D02*
G75*
G03*
X180865000Y-74880143I-1383264J-4898437D01*
G01*
X177195000Y-79779500D02*
X187295000Y-79779500D01*
X177195000Y-79739500D02*
X187295000Y-79739500D01*
X177195000Y-79699500D02*
X187295000Y-79699500D01*
X177196000Y-79659500D02*
X187294000Y-79659500D01*
X177197000Y-79619500D02*
X187293000Y-79619500D01*
X177198000Y-79579500D02*
X187292000Y-79579500D01*
X177200000Y-79539500D02*
X187290000Y-79539500D01*
X177202000Y-79499500D02*
X187288000Y-79499500D01*
X177205000Y-79459500D02*
X187285000Y-79459500D01*
X177207000Y-79419500D02*
X187283000Y-79419500D01*
X177210000Y-79379500D02*
X187280000Y-79379500D01*
X177214000Y-79339500D02*
X187276000Y-79339500D01*
X177217000Y-79299500D02*
X187273000Y-79299500D01*
X177221000Y-79259500D02*
X187269000Y-79259500D01*
X177225000Y-79219500D02*
X187265000Y-79219500D01*
X177230000Y-79179500D02*
X187260000Y-79179500D01*
X177235000Y-79139500D02*
X187255000Y-79139500D01*
X177240000Y-79099500D02*
X187250000Y-79099500D01*
X177246000Y-79058500D02*
X187244000Y-79058500D01*
X177252000Y-79018500D02*
X187238000Y-79018500D01*
X177258000Y-78978500D02*
X187232000Y-78978500D01*
X177264000Y-78938500D02*
X187226000Y-78938500D01*
X177271000Y-78898500D02*
X187219000Y-78898500D01*
X177278000Y-78858500D02*
X187212000Y-78858500D01*
X177286000Y-78818500D02*
X187204000Y-78818500D01*
X177294000Y-78778500D02*
X187196000Y-78778500D01*
X177302000Y-78738500D02*
X187188000Y-78738500D01*
X177310000Y-78698500D02*
X187180000Y-78698500D01*
X177319000Y-78658500D02*
X187171000Y-78658500D01*
X177328000Y-78618500D02*
X187162000Y-78618500D01*
X177338000Y-78578500D02*
X187152000Y-78578500D01*
X177348000Y-78538500D02*
X187142000Y-78538500D01*
X177358000Y-78498500D02*
X187132000Y-78498500D01*
X177369000Y-78458500D02*
X181064000Y-78458500D01*
X183426000Y-78458500D02*
X187121000Y-78458500D01*
X177380000Y-78418500D02*
X181064000Y-78418500D01*
X183426000Y-78418500D02*
X187110000Y-78418500D01*
X177391000Y-78378500D02*
X181064000Y-78378500D01*
X183426000Y-78378500D02*
X187099000Y-78378500D01*
X177402000Y-78338500D02*
X181064000Y-78338500D01*
X183426000Y-78338500D02*
X187088000Y-78338500D01*
X177414000Y-78298500D02*
X181064000Y-78298500D01*
X183426000Y-78298500D02*
X187076000Y-78298500D01*
X177427000Y-78258500D02*
X181064000Y-78258500D01*
X183426000Y-78258500D02*
X187063000Y-78258500D01*
X177439000Y-78218500D02*
X181064000Y-78218500D01*
X183426000Y-78218500D02*
X187051000Y-78218500D01*
X177453000Y-78178500D02*
X181064000Y-78178500D01*
X183426000Y-78178500D02*
X187037000Y-78178500D01*
X177466000Y-78138500D02*
X181064000Y-78138500D01*
X183426000Y-78138500D02*
X187024000Y-78138500D01*
X177480000Y-78098500D02*
X181064000Y-78098500D01*
X183426000Y-78098500D02*
X187010000Y-78098500D01*
X177494000Y-78058500D02*
X181064000Y-78058500D01*
X183426000Y-78058500D02*
X186996000Y-78058500D01*
X177508000Y-78018500D02*
X181064000Y-78018500D01*
X183426000Y-78018500D02*
X186982000Y-78018500D01*
X177523000Y-77978500D02*
X181064000Y-77978500D01*
X183426000Y-77978500D02*
X186967000Y-77978500D01*
X177539000Y-77938500D02*
X181064000Y-77938500D01*
X183426000Y-77938500D02*
X186951000Y-77938500D01*
X177554000Y-77898500D02*
X181064000Y-77898500D01*
X183426000Y-77898500D02*
X186936000Y-77898500D01*
X177571000Y-77858500D02*
X181064000Y-77858500D01*
X183426000Y-77858500D02*
X186919000Y-77858500D01*
X177587000Y-77818500D02*
X181064000Y-77818500D01*
X183426000Y-77818500D02*
X186903000Y-77818500D01*
X177604000Y-77778500D02*
X181064000Y-77778500D01*
X183426000Y-77778500D02*
X186886000Y-77778500D01*
X177621000Y-77738500D02*
X181064000Y-77738500D01*
X183426000Y-77738500D02*
X186869000Y-77738500D01*
X177639000Y-77698500D02*
X181064000Y-77698500D01*
X183426000Y-77698500D02*
X186851000Y-77698500D01*
X177657000Y-77658500D02*
X181064000Y-77658500D01*
X183426000Y-77658500D02*
X186833000Y-77658500D01*
X177676000Y-77618500D02*
X181064000Y-77618500D01*
X183426000Y-77618500D02*
X186814000Y-77618500D01*
X177695000Y-77578500D02*
X181064000Y-77578500D01*
X183426000Y-77578500D02*
X186795000Y-77578500D01*
X177714000Y-77538500D02*
X181064000Y-77538500D01*
X183426000Y-77538500D02*
X186776000Y-77538500D01*
X177734000Y-77498500D02*
X181064000Y-77498500D01*
X183426000Y-77498500D02*
X186756000Y-77498500D01*
X177754000Y-77458500D02*
X181064000Y-77458500D01*
X183426000Y-77458500D02*
X186736000Y-77458500D01*
X177775000Y-77418500D02*
X181064000Y-77418500D01*
X183426000Y-77418500D02*
X186715000Y-77418500D01*
X177796000Y-77378500D02*
X181064000Y-77378500D01*
X183426000Y-77378500D02*
X186694000Y-77378500D01*
X177817000Y-77338500D02*
X181064000Y-77338500D01*
X183426000Y-77338500D02*
X186673000Y-77338500D01*
X177840000Y-77298500D02*
X181064000Y-77298500D01*
X183426000Y-77298500D02*
X186650000Y-77298500D01*
X177862000Y-77258500D02*
X181064000Y-77258500D01*
X183426000Y-77258500D02*
X186628000Y-77258500D01*
X177885000Y-77218500D02*
X181064000Y-77218500D01*
X183426000Y-77218500D02*
X186605000Y-77218500D01*
X177909000Y-77178500D02*
X181064000Y-77178500D01*
X183426000Y-77178500D02*
X186581000Y-77178500D01*
X177933000Y-77138500D02*
X181064000Y-77138500D01*
X183426000Y-77138500D02*
X186557000Y-77138500D01*
X177957000Y-77098500D02*
X181064000Y-77098500D01*
X183426000Y-77098500D02*
X186533000Y-77098500D01*
X177982000Y-77058500D02*
X181064000Y-77058500D01*
X183426000Y-77058500D02*
X186508000Y-77058500D01*
X178008000Y-77018500D02*
X181064000Y-77018500D01*
X183426000Y-77018500D02*
X186482000Y-77018500D01*
X178034000Y-76978500D02*
X181064000Y-76978500D01*
X183426000Y-76978500D02*
X186456000Y-76978500D01*
X178060000Y-76938500D02*
X181064000Y-76938500D01*
X183426000Y-76938500D02*
X186430000Y-76938500D01*
X178088000Y-76898500D02*
X181064000Y-76898500D01*
X183426000Y-76898500D02*
X186402000Y-76898500D01*
X178115000Y-76858500D02*
X181064000Y-76858500D01*
X183426000Y-76858500D02*
X186375000Y-76858500D01*
X178144000Y-76818500D02*
X181064000Y-76818500D01*
X183426000Y-76818500D02*
X186346000Y-76818500D01*
X178173000Y-76778500D02*
X181064000Y-76778500D01*
X183426000Y-76778500D02*
X186317000Y-76778500D01*
X178202000Y-76738500D02*
X181064000Y-76738500D01*
X183426000Y-76738500D02*
X186288000Y-76738500D01*
X178232000Y-76698500D02*
X181064000Y-76698500D01*
X183426000Y-76698500D02*
X186258000Y-76698500D01*
X178263000Y-76658500D02*
X181064000Y-76658500D01*
X183426000Y-76658500D02*
X186227000Y-76658500D01*
X178294000Y-76618500D02*
X181064000Y-76618500D01*
X183426000Y-76618500D02*
X186196000Y-76618500D01*
X178326000Y-76578500D02*
X181064000Y-76578500D01*
X183426000Y-76578500D02*
X186164000Y-76578500D01*
X178359000Y-76538500D02*
X181064000Y-76538500D01*
X183426000Y-76538500D02*
X186131000Y-76538500D01*
X178392000Y-76498500D02*
X181064000Y-76498500D01*
X183426000Y-76498500D02*
X186098000Y-76498500D01*
X178426000Y-76458500D02*
X181064000Y-76458500D01*
X183426000Y-76458500D02*
X186064000Y-76458500D01*
X178461000Y-76418500D02*
X181064000Y-76418500D01*
X183426000Y-76418500D02*
X186029000Y-76418500D01*
X178497000Y-76378500D02*
X181064000Y-76378500D01*
X183426000Y-76378500D02*
X185993000Y-76378500D01*
X178533000Y-76338500D02*
X181064000Y-76338500D01*
X183426000Y-76338500D02*
X185957000Y-76338500D01*
X178570000Y-76298500D02*
X181064000Y-76298500D01*
X183426000Y-76298500D02*
X185920000Y-76298500D01*
X178608000Y-76258500D02*
X181064000Y-76258500D01*
X183426000Y-76258500D02*
X185882000Y-76258500D01*
X178647000Y-76218500D02*
X181064000Y-76218500D01*
X183426000Y-76218500D02*
X185843000Y-76218500D01*
X178686000Y-76178500D02*
X181064000Y-76178500D01*
X183426000Y-76178500D02*
X185804000Y-76178500D01*
X178727000Y-76138500D02*
X181064000Y-76138500D01*
X183426000Y-76138500D02*
X185763000Y-76138500D01*
X178768000Y-76098500D02*
X185722000Y-76098500D01*
X178810000Y-76058500D02*
X185680000Y-76058500D01*
X178854000Y-76018500D02*
X185636000Y-76018500D01*
X178898000Y-75978500D02*
X185592000Y-75978500D01*
X178943000Y-75938500D02*
X185547000Y-75938500D01*
X178990000Y-75898500D02*
X185500000Y-75898500D01*
X179038000Y-75858500D02*
X185452000Y-75858500D01*
X179087000Y-75818500D02*
X185403000Y-75818500D01*
X179137000Y-75778500D02*
X185353000Y-75778500D01*
X179188000Y-75738500D02*
X185302000Y-75738500D01*
X179241000Y-75698500D02*
X185249000Y-75698500D01*
X179296000Y-75658500D02*
X185194000Y-75658500D01*
X179351000Y-75618500D02*
X185139000Y-75618500D01*
X179409000Y-75578500D02*
X185081000Y-75578500D01*
X179468000Y-75538500D02*
X185022000Y-75538500D01*
X179530000Y-75498500D02*
X184960000Y-75498500D01*
X179593000Y-75458500D02*
X184897000Y-75458500D01*
X179658000Y-75418500D02*
X184832000Y-75418500D01*
X179726000Y-75378500D02*
X184764000Y-75378500D01*
X179796000Y-75338500D02*
X184694000Y-75338500D01*
X179868000Y-75298500D02*
X184622000Y-75298500D01*
X179944000Y-75258500D02*
X184546000Y-75258500D01*
X180023000Y-75218500D02*
X184467000Y-75218500D01*
X180105000Y-75178500D02*
X184385000Y-75178500D01*
X180192000Y-75138500D02*
X184298000Y-75138500D01*
X180283000Y-75098500D02*
X184207000Y-75098500D01*
X180379000Y-75058500D02*
X184111000Y-75058500D01*
X180482000Y-75018500D02*
X184008000Y-75018500D01*
X180591000Y-74978500D02*
X183899000Y-74978500D01*
X180709000Y-74938500D02*
X183781000Y-74938500D01*
X180838000Y-74898500D02*
X183652000Y-74898500D01*
X180980000Y-74858500D02*
X183510000Y-74858500D01*
X181141000Y-74818500D02*
X183349000Y-74818500D01*
X181332000Y-74778500D02*
X183158000Y-74778500D01*
X181573000Y-74738500D02*
X182917000Y-74738500D01*
X181966000Y-74698500D02*
X182524000Y-74698500D01*
X182245000Y-84979500D02*
X182245000Y-83479500D01*
X181495000Y-84229500D02*
X182995000Y-84229500D01*
%TO.C,R19*%
X161939600Y-106010000D02*
X159319600Y-106010000D01*
X159319600Y-106010000D02*
X159319600Y-112430000D01*
X159319600Y-112430000D02*
X161939600Y-112430000D01*
X161939600Y-112430000D02*
X161939600Y-106010000D01*
X160629600Y-105120000D02*
X160629600Y-106010000D01*
X160629600Y-113320000D02*
X160629600Y-112430000D01*
%TD*%
D18*
%TO.C,IC1*%
X152527000Y-92583000D03*
X149987000Y-92583000D03*
X171577000Y-79883000D03*
X169037000Y-79883000D03*
X166497000Y-79883000D03*
X163957000Y-79883000D03*
X161417000Y-79883000D03*
X158877000Y-79883000D03*
X156337000Y-79883000D03*
X153797000Y-79883000D03*
X151257000Y-79883000D03*
X148717000Y-79883000D03*
X146177000Y-79883000D03*
X143637000Y-79883000D03*
X143637000Y-95123000D03*
X146177000Y-95123000D03*
X148717000Y-95123000D03*
X151257000Y-95123000D03*
X153797000Y-95123000D03*
X156337000Y-95123000D03*
X158877000Y-95123000D03*
X161417000Y-95123000D03*
X163957000Y-95123000D03*
X166497000Y-95123000D03*
X169037000Y-95123000D03*
X171577000Y-95123000D03*
X160147000Y-92583000D03*
X162687000Y-92583000D03*
%TD*%
%LPC*%
D19*
%TO.C,*%
X230428800Y-147015200D03*
D20*
X232828800Y-147015200D03*
X232125856Y-148712256D03*
X230428800Y-149415200D03*
X228731744Y-148712256D03*
X228028800Y-147015200D03*
X228731744Y-145318144D03*
X230428800Y-144615200D03*
X232125856Y-145318144D03*
%TD*%
D21*
%TO.C,J4*%
X150622000Y-102743000D03*
D22*
X150622000Y-105283000D03*
X150622000Y-107823000D03*
X150622000Y-110363000D03*
%TD*%
D18*
%TO.C,IC1*%
X152527000Y-92583000D03*
X149987000Y-92583000D03*
X171577000Y-79883000D03*
X169037000Y-79883000D03*
X166497000Y-79883000D03*
X163957000Y-79883000D03*
X161417000Y-79883000D03*
X158877000Y-79883000D03*
X156337000Y-79883000D03*
X153797000Y-79883000D03*
X151257000Y-79883000D03*
X148717000Y-79883000D03*
X146177000Y-79883000D03*
X143637000Y-79883000D03*
X143637000Y-95123000D03*
X146177000Y-95123000D03*
X148717000Y-95123000D03*
X151257000Y-95123000D03*
X153797000Y-95123000D03*
X156337000Y-95123000D03*
X158877000Y-95123000D03*
X161417000Y-95123000D03*
X163957000Y-95123000D03*
X166497000Y-95123000D03*
X169037000Y-95123000D03*
X171577000Y-95123000D03*
X160147000Y-92583000D03*
X162687000Y-92583000D03*
%TD*%
D19*
%TO.C,*%
X172618400Y-121462800D03*
D20*
X175018400Y-121462800D03*
X174315456Y-123159856D03*
X172618400Y-123862800D03*
X170921344Y-123159856D03*
X170218400Y-121462800D03*
X170921344Y-119765744D03*
X172618400Y-119062800D03*
X174315456Y-119765744D03*
%TD*%
D19*
%TO.C,*%
X239408000Y-106273600D03*
D20*
X241808000Y-106273600D03*
X241105056Y-107970656D03*
X239408000Y-108673600D03*
X237710944Y-107970656D03*
X237008000Y-106273600D03*
X237710944Y-104576544D03*
X239408000Y-103873600D03*
X241105056Y-104576544D03*
%TD*%
D19*
%TO.C,*%
X193171744Y-74299744D03*
D20*
X195571744Y-74299744D03*
X194868800Y-75996800D03*
X193171744Y-76699744D03*
X191474688Y-75996800D03*
X190771744Y-74299744D03*
X191474688Y-72602688D03*
X193171744Y-71899744D03*
X194868800Y-72602688D03*
%TD*%
D19*
%TO.C,REF\u002A\u002A*%
X134467600Y-139090400D03*
D20*
X136867600Y-139090400D03*
X136164656Y-140787456D03*
X134467600Y-141490400D03*
X132770544Y-140787456D03*
X132067600Y-139090400D03*
X132770544Y-137393344D03*
X134467600Y-136690400D03*
X136164656Y-137393344D03*
%TD*%
D23*
%TO.C,J1*%
X129032000Y-75645000D03*
D24*
X129032000Y-80645000D03*
%TD*%
D21*
%TO.C,J2*%
X126746000Y-130556000D03*
D22*
X129286000Y-130556000D03*
X131826000Y-130556000D03*
X134366000Y-130556000D03*
X136906000Y-130556000D03*
X139446000Y-130556000D03*
X141986000Y-130556000D03*
%TD*%
D21*
%TO.C,J3*%
X126111000Y-106299000D03*
D22*
X128651000Y-106299000D03*
X131191000Y-106299000D03*
X133731000Y-106299000D03*
X136271000Y-106299000D03*
X138811000Y-106299000D03*
X141351000Y-106299000D03*
%TD*%
D25*
%TO.C,Q1*%
X148209000Y-120777000D03*
X148209000Y-123317000D03*
D26*
X148209000Y-118237000D03*
%TD*%
D25*
%TO.C,Q2*%
X164465000Y-73152000D03*
X164465000Y-70612000D03*
D26*
X164465000Y-75692000D03*
%TD*%
D27*
%TO.C,R1*%
X165735000Y-120777000D03*
D28*
X155575000Y-120777000D03*
%TD*%
D27*
%TO.C,R2*%
X158750000Y-73914000D03*
D28*
X148590000Y-73914000D03*
%TD*%
D23*
%TO.C,R3*%
X226267000Y-134493000D03*
D24*
X231267000Y-134493000D03*
%TD*%
D23*
%TO.C,R4*%
X238522500Y-134429500D03*
D24*
X243522500Y-134429500D03*
%TD*%
D23*
%TO.C,R5*%
X202391000Y-134493000D03*
D24*
X207391000Y-134493000D03*
%TD*%
D23*
%TO.C,R6*%
X214202000Y-134683500D03*
D24*
X219202000Y-134683500D03*
%TD*%
D27*
%TO.C,R7*%
X225107500Y-125349000D03*
D28*
X225107500Y-115189000D03*
%TD*%
D27*
%TO.C,R8*%
X201295000Y-125476000D03*
D28*
X201295000Y-115316000D03*
%TD*%
D27*
%TO.C,R9*%
X213169500Y-125412500D03*
D28*
X213169500Y-115252500D03*
%TD*%
D27*
%TO.C,R10*%
X237236000Y-125412500D03*
D28*
X237236000Y-115252500D03*
%TD*%
D23*
%TO.C,R11*%
X226267000Y-80518000D03*
D24*
X231267000Y-80518000D03*
%TD*%
D23*
%TO.C,R12*%
X202264000Y-80645000D03*
D24*
X207264000Y-80645000D03*
%TD*%
D23*
%TO.C,R13*%
X214329000Y-80581500D03*
D24*
X219329000Y-80581500D03*
%TD*%
D23*
%TO.C,R14*%
X238315500Y-80581500D03*
D24*
X243315500Y-80581500D03*
%TD*%
D27*
%TO.C,R15*%
X225234500Y-89344500D03*
D28*
X225234500Y-99504500D03*
%TD*%
D27*
%TO.C,R16*%
X201358500Y-89471500D03*
D28*
X201358500Y-99631500D03*
%TD*%
D27*
%TO.C,R17*%
X213233000Y-89408000D03*
D28*
X213233000Y-99568000D03*
%TD*%
D27*
%TO.C,R18*%
X237236000Y-89344500D03*
D28*
X237236000Y-99504500D03*
%TD*%
D29*
%TO.C,U1*%
X185674000Y-110236000D03*
D30*
X193294000Y-125476000D03*
X185674000Y-112776000D03*
X193294000Y-122936000D03*
X185674000Y-115316000D03*
X193294000Y-120396000D03*
X185674000Y-117856000D03*
X193294000Y-117856000D03*
X185674000Y-120396000D03*
X193294000Y-115316000D03*
X185674000Y-122936000D03*
X193294000Y-112776000D03*
X185674000Y-125476000D03*
X193294000Y-110236000D03*
%TD*%
D29*
%TO.C,U2*%
X185420000Y-88011000D03*
D30*
X193040000Y-103251000D03*
X185420000Y-90551000D03*
X193040000Y-100711000D03*
X185420000Y-93091000D03*
X193040000Y-98171000D03*
X185420000Y-95631000D03*
X193040000Y-95631000D03*
X185420000Y-98171000D03*
X193040000Y-93091000D03*
X185420000Y-100711000D03*
X193040000Y-90551000D03*
X185420000Y-103251000D03*
X193040000Y-88011000D03*
%TD*%
D31*
%TO.C,U3*%
X131699000Y-87630000D03*
X129159000Y-87630000D03*
X134239000Y-87630000D03*
%TD*%
D19*
%TO.C,*%
X141224000Y-74269600D03*
D20*
X143624000Y-74269600D03*
X142921056Y-75966656D03*
X141224000Y-76669600D03*
X139526944Y-75966656D03*
X138824000Y-74269600D03*
X139526944Y-72572544D03*
X141224000Y-71869600D03*
X142921056Y-72572544D03*
%TD*%
D32*
%TO.C,C1*%
X182245000Y-82279500D03*
D33*
X182245000Y-77279500D03*
%TD*%
D27*
%TO.C,R19*%
X160629600Y-104140000D03*
D28*
X160629600Y-114300000D03*
%TD*%
M02*
