M48
; DRILL file {KiCad 6.0.2+dfsg-1} date vie 10 mar 2023 19:38:22
; FORMAT={-:-/ absolute / inch / decimal}
; #@! TF.CreationDate,2023-03-10T19:38:22+01:00
; #@! TF.GenerationSoftware,Kicad,Pcbnew,6.0.2+dfsg-1
; #@! TF.FileFunction,Plated,1,2,PTH
FMAT,2
INCH
; #@! TA.AperFunction,Plated,PTH,ComponentDrill
T1C0.0197
; #@! TA.AperFunction,Plated,PTH,ViaDrill
T2C0.0236
; #@! TA.AperFunction,Plated,PTH,ComponentDrill
T3C0.0315
; #@! TA.AperFunction,Plated,PTH,ComponentDrill
T4C0.0315
; #@! TA.AperFunction,Plated,PTH,ComponentDrill
T5C0.0394
; #@! TA.AperFunction,Plated,PTH,ComponentDrill
T6C0.0450
; #@! TA.AperFunction,Plated,PTH,ComponentDrill
T7C0.0512
; #@! TA.AperFunction,Plated,PTH,ComponentDrill
T8C0.1260
%
G90
G05
T1
X5.1995Y-5.476
X5.2272Y-5.4092
X5.2272Y-5.5428
X5.294Y-5.3815
X5.294Y-5.5705
X5.3608Y-5.4092
X5.3608Y-5.5428
X5.3885Y-5.476
X5.4655Y-2.924
X5.4932Y-2.8572
X5.4932Y-2.9908
X5.56Y-2.8295
X5.56Y-3.0185
X5.6268Y-2.8572
X5.6268Y-2.9908
X5.6545Y-2.924
X6.7015Y-4.782
X6.7292Y-4.7152
X6.7292Y-4.8488
X6.796Y-4.6875
X6.796Y-4.8765
X6.8628Y-4.7152
X6.8628Y-4.8488
X6.8905Y-4.782
X7.5107Y-2.9252
X7.5384Y-2.8584
X7.5384Y-2.992
X7.6052Y-2.8307
X7.6052Y-3.0197
X7.672Y-2.8584
X7.672Y-2.992
X7.6997Y-2.9252
X8.9775Y-5.788
X9.0052Y-5.7212
X9.0052Y-5.8548
X9.072Y-5.6935
X9.072Y-5.8825
X9.1388Y-5.7212
X9.1388Y-5.8548
X9.1665Y-5.788
X9.331Y-4.184
X9.3587Y-4.1172
X9.3587Y-4.2508
X9.4255Y-4.0895
X9.4255Y-4.2785
X9.4923Y-4.1172
X9.4923Y-4.2508
X9.52Y-4.184
T2
X4.94Y-4.5325
X4.9425Y-3.3275
X5.0175Y-4.7125
X5.0275Y-5.04
X5.105Y-3.84
X5.1575Y-3.3325
X5.19Y-4.935
X5.4925Y-3.6958
X5.515Y-3.3675
X5.515Y-4.705
X5.5235Y-4.1251
X5.5625Y-3.9325
X5.565Y-4.935
X5.5875Y-4.52
X5.59Y-3.6925
X5.59Y-5.04
X5.6075Y-3.2725
X5.71Y-3.27
X5.7617Y-4.2021
X5.8Y-4.324
X5.835Y-3.4375
X5.9475Y-3.3525
X5.965Y-3.265
X6.07Y-4.102
X6.0705Y-3.892
X6.1125Y-3.5997
X6.144Y-3.9015
X6.1775Y-3.5153
X6.2148Y-3.9672
X6.23Y-3.3425
X6.235Y-3.88
X6.2925Y-3.525
X6.3975Y-3.47
X6.4145Y-4.038
X6.465Y-3.555
X6.47Y-3.8658
X6.505Y-3.9642
X6.5971Y-3.6429
X6.635Y-3.47
X6.6725Y-4.0525
X6.685Y-3.555
X6.771Y-3.629
X6.795Y-3.835
X6.8025Y-3.5175
X6.8552Y-4.0548
X6.98Y-4.6675
X7.085Y-3.765
X7.105Y-3.54
X7.1125Y-4.6853
X7.1156Y-3.9825
X7.13Y-4.34
X7.1352Y-4.1923
X7.2675Y-5.09
X7.335Y-4.2325
X7.3975Y-3.3225
X7.4275Y-3.615
X7.54Y-3.3525
X7.8704Y-3.8654
X8.102Y-4.044
X8.11Y-4.668
X8.48Y-3.5175
X8.5475Y-4.3675
X8.5725Y-4.8575
X8.5725Y-5.01
X8.615Y-4.485
X8.675Y-3.5175
X8.9725Y-3.515
X9.055Y-4.835
X9.055Y-5.035
X9.12Y-3.515
T3
X5.835Y-4.655
X5.835Y-4.755
X5.835Y-4.855
X5.85Y-2.91
X6.125Y-4.755
X6.25Y-2.91
X6.324Y-4.1
X6.324Y-4.5
X6.475Y-2.78
X6.475Y-2.88
X6.475Y-2.98
X6.525Y-4.755
X7.3Y-3.465
X7.3Y-3.565
X7.3Y-3.665
X7.3Y-3.765
X7.3Y-3.865
X7.3Y-3.965
X7.3Y-4.065
X7.31Y-4.34
X7.31Y-4.44
X7.31Y-4.54
X7.31Y-4.64
X7.31Y-4.74
X7.31Y-4.84
X7.31Y-4.94
X7.6Y-3.465
X7.6Y-3.565
X7.6Y-3.665
X7.6Y-3.765
X7.6Y-3.865
X7.6Y-3.965
X7.6Y-4.065
X7.61Y-4.34
X7.61Y-4.44
X7.61Y-4.54
X7.61Y-4.64
X7.61Y-4.74
X7.61Y-4.84
X7.61Y-4.94
X7.925Y-4.54
X7.925Y-4.94
X7.9275Y-3.5225
X7.9275Y-3.9225
X8.3925Y-4.5375
X8.3925Y-4.9375
X8.395Y-3.52
X8.395Y-3.92
X8.8625Y-4.535
X8.8625Y-4.935
X8.8675Y-3.5175
X8.8675Y-3.9175
X9.34Y-3.5175
X9.34Y-3.9175
X9.34Y-4.5375
X9.34Y-4.9375
T4
X5.655Y-3.145
X5.655Y-3.745
X5.755Y-3.145
X5.755Y-3.745
X5.855Y-3.145
X5.855Y-3.745
X5.905Y-3.645
X5.955Y-3.145
X5.955Y-3.745
X6.005Y-3.645
X6.055Y-3.145
X6.055Y-3.745
X6.155Y-3.145
X6.155Y-3.745
X6.255Y-3.145
X6.255Y-3.745
X6.305Y-3.645
X6.355Y-3.145
X6.355Y-3.745
X6.405Y-3.645
X6.455Y-3.145
X6.455Y-3.745
X6.555Y-3.145
X6.555Y-3.745
X6.655Y-3.145
X6.655Y-3.745
X6.755Y-3.145
X6.755Y-3.745
T5
X4.965Y-4.185
X4.99Y-5.14
X5.065Y-4.185
X5.09Y-5.14
X5.165Y-4.185
X5.19Y-5.14
X5.265Y-4.185
X5.29Y-5.14
X5.365Y-4.185
X5.39Y-5.14
X5.465Y-4.185
X5.49Y-5.14
X5.565Y-4.185
X5.59Y-5.14
X5.93Y-4.045
X5.93Y-4.145
X5.93Y-4.245
X5.93Y-4.345
X7.175Y-3.0425
X7.175Y-3.2394
T6
X5.085Y-3.45
X5.185Y-3.45
X5.285Y-3.45
T7
X5.08Y-2.9781
X5.08Y-3.175
X7.9631Y-3.175
X7.9681Y-5.295
X8.16Y-3.175
X8.165Y-5.295
X8.4331Y-5.3025
X8.4381Y-3.1725
X8.63Y-5.3025
X8.635Y-3.1725
X8.9081Y-3.17
X8.9081Y-5.295
X9.105Y-3.17
X9.105Y-5.295
X9.3825Y-3.1725
X9.3906Y-5.2925
X9.5794Y-3.1725
X9.5875Y-5.2925
T8
X5.294Y-5.476
X5.56Y-2.924
X6.796Y-4.782
X7.6052Y-2.9252
X9.072Y-5.788
X9.4255Y-4.184
T0
M30
