%TF.GenerationSoftware,KiCad,Pcbnew,6.0.2+dfsg-1*%
%TF.CreationDate,2023-03-10T19:28:33+01:00*%
%TF.ProjectId,BtMusgo,42744d75-7367-46f2-9e6b-696361645f70,rev?*%
%TF.SameCoordinates,Original*%
%TF.FileFunction,Copper,L1,Top*%
%TF.FilePolarity,Positive*%
%FSLAX46Y46*%
G04 Gerber Fmt 4.6, Leading zero omitted, Abs format (unit mm)*
G04 Created by KiCad (PCBNEW 6.0.2+dfsg-1) date 2023-03-10 19:28:33*
%MOMM*%
%LPD*%
G01*
G04 APERTURE LIST*
%TA.AperFunction,Profile*%
%ADD10C,0.150000*%
%TD*%
%TA.AperFunction,ComponentPad*%
%ADD11C,6.400000*%
%TD*%
%TA.AperFunction,ComponentPad*%
%ADD12C,0.800000*%
%TD*%
%TA.AperFunction,ComponentPad*%
%ADD13R,1.700000X1.700000*%
%TD*%
%TA.AperFunction,ComponentPad*%
%ADD14O,1.700000X1.700000*%
%TD*%
%TA.AperFunction,ComponentPad*%
%ADD15O,1.501140X2.199640*%
%TD*%
%TA.AperFunction,ComponentPad*%
%ADD16R,2.500000X2.500000*%
%TD*%
%TA.AperFunction,ComponentPad*%
%ADD17C,2.500000*%
%TD*%
%TA.AperFunction,ComponentPad*%
%ADD18C,1.520000*%
%TD*%
%TA.AperFunction,ComponentPad*%
%ADD19R,1.520000X1.520000*%
%TD*%
%TA.AperFunction,ComponentPad*%
%ADD20C,1.600000*%
%TD*%
%TA.AperFunction,ComponentPad*%
%ADD21O,1.600000X1.600000*%
%TD*%
%TA.AperFunction,ComponentPad*%
%ADD22R,2.400000X1.600000*%
%TD*%
%TA.AperFunction,ComponentPad*%
%ADD23O,2.400000X1.600000*%
%TD*%
%TA.AperFunction,ComponentPad*%
%ADD24O,2.032000X2.540000*%
%TD*%
%TA.AperFunction,ComponentPad*%
%ADD25R,2.000000X2.000000*%
%TD*%
%TA.AperFunction,ComponentPad*%
%ADD26C,2.000000*%
%TD*%
%TA.AperFunction,ViaPad*%
%ADD27C,1.200000*%
%TD*%
%TA.AperFunction,Conductor*%
%ADD28C,0.500000*%
%TD*%
%TA.AperFunction,Conductor*%
%ADD29C,0.300000*%
%TD*%
G04 APERTURE END LIST*
D10*
X236067600Y-74930000D02*
X235153200Y-74066400D01*
X246227600Y-74930000D02*
X236067600Y-74930000D01*
X234950000Y-139496979D02*
X234238800Y-140208179D01*
X246227600Y-139496979D02*
X234950000Y-139496979D01*
X125882384Y-69240400D02*
X235153955Y-69240400D01*
X125882400Y-69240400D02*
X123240800Y-71932800D01*
X123240800Y-150114000D02*
X123240800Y-71932800D01*
X125018800Y-151892000D02*
X123240800Y-150114000D01*
X234238906Y-151892000D02*
X125018800Y-151892000D01*
X234238800Y-140206234D02*
X234238800Y-151892000D01*
X246227600Y-74930000D02*
X246227600Y-139496979D01*
X235153200Y-69240400D02*
X235153200Y-74066400D01*
D11*
%TO.P,,1*%
%TO.N,N/C*%
X230428800Y-147015200D03*
D12*
X232828800Y-147015200D03*
X232125856Y-148712256D03*
X230428800Y-149415200D03*
X228731744Y-148712256D03*
X228028800Y-147015200D03*
X228731744Y-145318144D03*
X230428800Y-144615200D03*
X232125856Y-145318144D03*
%TD*%
D13*
%TO.P,J4,1,SCK*%
%TO.N,3APM*%
X150622000Y-102743000D03*
D14*
%TO.P,J4,2,VDD*%
%TO.N,+3V3*%
X150622000Y-105283000D03*
%TO.P,J4,3,GND*%
%TO.N,sht15_GND*%
X150622000Y-107823000D03*
%TO.P,J4,4,DATA*%
%TO.N,5APM*%
X150622000Y-110363000D03*
%TD*%
D15*
%TO.P,IC1,28,ADC7/A7*%
%TO.N,A7_APM*%
X152527000Y-92583000D03*
%TO.P,IC1,27,ADC6/A6*%
%TO.N,A6_APM*%
X149987000Y-92583000D03*
%TO.P,IC1,1,(PCINT17/TXD)PD1/1*%
%TO.N,unconnected-(IC1-Pad1)*%
X171577000Y-79883000D03*
%TO.P,IC1,2,(PCINT16/RXD)PD0/0*%
%TO.N,unconnected-(IC1-Pad2)*%
X169037000Y-79883000D03*
%TO.P,IC1,3,(PCINT14/~{RESET})PC6*%
%TO.N,unconnected-(IC1-Pad3)*%
X166497000Y-79883000D03*
%TO.P,IC1,4,GND*%
%TO.N,GND*%
X163957000Y-79883000D03*
%TO.P,IC1,5,(PCINT18/INT0)PD2/2*%
%TO.N,unconnected-(IC1-Pad5)*%
X161417000Y-79883000D03*
%TO.P,IC1,6,(PCINT19/OC2B/INT1/PWM)PD3/3*%
%TO.N,3APM*%
X158877000Y-79883000D03*
%TO.P,IC1,7,(PCINT20/XCK/T0)PD4/4*%
%TO.N,4APM*%
X156337000Y-79883000D03*
%TO.P,IC1,8,(PCINT21/OC0B/T1/PWM)PD5/5*%
%TO.N,5APM*%
X153797000Y-79883000D03*
%TO.P,IC1,9,(PCINT22/OC0A/AIN0/PWM)PD6/6*%
%TO.N,unconnected-(IC1-Pad9)*%
X151257000Y-79883000D03*
%TO.P,IC1,10,(PCINT23/AIN1)PD7/7*%
%TO.N,7APM*%
X148717000Y-79883000D03*
%TO.P,IC1,11,(PCINT0/CLKO/ICP1)PB0/8*%
%TO.N,8APM*%
X146177000Y-79883000D03*
%TO.P,IC1,12,(PCINT1/OC1A/PWM)PB1/9*%
%TO.N,9APM*%
X143637000Y-79883000D03*
%TO.P,IC1,13,(PCINT2/OC1B/~{SS}/PWM)PB2/10*%
%TO.N,10APM*%
X143637000Y-95123000D03*
%TO.P,IC1,14,(PCINT3/OC2A/MOSI/PWM)PB3/11*%
%TO.N,11APM*%
X146177000Y-95123000D03*
%TO.P,IC1,15,(PCINT4/MISO)PB4/12*%
%TO.N,12APM*%
X148717000Y-95123000D03*
%TO.P,IC1,16,(PCINT5/SCK)PB5/13*%
%TO.N,13APM*%
X151257000Y-95123000D03*
%TO.P,IC1,17,(PCINT8/ADC0)PC0/14/A0*%
%TO.N,A0_APM*%
X153797000Y-95123000D03*
%TO.P,IC1,18,(PCINT9/ADC1)PC1/15/A1*%
%TO.N,A1_APM*%
X156337000Y-95123000D03*
%TO.P,IC1,19,(PCINT10/ADC2)PC2/16/A2*%
%TO.N,A2_APM*%
X158877000Y-95123000D03*
%TO.P,IC1,20,(PCINT11/ADC3)PC3/17/A3*%
%TO.N,A3_APM*%
X161417000Y-95123000D03*
%TO.P,IC1,21,VCC*%
%TO.N,+3V3*%
X163957000Y-95123000D03*
%TO.P,IC1,22,(PCINT14/~{RESET})PC6*%
%TO.N,unconnected-(IC1-Pad22)*%
X166497000Y-95123000D03*
%TO.P,IC1,23,GND*%
%TO.N,GND*%
X169037000Y-95123000D03*
%TO.P,IC1,24,RAW*%
%TO.N,RAW_Vcc*%
X171577000Y-95123000D03*
%TO.P,IC1,25,(PCINT12/SDA/ADC4)PC4/18/A4*%
%TO.N,A4_APM*%
X160147000Y-92583000D03*
%TO.P,IC1,26,(PCINT13/SCL/ADC5)PC5/19/A5*%
%TO.N,A5_APM*%
X162687000Y-92583000D03*
%TD*%
D11*
%TO.P,,1*%
%TO.N,N/C*%
X172618400Y-121462800D03*
D12*
X175018400Y-121462800D03*
X174315456Y-123159856D03*
X172618400Y-123862800D03*
X170921344Y-123159856D03*
X170218400Y-121462800D03*
X170921344Y-119765744D03*
X172618400Y-119062800D03*
X174315456Y-119765744D03*
%TD*%
D11*
%TO.P,,1*%
%TO.N,N/C*%
X239408000Y-106273600D03*
D12*
X241808000Y-106273600D03*
X241105056Y-107970656D03*
X239408000Y-108673600D03*
X237710944Y-107970656D03*
X237008000Y-106273600D03*
X237710944Y-104576544D03*
X239408000Y-103873600D03*
X241105056Y-104576544D03*
%TD*%
D11*
%TO.P,,1*%
%TO.N,N/C*%
X193171744Y-74299744D03*
D12*
X195571744Y-74299744D03*
X194868800Y-75996800D03*
X193171744Y-76699744D03*
X191474688Y-75996800D03*
X190771744Y-74299744D03*
X191474688Y-72602688D03*
X193171744Y-71899744D03*
X194868800Y-72602688D03*
%TD*%
D11*
%TO.P,REF\u002A\u002A,1*%
%TO.N,N/C*%
X134467600Y-139090400D03*
D12*
X136867600Y-139090400D03*
X136164656Y-140787456D03*
X134467600Y-141490400D03*
X132770544Y-140787456D03*
X132067600Y-139090400D03*
X132770544Y-137393344D03*
X134467600Y-136690400D03*
X136164656Y-137393344D03*
%TD*%
D16*
%TO.P,J1,1,Pin_1*%
%TO.N,GND*%
X129032000Y-75645000D03*
D17*
%TO.P,J1,2,Pin_2*%
%TO.N,RAW_Vcc*%
X129032000Y-80645000D03*
%TD*%
D13*
%TO.P,J2,1,CD*%
%TO.N,unconnected-(J2-Pad1)*%
X126746000Y-130556000D03*
D14*
%TO.P,J2,2,DO*%
%TO.N,12APM*%
X129286000Y-130556000D03*
%TO.P,J2,3,GND*%
%TO.N,sht15_GND*%
X131826000Y-130556000D03*
%TO.P,J2,4,SCK*%
%TO.N,13APM*%
X134366000Y-130556000D03*
%TO.P,J2,5,VCC*%
%TO.N,+3V3*%
X136906000Y-130556000D03*
%TO.P,J2,6,DI*%
%TO.N,11APM*%
X139446000Y-130556000D03*
%TO.P,J2,7,CS*%
%TO.N,9APM*%
X141986000Y-130556000D03*
%TD*%
D13*
%TO.P,J3,1,SS*%
%TO.N,10APM*%
X126111000Y-106299000D03*
D14*
%TO.P,J3,2,MOSI*%
%TO.N,11APM*%
X128651000Y-106299000D03*
%TO.P,J3,3,MISO*%
%TO.N,12APM*%
X131191000Y-106299000D03*
%TO.P,J3,4,CLK*%
%TO.N,13APM*%
X133731000Y-106299000D03*
%TO.P,J3,5,SQW*%
%TO.N,8APM*%
X136271000Y-106299000D03*
%TO.P,J3,6,VCC*%
%TO.N,+3V3*%
X138811000Y-106299000D03*
%TO.P,J3,7,GND*%
%TO.N,GND*%
X141351000Y-106299000D03*
%TD*%
D18*
%TO.P,Q1,2,B*%
%TO.N,Net-(Q1-Pad2)*%
X148209000Y-120777000D03*
%TO.P,Q1,3,C*%
%TO.N,sht15_GND*%
X148209000Y-123317000D03*
D19*
%TO.P,Q1,1,E*%
%TO.N,GND*%
X148209000Y-118237000D03*
%TD*%
D18*
%TO.P,Q2,2,B*%
%TO.N,Net-(Q2-Pad2)*%
X164465000Y-73152000D03*
%TO.P,Q2,3,C*%
%TO.N,ON_GND*%
X164465000Y-70612000D03*
D19*
%TO.P,Q2,1,E*%
%TO.N,GND*%
X164465000Y-75692000D03*
%TD*%
D20*
%TO.P,R1,1*%
%TO.N,4APM*%
X165735000Y-120777000D03*
D21*
%TO.P,R1,2*%
%TO.N,Net-(Q1-Pad2)*%
X155575000Y-120777000D03*
%TD*%
D20*
%TO.P,R2,1*%
%TO.N,Net-(Q2-Pad2)*%
X158750000Y-73914000D03*
D21*
%TO.P,R2,2*%
%TO.N,7APM*%
X148590000Y-73914000D03*
%TD*%
D16*
%TO.P,R3,1*%
%TO.N,Net-(R3-Pad1)*%
X226267000Y-134493000D03*
D17*
%TO.P,R3,2*%
%TO.N,+3V3*%
X231267000Y-134493000D03*
%TD*%
D16*
%TO.P,R4,1*%
%TO.N,Net-(R10-Pad2)*%
X238522500Y-134429500D03*
D17*
%TO.P,R4,2*%
%TO.N,+3V3*%
X243522500Y-134429500D03*
%TD*%
D16*
%TO.P,R5,1*%
%TO.N,Net-(R5-Pad1)*%
X202391000Y-134493000D03*
D17*
%TO.P,R5,2*%
%TO.N,+3V3*%
X207391000Y-134493000D03*
%TD*%
D16*
%TO.P,R6,1*%
%TO.N,Net-(R6-Pad1)*%
X214202000Y-134683500D03*
D17*
%TO.P,R6,2*%
%TO.N,+3V3*%
X219202000Y-134683500D03*
%TD*%
D20*
%TO.P,R7,1*%
%TO.N,ON_GND*%
X225107500Y-125349000D03*
D21*
%TO.P,R7,2*%
%TO.N,Net-(R3-Pad1)*%
X225107500Y-115189000D03*
%TD*%
D20*
%TO.P,R8,1*%
%TO.N,ON_GND*%
X201295000Y-125476000D03*
D21*
%TO.P,R8,2*%
%TO.N,Net-(R5-Pad1)*%
X201295000Y-115316000D03*
%TD*%
D20*
%TO.P,R9,1*%
%TO.N,ON_GND*%
X213169500Y-125412500D03*
D21*
%TO.P,R9,2*%
%TO.N,Net-(R6-Pad1)*%
X213169500Y-115252500D03*
%TD*%
D20*
%TO.P,R10,1*%
%TO.N,ON_GND*%
X237236000Y-125412500D03*
D21*
%TO.P,R10,2*%
%TO.N,Net-(R10-Pad2)*%
X237236000Y-115252500D03*
%TD*%
D16*
%TO.P,R11,1*%
%TO.N,Net-(R11-Pad1)*%
X226267000Y-80518000D03*
D17*
%TO.P,R11,2*%
%TO.N,+3V3*%
X231267000Y-80518000D03*
%TD*%
D16*
%TO.P,R12,1*%
%TO.N,Net-(R12-Pad1)*%
X202264000Y-80645000D03*
D17*
%TO.P,R12,2*%
%TO.N,+3V3*%
X207264000Y-80645000D03*
%TD*%
D16*
%TO.P,R13,1*%
%TO.N,Net-(R13-Pad1)*%
X214329000Y-80581500D03*
D17*
%TO.P,R13,2*%
%TO.N,+3V3*%
X219329000Y-80581500D03*
%TD*%
D16*
%TO.P,R14,1*%
%TO.N,Net-(R14-Pad1)*%
X238315500Y-80581500D03*
D17*
%TO.P,R14,2*%
%TO.N,+3V3*%
X243315500Y-80581500D03*
%TD*%
D20*
%TO.P,R15,1*%
%TO.N,ON_GND*%
X225234500Y-89344500D03*
D21*
%TO.P,R15,2*%
%TO.N,Net-(R11-Pad1)*%
X225234500Y-99504500D03*
%TD*%
D20*
%TO.P,R16,1*%
%TO.N,ON_GND*%
X201358500Y-89471500D03*
D21*
%TO.P,R16,2*%
%TO.N,Net-(R12-Pad1)*%
X201358500Y-99631500D03*
%TD*%
D20*
%TO.P,R17,1*%
%TO.N,ON_GND*%
X213233000Y-89408000D03*
D21*
%TO.P,R17,2*%
%TO.N,Net-(R13-Pad1)*%
X213233000Y-99568000D03*
%TD*%
D20*
%TO.P,R18,1*%
%TO.N,ON_GND*%
X237236000Y-89344500D03*
D21*
%TO.P,R18,2*%
%TO.N,Net-(R14-Pad1)*%
X237236000Y-99504500D03*
%TD*%
D22*
%TO.P,U1,1*%
%TO.N,A3_APM*%
X185674000Y-110236000D03*
D23*
%TO.P,U1,8*%
%TO.N,A2_APM*%
X193294000Y-125476000D03*
%TO.P,U1,2,-*%
%TO.N,A3_APM*%
X185674000Y-112776000D03*
%TO.P,U1,9,-*%
%TO.N,A2_APM*%
X193294000Y-122936000D03*
%TO.P,U1,3,+*%
%TO.N,Net-(R3-Pad1)*%
X185674000Y-115316000D03*
%TO.P,U1,10,+*%
%TO.N,Net-(R6-Pad1)*%
X193294000Y-120396000D03*
%TO.P,U1,4,V+*%
%TO.N,+3V3*%
X185674000Y-117856000D03*
%TO.P,U1,11,V-*%
%TO.N,ON_GND*%
X193294000Y-117856000D03*
%TO.P,U1,5,+*%
%TO.N,Net-(R5-Pad1)*%
X185674000Y-120396000D03*
%TO.P,U1,12,+*%
%TO.N,Net-(R10-Pad2)*%
X193294000Y-115316000D03*
%TO.P,U1,6,-*%
%TO.N,A1_APM*%
X185674000Y-122936000D03*
%TO.P,U1,13,-*%
%TO.N,A4_APM*%
X193294000Y-112776000D03*
%TO.P,U1,7*%
%TO.N,A1_APM*%
X185674000Y-125476000D03*
%TO.P,U1,14*%
%TO.N,A4_APM*%
X193294000Y-110236000D03*
%TD*%
D22*
%TO.P,U2,1*%
%TO.N,A7_APM*%
X185420000Y-88011000D03*
D23*
%TO.P,U2,8*%
%TO.N,A5_APM*%
X193040000Y-103251000D03*
%TO.P,U2,2,-*%
%TO.N,A7_APM*%
X185420000Y-90551000D03*
%TO.P,U2,9,-*%
%TO.N,A5_APM*%
X193040000Y-100711000D03*
%TO.P,U2,3,+*%
%TO.N,Net-(R11-Pad1)*%
X185420000Y-93091000D03*
%TO.P,U2,10,+*%
%TO.N,Net-(R12-Pad1)*%
X193040000Y-98171000D03*
%TO.P,U2,4,V+*%
%TO.N,+3V3*%
X185420000Y-95631000D03*
%TO.P,U2,11,V-*%
%TO.N,ON_GND*%
X193040000Y-95631000D03*
%TO.P,U2,5,+*%
%TO.N,Net-(R14-Pad1)*%
X185420000Y-98171000D03*
%TO.P,U2,12,+*%
%TO.N,Net-(R13-Pad1)*%
X193040000Y-93091000D03*
%TO.P,U2,6,-*%
%TO.N,A0_APM*%
X185420000Y-100711000D03*
%TO.P,U2,13,-*%
%TO.N,A6_APM*%
X193040000Y-90551000D03*
%TO.P,U2,7*%
%TO.N,A0_APM*%
X185420000Y-103251000D03*
%TO.P,U2,14*%
%TO.N,A6_APM*%
X193040000Y-88011000D03*
%TD*%
D24*
%TO.P,U3,2,VO*%
%TO.N,+3V3*%
X131699000Y-87630000D03*
%TO.P,U3,3,VI*%
%TO.N,RAW_Vcc*%
X129159000Y-87630000D03*
%TO.P,U3,1,GND*%
%TO.N,GND*%
X134239000Y-87630000D03*
%TD*%
D11*
%TO.P,,1*%
%TO.N,N/C*%
X141224000Y-74269600D03*
D12*
X143624000Y-74269600D03*
X142921056Y-75966656D03*
X141224000Y-76669600D03*
X139526944Y-75966656D03*
X138824000Y-74269600D03*
X139526944Y-72572544D03*
X141224000Y-71869600D03*
X142921056Y-72572544D03*
%TD*%
D25*
%TO.P,C1,1*%
%TO.N,+3V3*%
X182245000Y-82279500D03*
D26*
%TO.P,C1,2*%
%TO.N,GND*%
X182245000Y-77279500D03*
%TD*%
D20*
%TO.P,R19,1*%
%TO.N,+3V3*%
X160629600Y-104140000D03*
D21*
%TO.P,R19,2*%
%TO.N,3APM*%
X160629600Y-114300000D03*
%TD*%
D27*
%TO.N,A7_APM*%
X172783500Y-89344500D03*
X159828456Y-89533956D03*
%TO.N,A6_APM*%
X191516000Y-85153500D03*
X168529000Y-88138000D03*
X162496500Y-88138000D03*
%TO.N,3APM*%
X154178000Y-104190800D03*
X158242000Y-84899500D03*
X156908500Y-89288000D03*
X155257500Y-91433000D03*
X154190327Y-98857173D03*
%TO.N,4APM*%
X151511000Y-82931000D03*
X145034000Y-83058000D03*
X142430500Y-83121500D03*
X131000500Y-84645500D03*
X125539500Y-84518500D03*
X125476000Y-115125500D03*
X141922500Y-114808000D03*
%TO.N,5APM*%
X147320000Y-109829600D03*
X146347039Y-106733072D03*
X148209000Y-87312500D03*
X151066500Y-85153500D03*
X141986000Y-93789500D03*
X141287500Y-99885500D03*
%TO.N,8APM*%
X129667000Y-97536000D03*
%TO.N,9APM*%
X140081000Y-85534500D03*
X139509500Y-93873000D03*
X127698500Y-128016000D03*
X141986000Y-128016000D03*
%TO.N,11APM*%
X127444500Y-119697500D03*
X140081000Y-119507000D03*
%TO.N,A0_APM*%
X157855884Y-100767490D03*
X162928680Y-102564820D03*
X174122981Y-102991019D03*
X169481500Y-102933500D03*
X156056366Y-99096866D03*
%TO.N,A1_APM*%
X180657500Y-119006010D03*
%TO.N,A2_APM*%
X184594500Y-129286000D03*
%TO.N,A3_APM*%
X165227000Y-100691000D03*
X164338000Y-98191000D03*
X181102000Y-110236000D03*
%TO.N,+3V3*%
X179959000Y-95631000D03*
X180467000Y-89916000D03*
X177292000Y-118554500D03*
X172593000Y-97409000D03*
X158369000Y-98552000D03*
X140296908Y-104778672D03*
%TO.N,A4_APM*%
X169799000Y-90297000D03*
X164211000Y-90297000D03*
X186309000Y-107505500D03*
%TO.N,A5_APM*%
X171982181Y-92177819D03*
X167565741Y-92530259D03*
X181234116Y-106484384D03*
%TO.N,sht15_GND*%
X141351000Y-125349000D03*
X131826000Y-125349000D03*
%TO.N,ON_GND*%
X205994000Y-118567200D03*
X205790800Y-102717600D03*
X231648000Y-89281000D03*
X227901500Y-89281000D03*
X220345000Y-89344500D03*
X215392000Y-89344500D03*
X187896500Y-84391500D03*
X188658500Y-91821000D03*
%TO.N,Net-(R3-Pad1)*%
X229997000Y-127889000D03*
X229997000Y-122809000D03*
X218821000Y-113919000D03*
X217106500Y-110934500D03*
%TO.N,Net-(R6-Pad1)*%
X217741500Y-127254000D03*
X217741500Y-123380500D03*
%TO.N,Net-(R12-Pad1)*%
X199908499Y-98181499D03*
%TO.N,Net-(R14-Pad1)*%
X180735500Y-101155500D03*
%TD*%
D28*
%TO.N,A5_APM*%
X174145499Y-94341137D02*
X174145499Y-99151999D01*
X171982181Y-92177819D02*
X174145499Y-94341137D01*
X174145499Y-99151999D02*
X181234116Y-106240616D01*
X181234116Y-106240616D02*
X181234116Y-106484384D01*
%TO.N,A7_APM*%
X185420000Y-89251000D02*
X185420000Y-90551000D01*
X184913501Y-88744501D02*
X185420000Y-89251000D01*
X173383499Y-88744501D02*
X184913501Y-88744501D01*
X172783500Y-89344500D02*
X173383499Y-88744501D01*
X152527000Y-92583000D02*
X156779412Y-92583000D01*
X156779412Y-92583000D02*
X159828456Y-89533956D01*
X185420000Y-88011000D02*
X185420000Y-90551000D01*
%TO.N,A6_APM*%
X152844500Y-90043000D02*
X152177750Y-90043000D01*
X152177750Y-90043000D02*
X149987000Y-92233750D01*
X149987000Y-92233750D02*
X149987000Y-92583000D01*
X190108501Y-86560999D02*
X191516000Y-85153500D01*
X168529000Y-88138000D02*
X170106001Y-86560999D01*
X170106001Y-86560999D02*
X190108501Y-86560999D01*
X152844500Y-90043000D02*
X154749500Y-88138000D01*
X154749500Y-88138000D02*
X162496500Y-88138000D01*
X193040000Y-88011000D02*
X193040000Y-90551000D01*
%TO.N,3APM*%
X154178000Y-104190800D02*
X160629600Y-110642400D01*
X160629600Y-110642400D02*
X160629600Y-114300000D01*
X154190327Y-98857173D02*
X150622000Y-102425500D01*
X150622000Y-102425500D02*
X150622000Y-102743000D01*
D29*
X158242000Y-84899500D02*
X158877000Y-84264500D01*
X158877000Y-84264500D02*
X158877000Y-79883000D01*
X155257500Y-91433000D02*
X155257500Y-90939000D01*
X155257500Y-90939000D02*
X156908500Y-89288000D01*
D28*
%TO.N,4APM*%
X157204401Y-115650001D02*
X162331400Y-120777000D01*
X162331400Y-120777000D02*
X165735000Y-120777000D01*
X141922500Y-114808000D02*
X142764501Y-115650001D01*
X142764501Y-115650001D02*
X157204401Y-115650001D01*
X145034000Y-83058000D02*
X151384000Y-83058000D01*
X151384000Y-83058000D02*
X151511000Y-82931000D01*
X131000500Y-84645500D02*
X132524500Y-83121500D01*
X132524500Y-83121500D02*
X142430500Y-83121500D01*
X125476000Y-115125500D02*
X123910989Y-113560489D01*
X123910989Y-113560489D02*
X123910989Y-86147011D01*
X123910989Y-86147011D02*
X125539500Y-84518500D01*
%TO.N,5APM*%
X147320000Y-109829600D02*
X150088600Y-109829600D01*
X150088600Y-109829600D02*
X150622000Y-110363000D01*
X146347039Y-105884544D02*
X146347039Y-106733072D01*
X146347039Y-104945039D02*
X146347039Y-105884544D01*
X141287500Y-99885500D02*
X146347039Y-104945039D01*
D29*
X148209000Y-87566500D02*
X148209000Y-87312500D01*
X141986000Y-93789500D02*
X148209000Y-87566500D01*
X151066500Y-85153500D02*
X153797000Y-82423000D01*
X153797000Y-82423000D02*
X153797000Y-79883000D01*
D28*
%TO.N,7APM*%
X148590000Y-73914000D02*
X148590000Y-79756000D01*
X148590000Y-79756000D02*
X148717000Y-79883000D01*
%TO.N,8APM*%
X142973830Y-78133170D02*
X128731828Y-78133170D01*
X128731828Y-78133170D02*
X127131999Y-79732999D01*
X127131999Y-79732999D02*
X127131999Y-95000999D01*
X127131999Y-95000999D02*
X129667000Y-97536000D01*
X146177000Y-79883000D02*
X146177000Y-78283180D01*
X146177000Y-78283180D02*
X146026990Y-78133170D01*
X146026990Y-78133170D02*
X142973830Y-78133170D01*
%TO.N,9APM*%
X143637000Y-81482820D02*
X143637000Y-79883000D01*
X143637000Y-83617004D02*
X143637000Y-81482820D01*
X141719504Y-85534500D02*
X143637000Y-83617004D01*
X140081000Y-85534500D02*
X141719504Y-85534500D01*
X138660972Y-93873000D02*
X139509500Y-93873000D01*
X135666998Y-93873000D02*
X138660972Y-93873000D01*
X124711000Y-104828998D02*
X135666998Y-93873000D01*
X126626001Y-114573499D02*
X124711000Y-112658498D01*
X126626001Y-115677501D02*
X126626001Y-114573499D01*
X126245001Y-116058501D02*
X126626001Y-115677501D01*
X126245001Y-126562501D02*
X126245001Y-116058501D01*
X127698500Y-128016000D02*
X126245001Y-126562501D01*
X124711000Y-112658498D02*
X124711000Y-104828998D01*
X141986000Y-130556000D02*
X141986000Y-128016000D01*
%TO.N,10APM*%
X143637000Y-95123000D02*
X135937000Y-95123000D01*
X135937000Y-95123000D02*
X126111000Y-104949000D01*
X126111000Y-104949000D02*
X126111000Y-106299000D01*
%TO.N,11APM*%
X128651000Y-107566194D02*
X127444500Y-108772694D01*
X128651000Y-106299000D02*
X128651000Y-107566194D01*
X127444500Y-108772694D02*
X127444500Y-119697500D01*
X146177000Y-95472250D02*
X146177000Y-95123000D01*
X144513772Y-97135478D02*
X146177000Y-95472250D01*
X137814522Y-97135478D02*
X144513772Y-97135478D01*
X128651000Y-106299000D02*
X137814522Y-97135478D01*
X140081000Y-119507000D02*
X140081000Y-129921000D01*
X140081000Y-129921000D02*
X139446000Y-130556000D01*
%TO.N,12APM*%
X129286000Y-130556000D02*
X129286000Y-108204000D01*
X129286000Y-108204000D02*
X131191000Y-106299000D01*
X148717000Y-95472250D02*
X148717000Y-95123000D01*
X146253762Y-97935488D02*
X148717000Y-95472250D01*
X139554512Y-97935488D02*
X146253762Y-97935488D01*
X131191000Y-106299000D02*
X139554512Y-97935488D01*
%TO.N,13APM*%
X151257000Y-95472250D02*
X151257000Y-95123000D01*
X147993752Y-98735498D02*
X151257000Y-95472250D01*
X133731000Y-105096919D02*
X140092421Y-98735498D01*
X140092421Y-98735498D02*
X147993752Y-98735498D01*
X133731000Y-106299000D02*
X133731000Y-105096919D01*
X134366000Y-130556000D02*
X134366000Y-106934000D01*
X134366000Y-106934000D02*
X133731000Y-106299000D01*
%TO.N,A0_APM*%
X162328681Y-101964821D02*
X162928680Y-102564820D01*
X161131350Y-100767490D02*
X162328681Y-101964821D01*
X157855884Y-100767490D02*
X161131350Y-100767490D01*
X169481500Y-102933500D02*
X174065462Y-102933500D01*
X174065462Y-102933500D02*
X174122981Y-102991019D01*
X153797000Y-95123000D02*
X153797000Y-96837500D01*
X153797000Y-96837500D02*
X156056366Y-99096866D01*
X185420000Y-100711000D02*
X185420000Y-103251000D01*
%TO.N,A1_APM*%
X180057501Y-118406011D02*
X180657500Y-119006010D01*
X164078681Y-102012819D02*
X164078681Y-102427191D01*
X159367861Y-97301999D02*
X164078681Y-102012819D01*
X164078681Y-102427191D02*
X180057501Y-118406011D01*
X156337000Y-95123000D02*
X156337000Y-95472250D01*
X156337000Y-95472250D02*
X158166749Y-97301999D01*
X158166749Y-97301999D02*
X159367861Y-97301999D01*
X185674000Y-122936000D02*
X185674000Y-125476000D01*
%TO.N,A2_APM*%
X172340730Y-99441000D02*
X162845750Y-99441000D01*
X162845750Y-99441000D02*
X158877000Y-95472250D01*
X158877000Y-95472250D02*
X158877000Y-95123000D01*
X182816500Y-127508000D02*
X182816500Y-109916770D01*
X182816500Y-109916770D02*
X172340730Y-99441000D01*
X184594500Y-129286000D02*
X182816500Y-127508000D01*
X193294000Y-122936000D02*
X193294000Y-125476000D01*
%TO.N,A3_APM*%
X165227000Y-100691000D02*
X174772000Y-110236000D01*
X174772000Y-110236000D02*
X181102000Y-110236000D01*
X161417000Y-95123000D02*
X161417000Y-95270000D01*
X161417000Y-95270000D02*
X164338000Y-98191000D01*
X185674000Y-110236000D02*
X185674000Y-112776000D01*
%TO.N,+3V3*%
X160629600Y-104140000D02*
X160629600Y-103008630D01*
X160629600Y-103008630D02*
X160655000Y-102983230D01*
X160655000Y-102983230D02*
X160655000Y-101917500D01*
X145802798Y-107982402D02*
X142599068Y-104778672D01*
X146333810Y-107982402D02*
X145802798Y-107982402D01*
X146436624Y-107879588D02*
X146333810Y-107982402D01*
X148025412Y-107879588D02*
X146436624Y-107879588D01*
X150622000Y-105283000D02*
X148025412Y-107879588D01*
X142599068Y-104778672D02*
X141145436Y-104778672D01*
X141145436Y-104778672D02*
X140296908Y-104778672D01*
X155003500Y-101917500D02*
X153987500Y-101917500D01*
X153987500Y-101917500D02*
X150622000Y-105283000D01*
X231267000Y-134493000D02*
X233003501Y-136229501D01*
X233003501Y-136229501D02*
X241722499Y-136229501D01*
X241722499Y-136229501D02*
X242272501Y-135679499D01*
X242272501Y-135679499D02*
X243522500Y-134429500D01*
X219202000Y-134683500D02*
X220811501Y-136293001D01*
X220811501Y-136293001D02*
X229466999Y-136293001D01*
X229466999Y-136293001D02*
X230017001Y-135742999D01*
X230017001Y-135742999D02*
X231267000Y-134493000D01*
X207391000Y-134493000D02*
X207391000Y-136260766D01*
X217952001Y-135933499D02*
X219202000Y-134683500D01*
X207391000Y-136260766D02*
X207613735Y-136483501D01*
X207613735Y-136483501D02*
X217401999Y-136483501D01*
X217401999Y-136483501D02*
X217952001Y-135933499D01*
X231267000Y-80518000D02*
X233003501Y-78781499D01*
X233003501Y-78781499D02*
X241515499Y-78781499D01*
X241515499Y-78781499D02*
X242065501Y-79331501D01*
X242065501Y-79331501D02*
X243315500Y-80581500D01*
X219329000Y-80581500D02*
X221192501Y-78717999D01*
X221192501Y-78717999D02*
X229466999Y-78717999D01*
X229466999Y-78717999D02*
X230017001Y-79268001D01*
X230017001Y-79268001D02*
X231267000Y-80518000D01*
X207264000Y-80645000D02*
X209445001Y-78463999D01*
X209445001Y-78463999D02*
X217401999Y-78463999D01*
X217401999Y-78463999D02*
X217952001Y-79014001D01*
X217952001Y-79014001D02*
X219202000Y-80264000D01*
X180467000Y-89916000D02*
X180467000Y-95123000D01*
X180467000Y-95123000D02*
X179959000Y-95631000D01*
X155003500Y-101917500D02*
X160655000Y-101917500D01*
X158369000Y-98552000D02*
X155003500Y-101917500D01*
X160655000Y-101917500D02*
X177292000Y-118554500D01*
X163957000Y-95123000D02*
X163957000Y-95472250D01*
X163957000Y-95472250D02*
X165893750Y-97409000D01*
X165893750Y-97409000D02*
X166243000Y-97409000D01*
X166243000Y-97409000D02*
X172593000Y-97409000D01*
X140296908Y-104778672D02*
X140311001Y-104798999D01*
X207264000Y-80645000D02*
X205363999Y-78744999D01*
X205363999Y-78744999D02*
X199855378Y-78744999D01*
X199855378Y-78744999D02*
X187270010Y-91330367D01*
X187270010Y-91330367D02*
X187270010Y-94180990D01*
X187270010Y-94180990D02*
X185820000Y-95631000D01*
X185820000Y-95631000D02*
X185420000Y-95631000D01*
X207391000Y-134493000D02*
X205490999Y-136393001D01*
X205490999Y-136393001D02*
X194140378Y-136393001D01*
X194140378Y-136393001D02*
X183823990Y-126076613D01*
X183823990Y-126076613D02*
X183823990Y-118006010D01*
X183823990Y-118006010D02*
X183974000Y-117856000D01*
X183974000Y-117856000D02*
X185674000Y-117856000D01*
X140311001Y-104798999D02*
X139660999Y-105449001D01*
X139660999Y-105449001D02*
X138811000Y-106299000D01*
X136906000Y-130556000D02*
X138811000Y-128651000D01*
X138811000Y-128651000D02*
X138811000Y-106299000D01*
%TO.N,RAW_Vcc*%
X171577000Y-94773750D02*
X171577000Y-95123000D01*
X162905670Y-86102420D02*
X171577000Y-94773750D01*
X151819582Y-86102420D02*
X162905670Y-86102420D01*
X150514499Y-86303501D02*
X151618501Y-86303501D01*
X151618501Y-86303501D02*
X151819582Y-86102420D01*
X142901533Y-85908498D02*
X150119496Y-85908498D01*
X138005031Y-90805000D02*
X142901533Y-85908498D01*
X129159000Y-87884000D02*
X132080000Y-90805000D01*
X129159000Y-87630000D02*
X129159000Y-87884000D01*
X150119496Y-85908498D02*
X150514499Y-86303501D01*
X132080000Y-90805000D02*
X138005031Y-90805000D01*
X129032000Y-80645000D02*
X129032000Y-87503000D01*
X129032000Y-87503000D02*
X129159000Y-87630000D01*
%TO.N,A4_APM*%
X169799000Y-90297000D02*
X171727002Y-90297000D01*
X171727002Y-90297000D02*
X179485499Y-98055497D01*
X179485499Y-98055497D02*
X179485499Y-102967999D01*
X179485499Y-102967999D02*
X184023000Y-107505500D01*
X184023000Y-107505500D02*
X185460472Y-107505500D01*
X185460472Y-107505500D02*
X186309000Y-107505500D01*
X160833180Y-90297000D02*
X164211000Y-90297000D01*
X160147000Y-92583000D02*
X160147000Y-90983180D01*
X160147000Y-90983180D02*
X160833180Y-90297000D01*
X193294000Y-110236000D02*
X193294000Y-112776000D01*
%TO.N,A5_APM*%
X162687000Y-92583000D02*
X167513000Y-92583000D01*
X167513000Y-92583000D02*
X167565741Y-92530259D01*
X193040000Y-100711000D02*
X193040000Y-103251000D01*
%TO.N,sht15_GND*%
X149765401Y-108679599D02*
X149772001Y-108672999D01*
X146767999Y-108679599D02*
X149765401Y-108679599D01*
X140772498Y-114181292D02*
X146171377Y-108782413D01*
X143954500Y-123317000D02*
X143954500Y-118542004D01*
X140772498Y-115360002D02*
X140772498Y-114181292D01*
X149772001Y-108672999D02*
X150622000Y-107823000D01*
X146171377Y-108782413D02*
X146665185Y-108782413D01*
X146665185Y-108782413D02*
X146767999Y-108679599D01*
X143954500Y-118542004D02*
X140772498Y-115360002D01*
X143954500Y-123317000D02*
X148209000Y-123317000D01*
X143383000Y-123317000D02*
X143954500Y-123317000D01*
X141351000Y-125349000D02*
X143383000Y-123317000D01*
X131826000Y-130556000D02*
X131826000Y-125349000D01*
%TO.N,Net-(Q1-Pad2)*%
X148209000Y-120777000D02*
X155575000Y-120777000D01*
%TO.N,Net-(Q2-Pad2)*%
X158750000Y-73914000D02*
X163703000Y-73914000D01*
X163703000Y-73914000D02*
X164465000Y-73152000D01*
%TO.N,ON_GND*%
X205994000Y-118567200D02*
X201295000Y-123266200D01*
X201295000Y-123266200D02*
X201295000Y-125476000D01*
X201358500Y-89471500D02*
X205790800Y-93903800D01*
X205790800Y-93903800D02*
X205790800Y-102717600D01*
X231648000Y-89281000D02*
X237172500Y-89281000D01*
X225234500Y-89344500D02*
X227838000Y-89344500D01*
X227838000Y-89344500D02*
X227901500Y-89281000D01*
X220345000Y-89344500D02*
X225234500Y-89344500D01*
X213233000Y-89408000D02*
X215328500Y-89408000D01*
X215328500Y-89408000D02*
X215392000Y-89344500D01*
X225107500Y-125349000D02*
X237172500Y-125349000D01*
X237172500Y-125349000D02*
X237236000Y-125412500D01*
X213169500Y-125412500D02*
X225044000Y-125412500D01*
X225044000Y-125412500D02*
X225107500Y-125349000D01*
X201295000Y-125476000D02*
X213106000Y-125476000D01*
X213106000Y-125476000D02*
X213169500Y-125412500D01*
X201358500Y-89471500D02*
X212725000Y-89471500D01*
X212725000Y-89471500D02*
X213106000Y-89090500D01*
X164465000Y-70612000D02*
X182880000Y-70612000D01*
X182880000Y-70612000D02*
X187896500Y-75628500D01*
X187896500Y-75628500D02*
X187896500Y-84391500D01*
X188830000Y-91821000D02*
X188658500Y-91821000D01*
X192640000Y-95631000D02*
X188830000Y-91821000D01*
%TO.N,Net-(R3-Pad1)*%
X229997000Y-127889000D02*
X226267000Y-131619000D01*
X226267000Y-131619000D02*
X226267000Y-134493000D01*
X229997000Y-120078500D02*
X229997000Y-122809000D01*
X225107500Y-115189000D02*
X229997000Y-120078500D01*
X218821000Y-113919000D02*
X220091000Y-115189000D01*
X220091000Y-115189000D02*
X225107500Y-115189000D01*
X192278000Y-108712000D02*
X214884000Y-108712000D01*
X214884000Y-108712000D02*
X217106500Y-110934500D01*
X192278000Y-108712000D02*
X187374000Y-113616000D01*
X187374000Y-113616000D02*
X187374000Y-114016000D01*
X187374000Y-114016000D02*
X186074000Y-115316000D01*
X186074000Y-115316000D02*
X185674000Y-115316000D01*
%TO.N,Net-(R10-Pad2)*%
X241427000Y-119443500D02*
X241427000Y-129775000D01*
X241427000Y-129775000D02*
X238522500Y-132679500D01*
X238522500Y-132679500D02*
X238522500Y-134429500D01*
X237236000Y-115252500D02*
X241427000Y-119443500D01*
X200422194Y-112395000D02*
X234378500Y-112395000D01*
X234378500Y-112395000D02*
X237236000Y-115252500D01*
X193294000Y-115316000D02*
X197501194Y-115316000D01*
X197501194Y-115316000D02*
X200422194Y-112395000D01*
%TO.N,Net-(R5-Pad1)*%
X202391000Y-134493000D02*
X202391000Y-132743000D01*
X202391000Y-132743000D02*
X196574010Y-126926010D01*
X196574010Y-126926010D02*
X194294613Y-126926010D01*
X201295000Y-115316000D02*
X201295000Y-119925623D01*
X201295000Y-119925623D02*
X194294613Y-126926010D01*
X194294613Y-126926010D02*
X192204010Y-126926010D01*
X192204010Y-126926010D02*
X187374000Y-122096000D01*
X187374000Y-122096000D02*
X187374000Y-121696000D01*
X187374000Y-121696000D02*
X186074000Y-120396000D01*
X186074000Y-120396000D02*
X185674000Y-120396000D01*
%TO.N,Net-(R6-Pad1)*%
X217741500Y-127254000D02*
X214202000Y-130793500D01*
X214202000Y-130793500D02*
X214202000Y-134683500D01*
X217678000Y-119761000D02*
X217678000Y-123317000D01*
X217678000Y-123317000D02*
X217741500Y-123380500D01*
X213169500Y-115252500D02*
X217678000Y-119761000D01*
X200224001Y-113865999D02*
X211782999Y-113865999D01*
X211782999Y-113865999D02*
X213169500Y-115252500D01*
X200224001Y-113865999D02*
X193694000Y-120396000D01*
X193694000Y-120396000D02*
X193294000Y-120396000D01*
%TO.N,Net-(R11-Pad1)*%
X225234500Y-99504500D02*
X229489000Y-95250000D01*
X229489000Y-95250000D02*
X229489000Y-85490000D01*
X229489000Y-85490000D02*
X226267000Y-82268000D01*
X226267000Y-82268000D02*
X226267000Y-80518000D01*
X184419387Y-104701010D02*
X220037990Y-104701010D01*
X220037990Y-104701010D02*
X225234500Y-99504500D01*
X185420000Y-93091000D02*
X185020000Y-93091000D01*
X185020000Y-93091000D02*
X182669981Y-95441019D01*
X182669981Y-95441019D02*
X182669981Y-102951604D01*
X182669981Y-102951604D02*
X184419387Y-104701010D01*
%TO.N,Net-(R12-Pad1)*%
X202264000Y-80645000D02*
X202264000Y-82395000D01*
X202264000Y-82395000D02*
X199908499Y-84750501D01*
X199908499Y-84750501D02*
X199908499Y-98181499D01*
X199908499Y-98181499D02*
X200558501Y-98831501D01*
X200558501Y-98831501D02*
X201358500Y-99631500D01*
%TO.N,Net-(R13-Pad1)*%
X208933398Y-103867602D02*
X212433001Y-100367999D01*
X203448600Y-103867602D02*
X208933398Y-103867602D01*
X196786500Y-97205502D02*
X203448600Y-103867602D01*
X212433001Y-100367999D02*
X213233000Y-99568000D01*
X193440000Y-93091000D02*
X196786500Y-96437500D01*
X193040000Y-93091000D02*
X193440000Y-93091000D01*
X196786500Y-96437500D02*
X196786500Y-97205502D01*
X217678000Y-95123000D02*
X217678000Y-85680500D01*
X217678000Y-85680500D02*
X214329000Y-82331500D01*
X213233000Y-99568000D02*
X217678000Y-95123000D01*
X214329000Y-82331500D02*
X214329000Y-80581500D01*
%TO.N,Net-(R14-Pad1)*%
X237236000Y-99504500D02*
X238586001Y-98154499D01*
X238586001Y-98154499D02*
X238586001Y-82602001D01*
X238586001Y-82602001D02*
X238315500Y-82331500D01*
X238315500Y-82331500D02*
X238315500Y-80581500D01*
X184046591Y-105601020D02*
X231139480Y-105601020D01*
X231139480Y-105601020D02*
X237236000Y-99504500D01*
X180735500Y-101155500D02*
X180735500Y-102289929D01*
X180735500Y-102289929D02*
X184046591Y-105601020D01*
%TD*%
M02*
